<?xml version="1.0" encoding="UTF-8" standalone="no"?><svg xmlns="http://www.w3.org/2000/svg" xmlns:xlink="http://www.w3.org/1999/xlink" clip-rule="evenodd" stroke-miterlimit="4.00" viewBox="0 0 106 55"><desc>SVG generated by Keynote</desc><defs></defs><g transform="matrix(1.00, 0.00, -0.00, -1.00, 0.0, 55.0)"><g><clipPath id="clip-276"><path d="M 0.7 0.3 L 105.6 0.3 L 105.6 54.3 L 0.7 54.3 Z M 0.7 0.3 "></path></clipPath><g clip-path="url(#clip-276)"><image xlink:href="../../05D01F8E-6FCB-4FCC-B455-77AE175AE89B/assets/98C45F117D9DDF1FE11BCB49815EE8BF.png" width="103.00" height="52.00" transform="matrix(1.00, 0.00, -0.00, -1.00, 1.7, 53.3)" opacity="0.31"></image><path d="M 11.5 52.2 L 94.9 52.2 C 97.1 52.2 98.2 52.2 99.4 51.8 C 100.6 51.4 101.7 50.3 102.1 49.1 C 102.5 47.9 102.5 46.8 102.5 44.5 L 102.5 12.0 C 102.5 9.8 102.5 8.7 102.1 7.5 C 101.7 6.2 100.6 5.2 99.4 4.8 C 98.2 4.4 97.1 4.4 94.8 4.4 L 11.5 4.4 C 9.3 4.4 8.2 4.4 7.0 4.8 C 5.7 5.2 4.7 6.2 4.2 7.5 C 3.9 8.7 3.9 9.8 3.9 12.1 L 3.9 44.6 C 3.9 46.8 3.9 47.9 4.2 49.1 C 4.7 50.3 5.7 51.4 7.0 51.8 C 8.2 52.2 9.3 52.2 11.5 52.2 Z M 11.5 52.2 " fill="#FEFFFF"></path><path d="M 7.6 0.0 L 91.0 0.0 C 93.2 0.0 94.3 0.0 95.5 0.4 C 96.8 0.8 97.8 1.9 98.3 3.2 C 98.7 4.3 98.7 5.4 98.7 7.7 L 98.7 40.2 C 98.7 42.4 98.7 43.5 98.3 44.7 C 97.8 46.0 96.8 47.0 95.5 47.5 C 94.3 47.8 93.2 47.8 91.0 47.8 L 7.6 47.8 C 5.4 47.8 4.3 47.8 3.2 47.5 C 1.9 47.0 0.8 46.0 0.4 44.7 C 0.0 43.5 0.0 42.4 0.0 40.2 L 0.0 7.6 C 0.0 5.4 0.0 4.3 0.4 3.2 C 0.8 1.9 1.9 0.8 3.2 0.4 C 4.3 0.0 5.4 0.0 7.7 0.0 Z M 7.6 0.0 " fill="none" stroke="#2E3E8B" stroke-width="0.35" transform="matrix(1.00, 0.00, 0.00, -1.00, 3.9, 52.2)"></path></g></g><g><clipPath id="clip-277"><path d="M 16.7 21.1 L 89.6 21.1 L 89.6 48.6 L 16.7 48.6 Z M 16.7 21.1 "></path></clipPath><g clip-path="url(#clip-277)"><image xlink:href="../../8D663842-7DF3-4E74-92EB-607CF9F389C9/assets/393F6594DC254547FA93636C714F9CAA.png" width="92.00" height="34.00" transform="matrix(0.79, 0.00, -0.00, -0.82, 17.0, 49.0)"></image></g></g><g><clipPath id="clip-278"><path d="M 18.1 9.7 L 88.2 9.7 L 88.2 28.4 L 18.1 28.4 Z M 18.1 9.7 "></path></clipPath><g clip-path="url(#clip-278)"><text xml:space="preserve" font-family="Helvetica" font-size="10.0" fill="#0053A3" transform="matrix(1.00, 0.00, -0.00, -1.00, 21.0, 16.0)">r</text><text xml:space="preserve" font-family="Helvetica" font-size="10.0" fill="#0053A3" transform="matrix(1.00, 0.00, -0.00, -1.00, 24.3, 16.0)">e</text><text xml:space="preserve" font-family="Helvetica" font-size="10.0" fill="#0053A3" transform="matrix(1.00, 0.00, -0.00, -1.00, 29.9, 16.0)">c</text><text xml:space="preserve" font-family="Helvetica" font-size="10.0" fill="#0053A3" transform="matrix(1.00, 0.00, -0.00, -1.00, 34.9, 16.0)">o</text><text xml:space="preserve" font-family="Helvetica" font-size="10.0" fill="#0053A3" transform="matrix(1.00, 0.00, -0.00, -1.00, 40.5, 16.0)">m</text><text xml:space="preserve" font-family="Helvetica" font-size="10.0" fill="#0053A3" transform="matrix(1.00, 0.00, -0.00, -1.00, 48.8, 16.0)">m</text><text xml:space="preserve" font-family="Helvetica" font-size="10.0" fill="#0053A3" transform="matrix(1.00, 0.00, -0.00, -1.00, 57.1, 16.0)">e</text><text xml:space="preserve" font-family="Helvetica" font-size="10.0" fill="#0053A3" transform="matrix(1.00, 0.00, -0.00, -1.00, 62.7, 16.0)">n</text><text xml:space="preserve" font-family="Helvetica" font-size="10.0" fill="#0053A3" transform="matrix(1.00, 0.00, -0.00, -1.00, 68.2, 16.0)">d</text><text xml:space="preserve" font-family="Helvetica" font-size="10.0" fill="#0053A3" transform="matrix(1.00, 0.00, -0.00, -1.00, 73.8, 16.0)">e</text><text xml:space="preserve" font-family="Helvetica" font-size="10.0" fill="#0053A3" transform="matrix(1.00, 0.00, -0.00, -1.00, 79.4, 16.0)">d</text></g></g></g></svg>