<?xml version="1.0" encoding="UTF-8" standalone="no"?><svg xmlns="http://www.w3.org/2000/svg" xmlns:xlink="http://www.w3.org/1999/xlink" clip-rule="evenodd" stroke-miterlimit="4.00" viewBox="0 0 444 18"><desc>SVG generated by Keynote</desc><defs></defs><g transform="matrix(1.00, 0.00, -0.00, -1.00, 0.0, 18.0)"><text xml:space="preserve" font-family="Helvetica" font-size="15.0" fill="#888888" transform="matrix(1.00, 0.00, -0.00, -1.00, 1.0, 5.0)">F</text><text xml:space="preserve" font-family="Helvetica" font-size="15.0" fill="#888888" transform="matrix(1.00, 0.00, -0.00, -1.00, 10.2, 5.0)">r</text><text xml:space="preserve" font-family="Helvetica" font-size="15.0" fill="#888888" transform="matrix(1.00, 0.00, -0.00, -1.00, 15.2, 5.0)">o</text><text xml:space="preserve" font-family="Helvetica" font-size="15.0" fill="#888888" transform="matrix(1.00, 0.00, -0.00, -1.00, 23.5, 5.0)">m</text><text xml:space="preserve" font-family="Helvetica" font-size="15.0" fill="#888888" transform="matrix(1.00, 0.00, -0.00, -1.00, 36.0, 5.0)"> </text><text xml:space="preserve" font-family="Helvetica" font-size="15.0" fill="#888888" transform="matrix(1.00, 0.00, -0.00, -1.00, 39.9, 5.0)">T</text><text xml:space="preserve" font-family="Helvetica" font-size="15.0" fill="#888888" transform="matrix(1.00, 0.00, -0.00, -1.00, 49.1, 5.0)">h</text><text xml:space="preserve" font-family="Helvetica" font-size="15.0" fill="#888888" transform="matrix(1.00, 0.00, -0.00, -1.00, 57.4, 5.0)">e</text><text xml:space="preserve" font-family="Helvetica" font-size="15.0" fill="#888888" transform="matrix(1.00, 0.00, -0.00, -1.00, 65.7, 5.0)"> </text><text xml:space="preserve" font-family="Helvetica" font-size="15.0" fill="#888888" transform="matrix(1.00, 0.00, -0.00, -1.00, 69.9, 5.0)">C</text><text xml:space="preserve" font-family="Helvetica" font-size="15.0" fill="#888888" transform="matrix(1.00, 0.00, -0.00, -1.00, 80.7, 5.0)">h</text><text xml:space="preserve" font-family="Helvetica" font-size="15.0" fill="#888888" transform="matrix(1.00, 0.00, -0.00, -1.00, 89.1, 5.0)">o</text><text xml:space="preserve" font-family="Helvetica" font-size="15.0" fill="#888888" transform="matrix(1.00, 0.00, -0.00, -1.00, 97.4, 5.0)">r</text><text xml:space="preserve" font-family="Helvetica" font-size="15.0" fill="#888888" transform="matrix(1.00, 0.00, -0.00, -1.00, 102.4, 5.0)">u</text><text xml:space="preserve" font-family="Helvetica" font-size="15.0" fill="#888888" transform="matrix(1.00, 0.00, -0.00, -1.00, 110.8, 5.0)">s</text><text xml:space="preserve" font-family="Helvetica" font-size="15.0" fill="#888888" transform="matrix(1.00, 0.00, -0.00, -1.00, 118.3, 5.0)"> </text><text xml:space="preserve" font-family="Helvetica" font-size="15.0" fill="#888888" transform="matrix(1.00, 0.00, -0.00, -1.00, 122.4, 5.0)">P</text><text xml:space="preserve" font-family="Helvetica" font-size="15.0" fill="#888888" transform="matrix(1.00, 0.00, -0.00, -1.00, 132.4, 5.0)">r</text><text xml:space="preserve" font-family="Helvetica" font-size="15.0" fill="#888888" transform="matrix(1.00, 0.00, -0.00, -1.00, 137.4, 5.0)">o</text><text xml:space="preserve" font-family="Helvetica" font-size="15.0" fill="#888888" transform="matrix(1.00, 0.00, -0.00, -1.00, 145.8, 5.0)">j</text><text xml:space="preserve" font-family="Helvetica" font-size="15.0" fill="#888888" transform="matrix(1.00, 0.00, -0.00, -1.00, 149.1, 5.0)">e</text><text xml:space="preserve" font-family="Helvetica" font-size="15.0" fill="#888888" transform="matrix(1.00, 0.00, -0.00, -1.00, 157.5, 5.0)">c</text><text xml:space="preserve" font-family="Helvetica" font-size="15.0" fill="#888888" transform="matrix(1.00, 0.00, -0.00, -1.00, 165.0, 5.0)">t</text><text xml:space="preserve" font-family="Helvetica" font-size="15.0" fill="#888888" transform="matrix(1.00, 0.00, -0.00, -1.00, 169.1, 5.0)"> </text><text xml:space="preserve" font-family="Helvetica" font-size="15.0" fill="#888888" transform="matrix(1.00, 0.00, -0.00, -1.00, 173.3, 5.0)">·</text><text xml:space="preserve" font-family="Helvetica" font-size="15.0" fill="#888888" transform="matrix(1.00, 0.00, -0.00, -1.00, 177.5, 5.0)"> </text><text xml:space="preserve" font-family="Helvetica" font-size="15.0" fill="#888888" transform="matrix(1.00, 0.00, -0.00, -1.00, 181.6, 5.0)">3</text><text xml:space="preserve" font-family="Helvetica" font-size="15.0" fill="#888888" transform="matrix(1.00, 0.00, -0.00, -1.00, 190.0, 5.0)">1</text><text xml:space="preserve" font-family="Helvetica" font-size="15.0" fill="#888888" transform="matrix(1.00, 0.00, -0.00, -1.00, 198.3, 5.0)"> </text><text xml:space="preserve" font-family="Helvetica" font-size="15.0" fill="#888888" transform="matrix(1.00, 0.00, -0.00, -1.00, 202.5, 5.0)">c</text><text xml:space="preserve" font-family="Helvetica" font-size="15.0" fill="#888888" transform="matrix(1.00, 0.00, -0.00, -1.00, 210.0, 5.0)">i</text><text xml:space="preserve" font-family="Helvetica" font-size="15.0" fill="#888888" transform="matrix(1.00, 0.00, -0.00, -1.00, 213.3, 5.0)">t</text><text xml:space="preserve" font-family="Helvetica" font-size="15.0" fill="#888888" transform="matrix(1.00, 0.00, -0.00, -1.00, 217.5, 5.0)">a</text><text xml:space="preserve" font-family="Helvetica" font-size="15.0" fill="#888888" transform="matrix(1.00, 0.00, -0.00, -1.00, 225.8, 5.0)">t</text><text xml:space="preserve" font-family="Helvetica" font-size="15.0" fill="#888888" transform="matrix(1.00, 0.00, -0.00, -1.00, 230.0, 5.0)">i</text><text xml:space="preserve" font-family="Helvetica" font-size="15.0" fill="#888888" transform="matrix(1.00, 0.00, -0.00, -1.00, 233.3, 5.0)">o</text><text xml:space="preserve" font-family="Helvetica" font-size="15.0" fill="#888888" transform="matrix(1.00, 0.00, -0.00, -1.00, 241.7, 5.0)">n</text><text xml:space="preserve" font-family="Helvetica" font-size="15.0" fill="#888888" transform="matrix(1.00, 0.00, -0.00, -1.00, 250.0, 5.0)">s</text><text xml:space="preserve" font-family="Helvetica" font-size="15.0" fill="#888888" transform="matrix(1.00, 0.00, -0.00, -1.00, 257.5, 5.0)"> </text><text xml:space="preserve" font-family="Helvetica" font-size="15.0" fill="#888888" transform="matrix(1.00, 0.00, -0.00, -1.00, 261.7, 5.0)">·</text><text xml:space="preserve" font-family="Helvetica" font-size="15.0" fill="#888888" transform="matrix(1.00, 0.00, -0.00, -1.00, 265.8, 5.0)"> </text><text xml:space="preserve" font-family="Helvetica" font-size="15.0" fill="#888888" transform="matrix(1.00, 0.00, -0.00, -1.00, 270.0, 5.0)">L</text><text xml:space="preserve" font-family="Helvetica" font-size="15.0" fill="#888888" transform="matrix(1.00, 0.00, -0.00, -1.00, 278.3, 5.0)">a</text><text xml:space="preserve" font-family="Helvetica" font-size="15.0" fill="#888888" transform="matrix(1.00, 0.00, -0.00, -1.00, 286.7, 5.0)">s</text><text xml:space="preserve" font-family="Helvetica" font-size="15.0" fill="#888888" transform="matrix(1.00, 0.00, -0.00, -1.00, 294.2, 5.0)">t</text><text xml:space="preserve" font-family="Helvetica" font-size="15.0" fill="#888888" transform="matrix(1.00, 0.00, -0.00, -1.00, 298.4, 5.0)"> </text><text xml:space="preserve" font-family="Helvetica" font-size="15.0" fill="#888888" transform="matrix(1.00, 0.00, -0.00, -1.00, 302.5, 5.0)">u</text><text xml:space="preserve" font-family="Helvetica" font-size="15.0" fill="#888888" transform="matrix(1.00, 0.00, -0.00, -1.00, 310.9, 5.0)">p</text><text xml:space="preserve" font-family="Helvetica" font-size="15.0" fill="#888888" transform="matrix(1.00, 0.00, -0.00, -1.00, 319.2, 5.0)">d</text><text xml:space="preserve" font-family="Helvetica" font-size="15.0" fill="#888888" transform="matrix(1.00, 0.00, -0.00, -1.00, 327.6, 5.0)">a</text><text xml:space="preserve" font-family="Helvetica" font-size="15.0" fill="#888888" transform="matrix(1.00, 0.00, -0.00, -1.00, 335.9, 5.0)">t</text><text xml:space="preserve" font-family="Helvetica" font-size="15.0" fill="#888888" transform="matrix(1.00, 0.00, -0.00, -1.00, 340.1, 5.0)">e</text><text xml:space="preserve" font-family="Helvetica" font-size="15.0" fill="#888888" transform="matrix(1.00, 0.00, -0.00, -1.00, 348.4, 5.0)">d</text><text xml:space="preserve" font-family="Helvetica" font-size="15.0" fill="#888888" transform="matrix(1.00, 0.00, -0.00, -1.00, 356.8, 5.0)"> </text><text xml:space="preserve" font-family="Helvetica" font-size="15.0" fill="#888888" transform="matrix(1.00, 0.00, -0.00, -1.00, 360.9, 5.0)">3</text><text xml:space="preserve" font-family="Helvetica" font-size="15.0" fill="#888888" transform="matrix(1.00, 0.00, -0.00, -1.00, 369.3, 5.0)">1</text><text xml:space="preserve" font-family="Helvetica" font-size="15.0" fill="#888888" transform="matrix(1.00, 0.00, -0.00, -1.00, 377.6, 5.0)"> </text><text xml:space="preserve" font-family="Helvetica" font-size="15.0" fill="#888888" transform="matrix(1.00, 0.00, -0.00, -1.00, 381.8, 5.0)">O</text><text xml:space="preserve" font-family="Helvetica" font-size="15.0" fill="#888888" transform="matrix(1.00, 0.00, -0.00, -1.00, 393.4, 5.0)">c</text><text xml:space="preserve" font-family="Helvetica" font-size="15.0" fill="#888888" transform="matrix(1.00, 0.00, -0.00, -1.00, 400.9, 5.0)">t</text><text xml:space="preserve" font-family="Helvetica" font-size="15.0" fill="#888888" transform="matrix(1.00, 0.00, -0.00, -1.00, 405.1, 5.0)"> </text><text xml:space="preserve" font-family="Helvetica" font-size="15.0" fill="#888888" transform="matrix(1.00, 0.00, -0.00, -1.00, 409.3, 5.0)">2</text><text xml:space="preserve" font-family="Helvetica" font-size="15.0" fill="#888888" transform="matrix(1.00, 0.00, -0.00, -1.00, 417.6, 5.0)">0</text><text xml:space="preserve" font-family="Helvetica" font-size="15.0" fill="#888888" transform="matrix(1.00, 0.00, -0.00, -1.00, 426.0, 5.0)">1</text><text xml:space="preserve" font-family="Helvetica" font-size="15.0" fill="#888888" transform="matrix(1.00, 0.00, -0.00, -1.00, 434.3, 5.0)">6</text></g></svg>