<?xml version="1.0" encoding="UTF-8" standalone="no"?><svg xmlns="http://www.w3.org/2000/svg" xmlns:xlink="http://www.w3.org/1999/xlink" clip-rule="evenodd" stroke-miterlimit="4.00" viewBox="0 0 248 26"><desc>SVG generated by Keynote</desc><defs></defs><g transform="matrix(1.00, 0.00, -0.00, -1.00, 0.0, 26.0)"><text xml:space="preserve" font-family="Helvetica-Bold" font-weight="bold" font-size="24.0" fill="#333333" transform="matrix(1.00, 0.00, -0.00, -1.00, 0.0, 7.0)">1</text><text xml:space="preserve" font-family="Helvetica-Bold" font-weight="bold" font-size="24.0" fill="#333333" transform="matrix(1.00, 0.00, -0.00, -1.00, 12.0, 7.0)">1</text><text xml:space="preserve" font-family="Helvetica-Bold" font-weight="bold" font-size="24.0" fill="#333333" transform="matrix(1.00, 0.00, -0.00, -1.00, 25.4, 7.0)"> </text><text xml:space="preserve" font-family="Helvetica-Bold" font-weight="bold" font-size="24.0" fill="#333333" transform="matrix(1.00, 0.00, -0.00, -1.00, 32.1, 7.0)">s</text><text xml:space="preserve" font-family="Helvetica-Bold" font-weight="bold" font-size="24.0" fill="#333333" transform="matrix(1.00, 0.00, -0.00, -1.00, 45.4, 7.0)">o</text><text xml:space="preserve" font-family="Helvetica-Bold" font-weight="bold" font-size="24.0" fill="#333333" transform="matrix(1.00, 0.00, -0.00, -1.00, 60.1, 7.0)">f</text><text xml:space="preserve" font-family="Helvetica-Bold" font-weight="bold" font-size="24.0" fill="#333333" transform="matrix(1.00, 0.00, -0.00, -1.00, 68.1, 7.0)">t</text><text xml:space="preserve" font-family="Helvetica-Bold" font-weight="bold" font-size="24.0" fill="#333333" transform="matrix(1.00, 0.00, -0.00, -1.00, 76.0, 7.0)">w</text><text xml:space="preserve" font-family="Helvetica-Bold" font-weight="bold" font-size="24.0" fill="#333333" transform="matrix(1.00, 0.00, -0.00, -1.00, 94.7, 7.0)">a</text><text xml:space="preserve" font-family="Helvetica-Bold" font-weight="bold" font-size="24.0" fill="#333333" transform="matrix(1.00, 0.00, -0.00, -1.00, 108.1, 7.0)">r</text><text xml:space="preserve" font-family="Helvetica-Bold" font-weight="bold" font-size="24.0" fill="#333333" transform="matrix(1.00, 0.00, -0.00, -1.00, 117.4, 7.0)">e</text><text xml:space="preserve" font-family="Helvetica-Bold" font-weight="bold" font-size="24.0" fill="#333333" transform="matrix(1.00, 0.00, -0.00, -1.00, 130.8, 7.0)"> </text><text xml:space="preserve" font-family="Helvetica-Bold" font-weight="bold" font-size="24.0" fill="#333333" transform="matrix(1.00, 0.00, -0.00, -1.00, 137.4, 7.0)">p</text><text xml:space="preserve" font-family="Helvetica-Bold" font-weight="bold" font-size="24.0" fill="#333333" transform="matrix(1.00, 0.00, -0.00, -1.00, 152.1, 7.0)">a</text><text xml:space="preserve" font-family="Helvetica-Bold" font-weight="bold" font-size="24.0" fill="#333333" transform="matrix(1.00, 0.00, -0.00, -1.00, 165.4, 7.0)">c</text><text xml:space="preserve" font-family="Helvetica-Bold" font-weight="bold" font-size="24.0" fill="#333333" transform="matrix(1.00, 0.00, -0.00, -1.00, 178.8, 7.0)">k</text><text xml:space="preserve" font-family="Helvetica-Bold" font-weight="bold" font-size="24.0" fill="#333333" transform="matrix(1.00, 0.00, -0.00, -1.00, 192.1, 7.0)">a</text><text xml:space="preserve" font-family="Helvetica-Bold" font-weight="bold" font-size="24.0" fill="#333333" transform="matrix(1.00, 0.00, -0.00, -1.00, 205.5, 7.0)">g</text><text xml:space="preserve" font-family="Helvetica-Bold" font-weight="bold" font-size="24.0" fill="#333333" transform="matrix(1.00, 0.00, -0.00, -1.00, 220.1, 7.0)">e</text><text xml:space="preserve" font-family="Helvetica-Bold" font-weight="bold" font-size="24.0" fill="#333333" transform="matrix(1.00, 0.00, -0.00, -1.00, 233.5, 7.0)">s</text></g></svg>