<?xml version="1.0" encoding="UTF-8" standalone="no"?><svg xmlns="http://www.w3.org/2000/svg" xmlns:xlink="http://www.w3.org/1999/xlink" clip-rule="evenodd" stroke-miterlimit="4.00" viewBox="0 0 436 20"><desc>SVG generated by Keynote</desc><defs></defs><g transform="matrix(1.00, 0.00, -0.00, -1.00, 0.0, 20.0)"><text xml:space="preserve" font-family="Helvetica-Bold" font-weight="bold" font-size="17.0" fill="#333333" transform="matrix(1.00, 0.00, -0.00, -1.00, 0.0, 5.0)">I</text><text xml:space="preserve" font-family="Helvetica-Bold" font-weight="bold" font-size="17.0" fill="#333333" transform="matrix(1.00, 0.00, -0.00, -1.00, 4.7, 5.0)">d</text><text xml:space="preserve" font-family="Helvetica-Bold" font-weight="bold" font-size="17.0" fill="#333333" transform="matrix(1.00, 0.00, -0.00, -1.00, 15.1, 5.0)">e</text><text xml:space="preserve" font-family="Helvetica-Bold" font-weight="bold" font-size="17.0" fill="#333333" transform="matrix(1.00, 0.00, -0.00, -1.00, 24.6, 5.0)">a</text><text xml:space="preserve" font-family="Helvetica-Bold" font-weight="bold" font-size="17.0" fill="#333333" transform="matrix(1.00, 0.00, -0.00, -1.00, 34.0, 5.0)">l</text><text xml:space="preserve" font-family="Helvetica-Bold" font-weight="bold" font-size="17.0" fill="#333333" transform="matrix(1.00, 0.00, -0.00, -1.00, 38.7, 5.0)"> </text><text xml:space="preserve" font-family="Helvetica-Bold" font-weight="bold" font-size="17.0" fill="#333333" transform="matrix(1.00, 0.00, -0.00, -1.00, 43.5, 5.0)">f</text><text xml:space="preserve" font-family="Helvetica-Bold" font-weight="bold" font-size="17.0" fill="#333333" transform="matrix(1.00, 0.00, -0.00, -1.00, 49.1, 5.0)">o</text><text xml:space="preserve" font-family="Helvetica-Bold" font-weight="bold" font-size="17.0" fill="#333333" transform="matrix(1.00, 0.00, -0.00, -1.00, 59.5, 5.0)">r</text><text xml:space="preserve" font-family="Helvetica-Bold" font-weight="bold" font-size="17.0" fill="#333333" transform="matrix(1.00, 0.00, -0.00, -1.00, 66.1, 5.0)">…</text><text xml:space="preserve" font-family="Helvetica-Bold" font-weight="bold" font-size="17.0" fill="#333333" transform="matrix(1.00, 0.00, -0.00, -1.00, 83.1, 5.0)"> </text><text xml:space="preserve" font-family="Helvetica-Bold" font-weight="bold" font-size="17.0" fill="#333333" transform="matrix(1.00, 0.00, -0.00, -1.00, 87.8, 5.0)">c</text><text xml:space="preserve" font-family="Helvetica-Bold" font-weight="bold" font-size="17.0" fill="#333333" transform="matrix(1.00, 0.00, -0.00, -1.00, 97.3, 5.0)">l</text><text xml:space="preserve" font-family="Helvetica-Bold" font-weight="bold" font-size="17.0" fill="#333333" transform="matrix(1.00, 0.00, -0.00, -1.00, 102.0, 5.0)">u</text><text xml:space="preserve" font-family="Helvetica-Bold" font-weight="bold" font-size="17.0" fill="#333333" transform="matrix(1.00, 0.00, -0.00, -1.00, 112.4, 5.0)">s</text><text xml:space="preserve" font-family="Helvetica-Bold" font-weight="bold" font-size="17.0" fill="#333333" transform="matrix(1.00, 0.00, -0.00, -1.00, 121.9, 5.0)">t</text><text xml:space="preserve" font-family="Helvetica-Bold" font-weight="bold" font-size="17.0" fill="#333333" transform="matrix(1.00, 0.00, -0.00, -1.00, 127.5, 5.0)">e</text><text xml:space="preserve" font-family="Helvetica-Bold" font-weight="bold" font-size="17.0" fill="#333333" transform="matrix(1.00, 0.00, -0.00, -1.00, 137.0, 5.0)">r</text><text xml:space="preserve" font-family="Helvetica-Bold" font-weight="bold" font-size="17.0" fill="#333333" transform="matrix(1.00, 0.00, -0.00, -1.00, 143.6, 5.0)">i</text><text xml:space="preserve" font-family="Helvetica-Bold" font-weight="bold" font-size="17.0" fill="#333333" transform="matrix(1.00, 0.00, -0.00, -1.00, 148.3, 5.0)">n</text><text xml:space="preserve" font-family="Helvetica-Bold" font-weight="bold" font-size="17.0" fill="#333333" transform="matrix(1.00, 0.00, -0.00, -1.00, 158.7, 5.0)">g</text><text xml:space="preserve" font-family="Helvetica-Bold" font-weight="bold" font-size="17.0" fill="#333333" transform="matrix(1.00, 0.00, -0.00, -1.00, 169.1, 5.0)">,</text><text xml:space="preserve" font-family="Helvetica-Bold" font-weight="bold" font-size="17.0" fill="#333333" transform="matrix(1.00, 0.00, -0.00, -1.00, 173.8, 5.0)"> </text><text xml:space="preserve" font-family="Helvetica-Bold" font-weight="bold" font-size="17.0" fill="#333333" transform="matrix(1.00, 0.00, -0.00, -1.00, 178.5, 5.0)">m</text><text xml:space="preserve" font-family="Helvetica-Bold" font-weight="bold" font-size="17.0" fill="#333333" transform="matrix(1.00, 0.00, -0.00, -1.00, 193.6, 5.0)">a</text><text xml:space="preserve" font-family="Helvetica-Bold" font-weight="bold" font-size="17.0" fill="#333333" transform="matrix(1.00, 0.00, -0.00, -1.00, 203.1, 5.0)">c</text><text xml:space="preserve" font-family="Helvetica-Bold" font-weight="bold" font-size="17.0" fill="#333333" transform="matrix(1.00, 0.00, -0.00, -1.00, 212.5, 5.0)">h</text><text xml:space="preserve" font-family="Helvetica-Bold" font-weight="bold" font-size="17.0" fill="#333333" transform="matrix(1.00, 0.00, -0.00, -1.00, 222.9, 5.0)">i</text><text xml:space="preserve" font-family="Helvetica-Bold" font-weight="bold" font-size="17.0" fill="#333333" transform="matrix(1.00, 0.00, -0.00, -1.00, 227.6, 5.0)">n</text><text xml:space="preserve" font-family="Helvetica-Bold" font-weight="bold" font-size="17.0" fill="#333333" transform="matrix(1.00, 0.00, -0.00, -1.00, 238.0, 5.0)">e</text><text xml:space="preserve" font-family="Helvetica-Bold" font-weight="bold" font-size="17.0" fill="#333333" transform="matrix(1.00, 0.00, -0.00, -1.00, 247.5, 5.0)"> </text><text xml:space="preserve" font-family="Helvetica-Bold" font-weight="bold" font-size="17.0" fill="#333333" transform="matrix(1.00, 0.00, -0.00, -1.00, 252.2, 5.0)">l</text><text xml:space="preserve" font-family="Helvetica-Bold" font-weight="bold" font-size="17.0" fill="#333333" transform="matrix(1.00, 0.00, -0.00, -1.00, 256.9, 5.0)">e</text><text xml:space="preserve" font-family="Helvetica-Bold" font-weight="bold" font-size="17.0" fill="#333333" transform="matrix(1.00, 0.00, -0.00, -1.00, 266.4, 5.0)">a</text><text xml:space="preserve" font-family="Helvetica-Bold" font-weight="bold" font-size="17.0" fill="#333333" transform="matrix(1.00, 0.00, -0.00, -1.00, 275.8, 5.0)">r</text><text xml:space="preserve" font-family="Helvetica-Bold" font-weight="bold" font-size="17.0" fill="#333333" transform="matrix(1.00, 0.00, -0.00, -1.00, 282.5, 5.0)">n</text><text xml:space="preserve" font-family="Helvetica-Bold" font-weight="bold" font-size="17.0" fill="#333333" transform="matrix(1.00, 0.00, -0.00, -1.00, 292.8, 5.0)">i</text><text xml:space="preserve" font-family="Helvetica-Bold" font-weight="bold" font-size="17.0" fill="#333333" transform="matrix(1.00, 0.00, -0.00, -1.00, 297.6, 5.0)">n</text><text xml:space="preserve" font-family="Helvetica-Bold" font-weight="bold" font-size="17.0" fill="#333333" transform="matrix(1.00, 0.00, -0.00, -1.00, 307.9, 5.0)">g</text><text xml:space="preserve" font-family="Helvetica-Bold" font-weight="bold" font-size="17.0" fill="#333333" transform="matrix(1.00, 0.00, -0.00, -1.00, 318.3, 5.0)">,</text><text xml:space="preserve" font-family="Helvetica-Bold" font-weight="bold" font-size="17.0" fill="#333333" transform="matrix(1.00, 0.00, -0.00, -1.00, 323.0, 5.0)"> </text><text xml:space="preserve" font-family="Helvetica-Bold" font-weight="bold" font-size="17.0" fill="#333333" transform="matrix(1.00, 0.00, -0.00, -1.00, 327.8, 5.0)">d</text><text xml:space="preserve" font-family="Helvetica-Bold" font-weight="bold" font-size="17.0" fill="#333333" transform="matrix(1.00, 0.00, -0.00, -1.00, 338.1, 5.0)">a</text><text xml:space="preserve" font-family="Helvetica-Bold" font-weight="bold" font-size="17.0" fill="#333333" transform="matrix(1.00, 0.00, -0.00, -1.00, 347.6, 5.0)">t</text><text xml:space="preserve" font-family="Helvetica-Bold" font-weight="bold" font-size="17.0" fill="#333333" transform="matrix(1.00, 0.00, -0.00, -1.00, 353.3, 5.0)">a</text><text xml:space="preserve" font-family="Helvetica-Bold" font-weight="bold" font-size="17.0" fill="#333333" transform="matrix(1.00, 0.00, -0.00, -1.00, 362.7, 5.0)"> </text><text xml:space="preserve" font-family="Helvetica-Bold" font-weight="bold" font-size="17.0" fill="#333333" transform="matrix(1.00, 0.00, -0.00, -1.00, 367.4, 5.0)">a</text><text xml:space="preserve" font-family="Helvetica-Bold" font-weight="bold" font-size="17.0" fill="#333333" transform="matrix(1.00, 0.00, -0.00, -1.00, 376.9, 5.0)">n</text><text xml:space="preserve" font-family="Helvetica-Bold" font-weight="bold" font-size="17.0" fill="#333333" transform="matrix(1.00, 0.00, -0.00, -1.00, 387.3, 5.0)">a</text><text xml:space="preserve" font-family="Helvetica-Bold" font-weight="bold" font-size="17.0" fill="#333333" transform="matrix(1.00, 0.00, -0.00, -1.00, 396.7, 5.0)">l</text><text xml:space="preserve" font-family="Helvetica-Bold" font-weight="bold" font-size="17.0" fill="#333333" transform="matrix(1.00, 0.00, -0.00, -1.00, 401.5, 5.0)">y</text><text xml:space="preserve" font-family="Helvetica-Bold" font-weight="bold" font-size="17.0" fill="#333333" transform="matrix(1.00, 0.00, -0.00, -1.00, 410.9, 5.0)">s</text><text xml:space="preserve" font-family="Helvetica-Bold" font-weight="bold" font-size="17.0" fill="#333333" transform="matrix(1.00, 0.00, -0.00, -1.00, 420.4, 5.0)">i</text><text xml:space="preserve" font-family="Helvetica-Bold" font-weight="bold" font-size="17.0" fill="#333333" transform="matrix(1.00, 0.00, -0.00, -1.00, 425.1, 5.0)">s</text></g></svg>