<?xml version="1.0" encoding="UTF-8" standalone="no"?><svg xmlns="http://www.w3.org/2000/svg" xmlns:xlink="http://www.w3.org/1999/xlink" clip-rule="evenodd" stroke-miterlimit="4.00" viewBox="0 0 113 22"><desc>SVG generated by Keynote</desc><defs></defs><g transform="matrix(1.00, 0.00, -0.00, -1.00, 0.0, 22.0)"><text xml:space="preserve" font-family="Helvetica" font-size="20.0" fill="#333333" transform="matrix(1.00, 0.00, -0.00, -1.00, 1.0, 6.0)">U</text><text xml:space="preserve" font-family="Helvetica" font-size="20.0" fill="#333333" transform="matrix(1.00, 0.00, -0.00, -1.00, 15.4, 6.0)">s</text><text xml:space="preserve" font-family="Helvetica" font-size="20.0" fill="#333333" transform="matrix(1.00, 0.00, -0.00, -1.00, 25.4, 6.0)">i</text><text xml:space="preserve" font-family="Helvetica" font-size="20.0" fill="#333333" transform="matrix(1.00, 0.00, -0.00, -1.00, 29.9, 6.0)">n</text><text xml:space="preserve" font-family="Helvetica" font-size="20.0" fill="#333333" transform="matrix(1.00, 0.00, -0.00, -1.00, 41.0, 6.0)">g</text><text xml:space="preserve" font-family="Helvetica" font-size="20.0" fill="#333333" transform="matrix(1.00, 0.00, -0.00, -1.00, 52.1, 6.0)"> </text><text xml:space="preserve" font-family="Helvetica" font-size="20.0" fill="#333333" transform="matrix(1.00, 0.00, -0.00, -1.00, 57.7, 6.0)">c</text><text xml:space="preserve" font-family="Helvetica" font-size="20.0" fill="#333333" transform="matrix(1.00, 0.00, -0.00, -1.00, 67.7, 6.0)">o</text><text xml:space="preserve" font-family="Helvetica" font-size="20.0" fill="#333333" transform="matrix(1.00, 0.00, -0.00, -1.00, 78.8, 6.0)">n</text><text xml:space="preserve" font-family="Helvetica" font-size="20.0" fill="#333333" transform="matrix(1.00, 0.00, -0.00, -1.00, 90.0, 6.0)">d</text><text xml:space="preserve" font-family="Helvetica" font-size="20.0" fill="#333333" transform="matrix(1.00, 0.00, -0.00, -1.00, 101.1, 6.0)">a</text></g></svg>