<?xml version="1.0" encoding="UTF-8" standalone="no"?><svg xmlns="http://www.w3.org/2000/svg" xmlns:xlink="http://www.w3.org/1999/xlink" clip-rule="evenodd" stroke-miterlimit="4.00" viewBox="0 0 473 176"><desc>SVG generated by Keynote</desc><defs></defs><g transform="matrix(1.00, 0.00, -0.00, -1.00, 0.0, 176.0)"><g><clipPath id="clip-349"><path d="M 0.8 0.6 L 469.0 0.6 L 469.0 175.2 L 0.8 175.2 Z M 0.8 0.6 "></path></clipPath><g clip-path="url(#clip-349)"><path d="M 41.7 173.7 L 428.2 173.7 C 439.5 173.7 445.2 173.7 451.3 171.8 C 457.9 169.3 463.2 164.1 465.6 157.4 C 467.5 151.4 467.5 145.6 467.5 134.2 L 467.5 41.4 C 467.5 30.2 467.5 24.4 465.6 18.4 C 463.2 11.7 457.9 6.4 451.3 4.0 C 445.2 2.1 439.5 2.1 428.0 2.1 L 41.7 2.1 C 30.4 2.1 24.7 2.1 18.6 4.0 C 11.9 6.4 6.7 11.7 4.3 18.4 C 2.3 24.4 2.3 30.2 2.3 41.6 L 2.3 134.3 C 2.3 145.6 2.3 151.4 4.3 157.4 C 6.7 164.1 11.9 169.3 18.6 171.8 C 24.7 173.7 30.4 173.7 41.9 173.7 Z M 41.7 173.7 " fill="#FEFFFF"></path><path d="M 39.3 0.0 L 425.8 0.0 C 437.1 0.0 442.9 0.0 448.9 1.9 C 455.6 4.4 460.8 9.6 463.3 16.3 C 465.2 22.3 465.2 28.1 465.2 39.5 L 465.2 132.3 C 465.2 143.5 465.2 149.3 463.3 155.3 C 460.8 162.0 455.6 167.2 448.9 169.7 C 442.9 171.6 437.1 171.6 425.7 171.6 L 39.3 171.6 C 28.1 171.6 22.3 171.6 16.3 169.7 C 9.6 167.2 4.4 162.0 1.9 155.3 C 0.0 149.3 0.0 143.5 0.0 132.1 L 0.0 39.3 C 0.0 28.1 0.0 22.3 1.9 16.3 C 4.4 9.6 9.6 4.4 16.3 1.9 C 22.3 0.0 28.1 0.0 39.5 0.0 Z M 39.3 0.0 " fill="none" stroke="#ED661B" stroke-width="1.10" transform="matrix(1.00, 0.00, 0.00, -1.00, 2.3, 173.7)"></path></g></g><g><clipPath id="clip-350"><path d="M 16.0 74.1 L 453.8 74.1 L 453.8 131.6 L 16.0 131.6 Z M 16.0 74.1 "></path></clipPath><g clip-path="url(#clip-350)"><path d="M 40.0 130.6 L 429.9 130.6 C 436.5 130.6 439.8 130.6 443.4 129.5 C 447.2 128.1 450.3 125.0 451.7 121.2 C 452.8 117.6 452.8 114.3 452.8 107.6 L 452.8 98.0 C 452.8 91.5 452.8 88.1 451.7 84.6 C 450.3 80.7 447.2 77.6 443.4 76.2 C 439.8 75.1 436.5 75.1 429.8 75.1 L 40.0 75.1 C 33.4 75.1 30.0 75.1 26.5 76.2 C 22.6 77.6 19.6 80.7 18.1 84.6 C 17.0 88.1 17.0 91.5 17.0 98.1 L 17.0 107.7 C 17.0 114.3 17.0 117.6 18.1 121.2 C 19.6 125.0 22.6 128.1 26.5 129.5 C 30.0 130.6 33.4 130.6 40.1 130.6 Z M 40.0 130.6 " fill="#52575F"></path></g></g><g><clipPath id="clip-351"><path d="M 14.0 75.1 L 455.9 75.1 L 455.9 130.6 L 14.0 130.6 Z M 14.0 75.1 "></path></clipPath><g clip-path="url(#clip-351)"><text xml:space="preserve" font-family="PTMono-Bold" font-weight="bold" font-size="22.0" fill="#FEFFFE" transform="matrix(1.00, 0.00, -0.00, -1.00, 20.0, 96.0)"> </text><text xml:space="preserve" font-family="PTMono-Bold" font-weight="bold" font-size="22.0" fill="#00F900" transform="matrix(1.00, 0.00, -0.00, -1.00, 33.2, 96.0)">$</text><text xml:space="preserve" font-family="PTMono-Bold" font-weight="bold" font-size="22.0" fill="#00F900" transform="matrix(1.00, 0.00, -0.00, -1.00, 46.4, 96.0)"> </text><text xml:space="preserve" font-family="PTMono-Bold" font-weight="bold" font-size="22.0" fill="#51A7F9" transform="matrix(1.00, 0.00, -0.00, -1.00, 59.6, 96.0)">p</text><text xml:space="preserve" font-family="PTMono-Bold" font-weight="bold" font-size="22.0" fill="#51A7F9" transform="matrix(1.00, 0.00, -0.00, -1.00, 72.8, 96.0)">i</text><text xml:space="preserve" font-family="PTMono-Bold" font-weight="bold" font-size="22.0" fill="#51A7F9" transform="matrix(1.00, 0.00, -0.00, -1.00, 86.0, 96.0)">p</text><text xml:space="preserve" font-family="PTMono-Bold" font-weight="bold" font-size="22.0" fill="#51A7F9" transform="matrix(1.00, 0.00, -0.00, -1.00, 99.2, 96.0)"> </text><text xml:space="preserve" font-family="PTMono-Bold" font-weight="bold" font-size="22.0" fill="#51A7F9" transform="matrix(1.00, 0.00, -0.00, -1.00, 112.4, 96.0)">i</text><text xml:space="preserve" font-family="PTMono-Bold" font-weight="bold" font-size="22.0" fill="#51A7F9" transform="matrix(1.00, 0.00, -0.00, -1.00, 125.6, 96.0)">n</text><text xml:space="preserve" font-family="PTMono-Bold" font-weight="bold" font-size="22.0" fill="#51A7F9" transform="matrix(1.00, 0.00, -0.00, -1.00, 138.8, 96.0)">s</text><text xml:space="preserve" font-family="PTMono-Bold" font-weight="bold" font-size="22.0" fill="#51A7F9" transform="matrix(1.00, 0.00, -0.00, -1.00, 152.0, 96.0)">t</text><text xml:space="preserve" font-family="PTMono-Bold" font-weight="bold" font-size="22.0" fill="#51A7F9" transform="matrix(1.00, 0.00, -0.00, -1.00, 165.2, 96.0)">a</text><text xml:space="preserve" font-family="PTMono-Bold" font-weight="bold" font-size="22.0" fill="#51A7F9" transform="matrix(1.00, 0.00, -0.00, -1.00, 178.4, 96.0)">l</text><text xml:space="preserve" font-family="PTMono-Bold" font-weight="bold" font-size="22.0" fill="#51A7F9" transform="matrix(1.00, 0.00, -0.00, -1.00, 191.6, 96.0)">l</text><text xml:space="preserve" font-family="PTMono-Bold" font-weight="bold" font-size="22.0" fill="#51A7F9" transform="matrix(1.00, 0.00, -0.00, -1.00, 204.8, 96.0)"> </text><text xml:space="preserve" font-family="PTMono-Bold" font-weight="bold" font-size="22.0" fill="#51A7F9" transform="matrix(1.00, 0.00, -0.00, -1.00, 218.0, 96.0)">-</text><text xml:space="preserve" font-family="PTMono-Bold" font-weight="bold" font-size="22.0" fill="#51A7F9" transform="matrix(1.00, 0.00, -0.00, -1.00, 231.2, 96.0)">U</text><text xml:space="preserve" font-family="PTMono-Bold" font-weight="bold" font-size="22.0" fill="#51A7F9" transform="matrix(1.00, 0.00, -0.00, -1.00, 244.4, 96.0)"> </text><text xml:space="preserve" font-family="PTMono-Bold" font-weight="bold" font-size="22.0" fill="#51A7F9" transform="matrix(1.00, 0.00, -0.00, -1.00, 257.6, 96.0)">s</text><text xml:space="preserve" font-family="PTMono-Bold" font-weight="bold" font-size="22.0" fill="#51A7F9" transform="matrix(1.00, 0.00, -0.00, -1.00, 270.8, 96.0)">c</text><text xml:space="preserve" font-family="PTMono-Bold" font-weight="bold" font-size="22.0" fill="#51A7F9" transform="matrix(1.00, 0.00, -0.00, -1.00, 284.0, 96.0)">i</text><text xml:space="preserve" font-family="PTMono-Bold" font-weight="bold" font-size="22.0" fill="#51A7F9" transform="matrix(1.00, 0.00, -0.00, -1.00, 297.2, 96.0)">k</text><text xml:space="preserve" font-family="PTMono-Bold" font-weight="bold" font-size="22.0" fill="#51A7F9" transform="matrix(1.00, 0.00, -0.00, -1.00, 310.4, 96.0)">i</text><text xml:space="preserve" font-family="PTMono-Bold" font-weight="bold" font-size="22.0" fill="#51A7F9" transform="matrix(1.00, 0.00, -0.00, -1.00, 323.6, 96.0)">t</text><text xml:space="preserve" font-family="PTMono-Bold" font-weight="bold" font-size="22.0" fill="#51A7F9" transform="matrix(1.00, 0.00, -0.00, -1.00, 336.8, 96.0)">-</text><text xml:space="preserve" font-family="PTMono-Bold" font-weight="bold" font-size="22.0" fill="#51A7F9" transform="matrix(1.00, 0.00, -0.00, -1.00, 350.0, 96.0)">l</text><text xml:space="preserve" font-family="PTMono-Bold" font-weight="bold" font-size="22.0" fill="#51A7F9" transform="matrix(1.00, 0.00, -0.00, -1.00, 363.2, 96.0)">e</text><text xml:space="preserve" font-family="PTMono-Bold" font-weight="bold" font-size="22.0" fill="#51A7F9" transform="matrix(1.00, 0.00, -0.00, -1.00, 376.4, 96.0)">a</text><text xml:space="preserve" font-family="PTMono-Bold" font-weight="bold" font-size="22.0" fill="#51A7F9" transform="matrix(1.00, 0.00, -0.00, -1.00, 389.6, 96.0)">r</text><text xml:space="preserve" font-family="PTMono-Bold" font-weight="bold" font-size="22.0" fill="#51A7F9" transform="matrix(1.00, 0.00, -0.00, -1.00, 402.8, 96.0)">n</text></g></g><g><clipPath id="clip-352"><path d="M 19.0 133.2 L 473.9 133.2 L 473.9 167.2 L 19.0 167.2 Z M 19.0 133.2 "></path></clipPath><g clip-path="url(#clip-352)"><text xml:space="preserve" font-family="Helvetica-Bold" font-weight="bold" font-size="20.0" fill="#333333" transform="matrix(1.00, 0.00, -0.00, -1.00, 24.0, 143.0)">Q</text><text xml:space="preserve" font-family="Helvetica-Bold" font-weight="bold" font-size="20.0" fill="#333333" transform="matrix(1.00, 0.00, -0.00, -1.00, 39.6, 143.0)">u</text><text xml:space="preserve" font-family="Helvetica-Bold" font-weight="bold" font-size="20.0" fill="#333333" transform="matrix(1.00, 0.00, -0.00, -1.00, 51.8, 143.0)">i</text><text xml:space="preserve" font-family="Helvetica-Bold" font-weight="bold" font-size="20.0" fill="#333333" transform="matrix(1.00, 0.00, -0.00, -1.00, 57.3, 143.0)">c</text><text xml:space="preserve" font-family="Helvetica-Bold" font-weight="bold" font-size="20.0" fill="#333333" transform="matrix(1.00, 0.00, -0.00, -1.00, 68.4, 143.0)">k</text><text xml:space="preserve" font-family="Helvetica-Bold" font-weight="bold" font-size="20.0" fill="#333333" transform="matrix(1.00, 0.00, -0.00, -1.00, 79.6, 143.0)">s</text><text xml:space="preserve" font-family="Helvetica-Bold" font-weight="bold" font-size="20.0" fill="#333333" transform="matrix(1.00, 0.00, -0.00, -1.00, 90.7, 143.0)">t</text><text xml:space="preserve" font-family="Helvetica-Bold" font-weight="bold" font-size="20.0" fill="#333333" transform="matrix(1.00, 0.00, -0.00, -1.00, 97.4, 143.0)">a</text><text xml:space="preserve" font-family="Helvetica-Bold" font-weight="bold" font-size="20.0" fill="#333333" transform="matrix(1.00, 0.00, -0.00, -1.00, 108.5, 143.0)">r</text><text xml:space="preserve" font-family="Helvetica-Bold" font-weight="bold" font-size="20.0" fill="#333333" transform="matrix(1.00, 0.00, -0.00, -1.00, 116.3, 143.0)">t</text><text xml:space="preserve" font-family="Helvetica-Bold" font-weight="bold" font-size="20.0" fill="#333333" transform="matrix(1.00, 0.00, -0.00, -1.00, 122.9, 143.0)"> </text><text xml:space="preserve" font-family="Helvetica-Bold" font-weight="bold" font-size="20.0" fill="#333333" transform="matrix(1.00, 0.00, -0.00, -1.00, 128.5, 143.0)">g</text><text xml:space="preserve" font-family="Helvetica-Bold" font-weight="bold" font-size="20.0" fill="#333333" transform="matrix(1.00, 0.00, -0.00, -1.00, 140.7, 143.0)">u</text><text xml:space="preserve" font-family="Helvetica-Bold" font-weight="bold" font-size="20.0" fill="#333333" transform="matrix(1.00, 0.00, -0.00, -1.00, 152.9, 143.0)">i</text><text xml:space="preserve" font-family="Helvetica-Bold" font-weight="bold" font-size="20.0" fill="#333333" transform="matrix(1.00, 0.00, -0.00, -1.00, 158.5, 143.0)">d</text><text xml:space="preserve" font-family="Helvetica-Bold" font-weight="bold" font-size="20.0" fill="#333333" transform="matrix(1.00, 0.00, -0.00, -1.00, 170.7, 143.0)">e</text></g></g></g></svg>