<?xml version="1.0" encoding="UTF-8" standalone="no"?><svg xmlns="http://www.w3.org/2000/svg" xmlns:xlink="http://www.w3.org/1999/xlink" clip-rule="evenodd" stroke-miterlimit="4.00" viewBox="0 0 585 44"><desc>SVG generated by Keynote</desc><defs></defs><g transform="matrix(1.00, 0.00, -0.00, -1.00, 0.0, 44.0)"><text xml:space="preserve" font-family="Helvetica-Light" font-size="48.0" fill="#FEFFFF" transform="matrix(1.00, 0.00, -0.00, -1.00, -2.0, 7.0)">D</text><text xml:space="preserve" font-family="Helvetica-Light" font-size="48.0" fill="#FEFFFF" transform="matrix(1.00, 0.00, -0.00, -1.00, 32.7, 7.0)">O</text><text xml:space="preserve" font-family="Helvetica-Light" font-size="48.0" fill="#FEFFFF" transform="matrix(1.00, 0.00, -0.00, -1.00, 70.0, 7.0)">W</text><text xml:space="preserve" font-family="Helvetica-Light" font-size="48.0" fill="#FEFFFF" transform="matrix(1.00, 0.00, -0.00, -1.00, 112.7, 7.0)">N</text><text xml:space="preserve" font-family="Helvetica-Light" font-size="48.0" fill="#FEFFFF" transform="matrix(1.00, 0.00, -0.00, -1.00, 147.3, 7.0)">L</text><text xml:space="preserve" font-family="Helvetica-Light" font-size="48.0" fill="#FEFFFF" transform="matrix(1.00, 0.00, -0.00, -1.00, 174.0, 7.0)">O</text><text xml:space="preserve" font-family="Helvetica-Light" font-size="48.0" fill="#FEFFFF" transform="matrix(1.00, 0.00, -0.00, -1.00, 211.4, 7.0)">A</text><text xml:space="preserve" font-family="Helvetica-Light" font-size="48.0" fill="#FEFFFF" transform="matrix(1.00, 0.00, -0.00, -1.00, 243.4, 7.0)">D</text><text xml:space="preserve" font-family="Helvetica-Light" font-size="48.0" fill="#FEFFFF" transform="matrix(1.00, 0.00, -0.00, -1.00, 278.0, 7.0)">/</text><text xml:space="preserve" font-family="Helvetica-Light" font-size="48.0" fill="#FEFFFF" transform="matrix(1.00, 0.00, -0.00, -1.00, 291.4, 7.0)">H</text><text xml:space="preserve" font-family="Helvetica-Light" font-size="48.0" fill="#FEFFFF" transform="matrix(1.00, 0.00, -0.00, -1.00, 326.0, 7.0)">A</text><text xml:space="preserve" font-family="Helvetica-Light" font-size="48.0" fill="#FEFFFF" transform="matrix(1.00, 0.00, -0.00, -1.00, 358.0, 7.0)">P</text><text xml:space="preserve" font-family="Helvetica-Light" font-size="48.0" fill="#FEFFFF" transform="matrix(1.00, 0.00, -0.00, -1.00, 387.4, 7.0)">P</text><text xml:space="preserve" font-family="Helvetica-Light" font-size="48.0" fill="#FEFFFF" transform="matrix(1.00, 0.00, -0.00, -1.00, 416.7, 7.0)">Y</text><text xml:space="preserve" font-family="Helvetica-Light" font-size="48.0" fill="#FEFFFF" transform="matrix(1.00, 0.00, -0.00, -1.00, 446.0, 7.0)"> </text><text xml:space="preserve" font-family="Helvetica-Light" font-size="48.0" fill="#FEFFFF" transform="matrix(1.00, 0.00, -0.00, -1.00, 459.4, 7.0)">P</text><text xml:space="preserve" font-family="Helvetica-Light" font-size="48.0" fill="#FEFFFF" transform="matrix(1.00, 0.00, -0.00, -1.00, 485.2, 7.0)">A</text><text xml:space="preserve" font-family="Helvetica-Light" font-size="48.0" fill="#FEFFFF" transform="matrix(1.00, 0.00, -0.00, -1.00, 517.2, 7.0)">G</text><text xml:space="preserve" font-family="Helvetica-Light" font-size="48.0" fill="#FEFFFF" transform="matrix(1.00, 0.00, -0.00, -1.00, 554.5, 7.0)">E</text></g></svg>