<?xml version="1.0" encoding="UTF-8" standalone="no"?><svg xmlns="http://www.w3.org/2000/svg" xmlns:xlink="http://www.w3.org/1999/xlink" clip-rule="evenodd" stroke-miterlimit="4.00" viewBox="0 0 442 20"><desc>SVG generated by Keynote</desc><defs></defs><g transform="matrix(1.00, 0.00, -0.00, -1.00, 0.0, 20.0)"><text xml:space="preserve" font-family="Helvetica" font-size="17.0" fill="#333333" transform="matrix(1.00, 0.00, -0.00, -1.00, 1.0, 5.0)">t</text><text xml:space="preserve" font-family="Helvetica" font-size="17.0" fill="#333333" transform="matrix(1.00, 0.00, -0.00, -1.00, 5.7, 5.0)">h</text><text xml:space="preserve" font-family="Helvetica" font-size="17.0" fill="#333333" transform="matrix(1.00, 0.00, -0.00, -1.00, 15.2, 5.0)">e</text><text xml:space="preserve" font-family="Helvetica" font-size="17.0" fill="#333333" transform="matrix(1.00, 0.00, -0.00, -1.00, 24.6, 5.0)"> </text><text xml:space="preserve" font-family="Helvetica" font-size="17.0" fill="#333333" transform="matrix(1.00, 0.00, -0.00, -1.00, 29.4, 5.0)">v</text><text xml:space="preserve" font-family="Helvetica" font-size="17.0" fill="#333333" transform="matrix(1.00, 0.00, -0.00, -1.00, 37.9, 5.0)">o</text><text xml:space="preserve" font-family="Helvetica" font-size="17.0" fill="#333333" transform="matrix(1.00, 0.00, -0.00, -1.00, 47.3, 5.0)">c</text><text xml:space="preserve" font-family="Helvetica" font-size="17.0" fill="#333333" transform="matrix(1.00, 0.00, -0.00, -1.00, 55.8, 5.0)">a</text><text xml:space="preserve" font-family="Helvetica" font-size="17.0" fill="#333333" transform="matrix(1.00, 0.00, -0.00, -1.00, 65.3, 5.0)">b</text><text xml:space="preserve" font-family="Helvetica" font-size="17.0" fill="#333333" transform="matrix(1.00, 0.00, -0.00, -1.00, 74.7, 5.0)">u</text><text xml:space="preserve" font-family="Helvetica" font-size="17.0" fill="#333333" transform="matrix(1.00, 0.00, -0.00, -1.00, 84.2, 5.0)">l</text><text xml:space="preserve" font-family="Helvetica" font-size="17.0" fill="#333333" transform="matrix(1.00, 0.00, -0.00, -1.00, 88.0, 5.0)">a</text><text xml:space="preserve" font-family="Helvetica" font-size="17.0" fill="#333333" transform="matrix(1.00, 0.00, -0.00, -1.00, 97.4, 5.0)">r</text><text xml:space="preserve" font-family="Helvetica" font-size="17.0" fill="#333333" transform="matrix(1.00, 0.00, -0.00, -1.00, 103.1, 5.0)">y</text><text xml:space="preserve" font-family="Helvetica" font-size="17.0" fill="#333333" transform="matrix(1.00, 0.00, -0.00, -1.00, 111.6, 5.0)"> </text><text xml:space="preserve" font-family="Helvetica" font-size="17.0" fill="#333333" transform="matrix(1.00, 0.00, -0.00, -1.00, 116.3, 5.0)">c</text><text xml:space="preserve" font-family="Helvetica" font-size="17.0" fill="#333333" transform="matrix(1.00, 0.00, -0.00, -1.00, 124.8, 5.0)">h</text><text xml:space="preserve" font-family="Helvetica" font-size="17.0" fill="#333333" transform="matrix(1.00, 0.00, -0.00, -1.00, 134.3, 5.0)">a</text><text xml:space="preserve" font-family="Helvetica" font-size="17.0" fill="#333333" transform="matrix(1.00, 0.00, -0.00, -1.00, 143.7, 5.0)">r</text><text xml:space="preserve" font-family="Helvetica" font-size="17.0" fill="#333333" transform="matrix(1.00, 0.00, -0.00, -1.00, 149.4, 5.0)">a</text><text xml:space="preserve" font-family="Helvetica" font-size="17.0" fill="#333333" transform="matrix(1.00, 0.00, -0.00, -1.00, 158.8, 5.0)">c</text><text xml:space="preserve" font-family="Helvetica" font-size="17.0" fill="#333333" transform="matrix(1.00, 0.00, -0.00, -1.00, 167.3, 5.0)">t</text><text xml:space="preserve" font-family="Helvetica" font-size="17.0" fill="#333333" transform="matrix(1.00, 0.00, -0.00, -1.00, 172.1, 5.0)">e</text><text xml:space="preserve" font-family="Helvetica" font-size="17.0" fill="#333333" transform="matrix(1.00, 0.00, -0.00, -1.00, 181.5, 5.0)">r</text><text xml:space="preserve" font-family="Helvetica" font-size="17.0" fill="#333333" transform="matrix(1.00, 0.00, -0.00, -1.00, 187.2, 5.0)">i</text><text xml:space="preserve" font-family="Helvetica" font-size="17.0" fill="#333333" transform="matrix(1.00, 0.00, -0.00, -1.00, 191.0, 5.0)">s</text><text xml:space="preserve" font-family="Helvetica" font-size="17.0" fill="#333333" transform="matrix(1.00, 0.00, -0.00, -1.00, 199.5, 5.0)">i</text><text xml:space="preserve" font-family="Helvetica" font-size="17.0" fill="#333333" transform="matrix(1.00, 0.00, -0.00, -1.00, 203.2, 5.0)">n</text><text xml:space="preserve" font-family="Helvetica" font-size="17.0" fill="#333333" transform="matrix(1.00, 0.00, -0.00, -1.00, 212.7, 5.0)">g</text><text xml:space="preserve" font-family="Helvetica" font-size="17.0" fill="#333333" transform="matrix(1.00, 0.00, -0.00, -1.00, 222.2, 5.0)"> </text><text xml:space="preserve" font-family="Helvetica" font-size="17.0" fill="#333333" transform="matrix(1.00, 0.00, -0.00, -1.00, 226.9, 5.0)">a</text><text xml:space="preserve" font-family="Helvetica" font-size="17.0" fill="#333333" transform="matrix(1.00, 0.00, -0.00, -1.00, 236.3, 5.0)"> </text><text xml:space="preserve" font-family="Helvetica" font-size="17.0" fill="#333333" transform="matrix(1.00, 0.00, -0.00, -1.00, 241.1, 5.0)">d</text><text xml:space="preserve" font-family="Helvetica" font-size="17.0" fill="#333333" transform="matrix(1.00, 0.00, -0.00, -1.00, 250.5, 5.0)">i</text><text xml:space="preserve" font-family="Helvetica" font-size="17.0" fill="#333333" transform="matrix(1.00, 0.00, -0.00, -1.00, 254.3, 5.0)">s</text><text xml:space="preserve" font-family="Helvetica" font-size="17.0" fill="#333333" transform="matrix(1.00, 0.00, -0.00, -1.00, 262.8, 5.0)">c</text><text xml:space="preserve" font-family="Helvetica" font-size="17.0" fill="#333333" transform="matrix(1.00, 0.00, -0.00, -1.00, 271.3, 5.0)">u</text><text xml:space="preserve" font-family="Helvetica" font-size="17.0" fill="#333333" transform="matrix(1.00, 0.00, -0.00, -1.00, 280.8, 5.0)">s</text><text xml:space="preserve" font-family="Helvetica" font-size="17.0" fill="#333333" transform="matrix(1.00, 0.00, -0.00, -1.00, 289.3, 5.0)">s</text><text xml:space="preserve" font-family="Helvetica" font-size="17.0" fill="#333333" transform="matrix(1.00, 0.00, -0.00, -1.00, 297.8, 5.0)">i</text><text xml:space="preserve" font-family="Helvetica" font-size="17.0" fill="#333333" transform="matrix(1.00, 0.00, -0.00, -1.00, 301.5, 5.0)">o</text><text xml:space="preserve" font-family="Helvetica" font-size="17.0" fill="#333333" transform="matrix(1.00, 0.00, -0.00, -1.00, 311.0, 5.0)">n</text><text xml:space="preserve" font-family="Helvetica" font-size="17.0" fill="#333333" transform="matrix(1.00, 0.00, -0.00, -1.00, 320.4, 5.0)">,</text><text xml:space="preserve" font-family="Helvetica" font-size="17.0" fill="#333333" transform="matrix(1.00, 0.00, -0.00, -1.00, 325.2, 5.0)"> </text><text xml:space="preserve" font-family="Helvetica" font-size="17.0" fill="#333333" transform="matrix(1.00, 0.00, -0.00, -1.00, 329.9, 5.0)">c</text><text xml:space="preserve" font-family="Helvetica" font-size="17.0" fill="#333333" transform="matrix(1.00, 0.00, -0.00, -1.00, 338.4, 5.0)">h</text><text xml:space="preserve" font-family="Helvetica" font-size="17.0" fill="#333333" transform="matrix(1.00, 0.00, -0.00, -1.00, 347.8, 5.0)">a</text><text xml:space="preserve" font-family="Helvetica" font-size="17.0" fill="#333333" transform="matrix(1.00, 0.00, -0.00, -1.00, 357.3, 5.0)">n</text><text xml:space="preserve" font-family="Helvetica" font-size="17.0" fill="#333333" transform="matrix(1.00, 0.00, -0.00, -1.00, 366.8, 5.0)">g</text><text xml:space="preserve" font-family="Helvetica" font-size="17.0" fill="#333333" transform="matrix(1.00, 0.00, -0.00, -1.00, 376.2, 5.0)">e</text><text xml:space="preserve" font-family="Helvetica" font-size="17.0" fill="#333333" transform="matrix(1.00, 0.00, -0.00, -1.00, 385.7, 5.0)">s</text><text xml:space="preserve" font-family="Helvetica" font-size="17.0" fill="#333333" transform="matrix(1.00, 0.00, -0.00, -1.00, 394.2, 5.0)"> </text><text xml:space="preserve" font-family="Helvetica" font-size="17.0" fill="#333333" transform="matrix(1.00, 0.00, -0.00, -1.00, 398.9, 5.0)">i</text><text xml:space="preserve" font-family="Helvetica" font-size="17.0" fill="#333333" transform="matrix(1.00, 0.00, -0.00, -1.00, 402.7, 5.0)">n</text><text xml:space="preserve" font-family="Helvetica" font-size="17.0" fill="#333333" transform="matrix(1.00, 0.00, -0.00, -1.00, 412.1, 5.0)"> </text><text xml:space="preserve" font-family="Helvetica" font-size="17.0" fill="#333333" transform="matrix(1.00, 0.00, -0.00, -1.00, 416.9, 5.0)">t</text><text xml:space="preserve" font-family="Helvetica" font-size="17.0" fill="#333333" transform="matrix(1.00, 0.00, -0.00, -1.00, 421.6, 5.0)">h</text><text xml:space="preserve" font-family="Helvetica" font-size="17.0" fill="#333333" transform="matrix(1.00, 0.00, -0.00, -1.00, 431.0, 5.0)">e</text></g></svg>