<?xml version="1.0" encoding="UTF-8" standalone="no"?><svg xmlns="http://www.w3.org/2000/svg" xmlns:xlink="http://www.w3.org/1999/xlink" clip-rule="evenodd" stroke-miterlimit="4.00" viewBox="0 0 175 24"><desc>SVG generated by Keynote</desc><defs></defs><g transform="matrix(1.00, 0.00, -0.00, -1.00, 0.0, 24.0)"><text xml:space="preserve" font-family="HelveticaNeue" font-size="28.0" fill="#E03344" transform="matrix(1.00, 0.00, -0.00, -1.00, 1.0, 2.0)">s</text><text xml:space="preserve" font-family="HelveticaNeue" font-size="28.0" fill="#E03344" transform="matrix(1.00, 0.00, -0.00, -1.00, 15.0, 2.0)">o</text><text xml:space="preserve" font-family="HelveticaNeue" font-size="28.0" fill="#E03344" transform="matrix(1.00, 0.00, -0.00, -1.00, 31.1, 2.0)">f</text><text xml:space="preserve" font-family="HelveticaNeue" font-size="28.0" fill="#E03344" transform="matrix(1.00, 0.00, -0.00, -1.00, 39.4, 2.0)">t</text><text xml:space="preserve" font-family="HelveticaNeue" font-size="28.0" fill="#E03344" transform="matrix(1.00, 0.00, -0.00, -1.00, 48.2, 2.0)">w</text><text xml:space="preserve" font-family="HelveticaNeue" font-size="28.0" fill="#E03344" transform="matrix(1.00, 0.00, -0.00, -1.00, 69.4, 2.0)">a</text><text xml:space="preserve" font-family="HelveticaNeue" font-size="28.0" fill="#E03344" transform="matrix(1.00, 0.00, -0.00, -1.00, 84.4, 2.0)">r</text><text xml:space="preserve" font-family="HelveticaNeue" font-size="28.0" fill="#E03344" transform="matrix(1.00, 0.00, -0.00, -1.00, 93.3, 2.0)">e</text><text xml:space="preserve" font-family="HelveticaNeue-Bold" font-weight="bold" font-size="28.0" fill="#E03344" transform="matrix(1.00, 0.00, -0.00, -1.00, 108.3, 2.0)">s</text><text xml:space="preserve" font-family="HelveticaNeue-Bold" font-weight="bold" font-size="28.0" fill="#E03344" transform="matrix(1.00, 0.00, -0.00, -1.00, 123.3, 2.0)">u</text><text xml:space="preserve" font-family="HelveticaNeue-Bold" font-weight="bold" font-size="28.0" fill="#E03344" transform="matrix(1.00, 0.00, -0.00, -1.00, 139.9, 2.0)">i</text><text xml:space="preserve" font-family="HelveticaNeue-Bold" font-weight="bold" font-size="28.0" fill="#E03344" transform="matrix(1.00, 0.00, -0.00, -1.00, 147.2, 2.0)">t</text><text xml:space="preserve" font-family="HelveticaNeue-Bold" font-weight="bold" font-size="28.0" fill="#E03344" transform="matrix(1.00, 0.00, -0.00, -1.00, 157.0, 2.0)">e</text></g></svg>