<?xml version="1.0" encoding="UTF-8" standalone="no"?><svg xmlns="http://www.w3.org/2000/svg" xmlns:xlink="http://www.w3.org/1999/xlink" clip-rule="evenodd" stroke-miterlimit="4.00" viewBox="0 0 266 78"><desc>SVG generated by Keynote</desc><defs></defs><g transform="matrix(1.00, 0.00, -0.00, -1.00, 0.0, 78.0)"><text xml:space="preserve" font-family="Helvetica" font-size="15.0" fill="#888888" transform="matrix(1.00, 0.00, -0.00, -1.00, 2.0, 65.0)">V</text><text xml:space="preserve" font-family="Helvetica" font-size="15.0" fill="#888888" transform="matrix(1.00, 0.00, -0.00, -1.00, 11.2, 65.0)">e</text><text xml:space="preserve" font-family="Helvetica" font-size="15.0" fill="#888888" transform="matrix(1.00, 0.00, -0.00, -1.00, 19.5, 65.0)">r</text><text xml:space="preserve" font-family="Helvetica" font-size="15.0" fill="#888888" transform="matrix(1.00, 0.00, -0.00, -1.00, 24.5, 65.0)">s</text><text xml:space="preserve" font-family="Helvetica" font-size="15.0" fill="#888888" transform="matrix(1.00, 0.00, -0.00, -1.00, 32.0, 65.0)">i</text><text xml:space="preserve" font-family="Helvetica" font-size="15.0" fill="#888888" transform="matrix(1.00, 0.00, -0.00, -1.00, 35.4, 65.0)">o</text><text xml:space="preserve" font-family="Helvetica" font-size="15.0" fill="#888888" transform="matrix(1.00, 0.00, -0.00, -1.00, 43.7, 65.0)">n</text><text xml:space="preserve" font-family="Helvetica" font-size="15.0" fill="#888888" transform="matrix(1.00, 0.00, -0.00, -1.00, 52.1, 65.0)"> </text><text xml:space="preserve" font-family="Helvetica" font-size="15.0" fill="#888888" transform="matrix(1.00, 0.00, -0.00, -1.00, 56.2, 65.0)">1</text><text xml:space="preserve" font-family="Helvetica" font-size="15.0" fill="#888888" transform="matrix(1.00, 0.00, -0.00, -1.00, 64.6, 65.0)">.</text><text xml:space="preserve" font-family="Helvetica" font-size="15.0" fill="#888888" transform="matrix(1.00, 0.00, -0.00, -1.00, 68.7, 65.0)">3</text><text xml:space="preserve" font-family="Helvetica" font-size="15.0" fill="#888888" transform="matrix(1.00, 0.00, -0.00, -1.00, 77.1, 65.0)">.</text><text xml:space="preserve" font-family="Helvetica" font-size="15.0" fill="#888888" transform="matrix(1.00, 0.00, -0.00, -1.00, 81.2, 65.0)">1</text><text xml:space="preserve" font-family="Helvetica" font-size="15.0" fill="#888888" transform="matrix(1.00, 0.00, -0.00, -1.00, 89.6, 65.0)"> </text><text xml:space="preserve" font-family="Helvetica" font-size="15.0" fill="#888888" transform="matrix(1.00, 0.00, -0.00, -1.00, 93.7, 65.0)">·</text><text xml:space="preserve" font-family="Helvetica" font-size="15.0" fill="#888888" transform="matrix(1.00, 0.00, -0.00, -1.00, 97.9, 65.0)"> </text><text xml:space="preserve" font-family="Helvetica" font-size="15.0" fill="#888888" transform="matrix(1.00, 0.00, -0.00, -1.00, 102.1, 65.0)">2</text><text xml:space="preserve" font-family="Helvetica" font-size="15.0" fill="#888888" transform="matrix(1.00, 0.00, -0.00, -1.00, 110.4, 65.0)">,</text><text xml:space="preserve" font-family="Helvetica" font-size="15.0" fill="#888888" transform="matrix(1.00, 0.00, -0.00, -1.00, 114.6, 65.0)">5</text><text xml:space="preserve" font-family="Helvetica" font-size="15.0" fill="#888888" transform="matrix(1.00, 0.00, -0.00, -1.00, 122.9, 65.0)">0</text><text xml:space="preserve" font-family="Helvetica" font-size="15.0" fill="#888888" transform="matrix(1.00, 0.00, -0.00, -1.00, 131.3, 65.0)">4</text><text xml:space="preserve" font-family="Helvetica" font-size="15.0" fill="#888888" transform="matrix(1.00, 0.00, -0.00, -1.00, 139.6, 65.0)"> </text><text xml:space="preserve" font-family="Helvetica" font-size="15.0" fill="#888888" transform="matrix(1.00, 0.00, -0.00, -1.00, 143.8, 65.0)">d</text><text xml:space="preserve" font-family="Helvetica" font-size="15.0" fill="#888888" transform="matrix(1.00, 0.00, -0.00, -1.00, 152.1, 65.0)">o</text><text xml:space="preserve" font-family="Helvetica" font-size="15.0" fill="#888888" transform="matrix(1.00, 0.00, -0.00, -1.00, 160.5, 65.0)">w</text><text xml:space="preserve" font-family="Helvetica" font-size="15.0" fill="#888888" transform="matrix(1.00, 0.00, -0.00, -1.00, 171.3, 65.0)">n</text><text xml:space="preserve" font-family="Helvetica" font-size="15.0" fill="#888888" transform="matrix(1.00, 0.00, -0.00, -1.00, 179.7, 65.0)">l</text><text xml:space="preserve" font-family="Helvetica" font-size="15.0" fill="#888888" transform="matrix(1.00, 0.00, -0.00, -1.00, 183.0, 65.0)">o</text><text xml:space="preserve" font-family="Helvetica" font-size="15.0" fill="#888888" transform="matrix(1.00, 0.00, -0.00, -1.00, 191.3, 65.0)">a</text><text xml:space="preserve" font-family="Helvetica" font-size="15.0" fill="#888888" transform="matrix(1.00, 0.00, -0.00, -1.00, 199.7, 65.0)">d</text><text xml:space="preserve" font-family="Helvetica" font-size="15.0" fill="#888888" transform="matrix(1.00, 0.00, -0.00, -1.00, 208.0, 65.0)">s</text><text xml:space="preserve" font-family="Helvetica" font-size="15.0" fill="#888888" transform="matrix(1.00, 0.00, -0.00, -1.00, 215.5, 65.0)"> </text><text xml:space="preserve" font-family="Helvetica" font-size="15.0" fill="#888888" transform="matrix(1.00, 0.00, -0.00, -1.00, 219.7, 65.0)">·</text><text xml:space="preserve" font-family="Helvetica" font-size="15.0" fill="#888888" transform="matrix(1.00, 0.00, -0.00, -1.00, 223.9, 65.0)"> </text><text xml:space="preserve" font-family="Helvetica" font-size="15.0" fill="#888888" transform="matrix(1.00, 0.00, -0.00, -1.00, 228.0, 65.0)">3</text><text xml:space="preserve" font-family="Helvetica" font-size="15.0" fill="#888888" transform="matrix(1.00, 0.00, -0.00, -1.00, 236.4, 65.0)">1</text><text xml:space="preserve" font-family="Helvetica" font-size="15.0" fill="#888888" transform="matrix(1.00, 0.00, -0.00, -1.00, 244.7, 65.0)"> </text><text xml:space="preserve" font-family="Helvetica" font-size="15.0" fill="#888888" transform="matrix(1.00, 0.00, -0.00, -1.00, 2.0, 45.0)">c</text><text xml:space="preserve" font-family="Helvetica" font-size="15.0" fill="#888888" transform="matrix(1.00, 0.00, -0.00, -1.00, 9.5, 45.0)">i</text><text xml:space="preserve" font-family="Helvetica" font-size="15.0" fill="#888888" transform="matrix(1.00, 0.00, -0.00, -1.00, 12.8, 45.0)">t</text><text xml:space="preserve" font-family="Helvetica" font-size="15.0" fill="#888888" transform="matrix(1.00, 0.00, -0.00, -1.00, 17.0, 45.0)">a</text><text xml:space="preserve" font-family="Helvetica" font-size="15.0" fill="#888888" transform="matrix(1.00, 0.00, -0.00, -1.00, 25.3, 45.0)">t</text><text xml:space="preserve" font-family="Helvetica" font-size="15.0" fill="#888888" transform="matrix(1.00, 0.00, -0.00, -1.00, 29.5, 45.0)">i</text><text xml:space="preserve" font-family="Helvetica" font-size="15.0" fill="#888888" transform="matrix(1.00, 0.00, -0.00, -1.00, 32.8, 45.0)">o</text><text xml:space="preserve" font-family="Helvetica" font-size="15.0" fill="#888888" transform="matrix(1.00, 0.00, -0.00, -1.00, 41.2, 45.0)">n</text><text xml:space="preserve" font-family="Helvetica" font-size="15.0" fill="#888888" transform="matrix(1.00, 0.00, -0.00, -1.00, 49.5, 45.0)">s</text><text xml:space="preserve" font-family="Helvetica" font-size="15.0" fill="#888888" transform="matrix(1.00, 0.00, -0.00, -1.00, 57.0, 45.0)"> </text><text xml:space="preserve" font-family="Helvetica" font-size="15.0" fill="#888888" transform="matrix(1.00, 0.00, -0.00, -1.00, 61.2, 45.0)">·</text><text xml:space="preserve" font-family="Helvetica" font-size="15.0" fill="#888888" transform="matrix(1.00, 0.00, -0.00, -1.00, 65.4, 45.0)"> </text><text xml:space="preserve" font-family="Helvetica" font-size="15.0" fill="#888888" transform="matrix(1.00, 0.00, -0.00, -1.00, 69.5, 45.0)">L</text><text xml:space="preserve" font-family="Helvetica" font-size="15.0" fill="#888888" transform="matrix(1.00, 0.00, -0.00, -1.00, 77.9, 45.0)">a</text><text xml:space="preserve" font-family="Helvetica" font-size="15.0" fill="#888888" transform="matrix(1.00, 0.00, -0.00, -1.00, 86.2, 45.0)">s</text><text xml:space="preserve" font-family="Helvetica" font-size="15.0" fill="#888888" transform="matrix(1.00, 0.00, -0.00, -1.00, 93.7, 45.0)">t</text><text xml:space="preserve" font-family="Helvetica" font-size="15.0" fill="#888888" transform="matrix(1.00, 0.00, -0.00, -1.00, 97.9, 45.0)"> </text><text xml:space="preserve" font-family="Helvetica" font-size="15.0" fill="#888888" transform="matrix(1.00, 0.00, -0.00, -1.00, 102.0, 45.0)">u</text><text xml:space="preserve" font-family="Helvetica" font-size="15.0" fill="#888888" transform="matrix(1.00, 0.00, -0.00, -1.00, 110.4, 45.0)">p</text><text xml:space="preserve" font-family="Helvetica" font-size="15.0" fill="#888888" transform="matrix(1.00, 0.00, -0.00, -1.00, 118.7, 45.0)">d</text><text xml:space="preserve" font-family="Helvetica" font-size="15.0" fill="#888888" transform="matrix(1.00, 0.00, -0.00, -1.00, 127.1, 45.0)">a</text><text xml:space="preserve" font-family="Helvetica" font-size="15.0" fill="#888888" transform="matrix(1.00, 0.00, -0.00, -1.00, 135.4, 45.0)">t</text><text xml:space="preserve" font-family="Helvetica" font-size="15.0" fill="#888888" transform="matrix(1.00, 0.00, -0.00, -1.00, 139.6, 45.0)">e</text><text xml:space="preserve" font-family="Helvetica" font-size="15.0" fill="#888888" transform="matrix(1.00, 0.00, -0.00, -1.00, 147.9, 45.0)">d</text><text xml:space="preserve" font-family="Helvetica" font-size="15.0" fill="#888888" transform="matrix(1.00, 0.00, -0.00, -1.00, 156.3, 45.0)"> </text><text xml:space="preserve" font-family="Helvetica" font-size="15.0" fill="#888888" transform="matrix(1.00, 0.00, -0.00, -1.00, 160.4, 45.0)">3</text><text xml:space="preserve" font-family="Helvetica" font-size="15.0" fill="#888888" transform="matrix(1.00, 0.00, -0.00, -1.00, 168.8, 45.0)">1</text><text xml:space="preserve" font-family="Helvetica" font-size="15.0" fill="#888888" transform="matrix(1.00, 0.00, -0.00, -1.00, 177.1, 45.0)"> </text><text xml:space="preserve" font-family="Helvetica" font-size="15.0" fill="#888888" transform="matrix(1.00, 0.00, -0.00, -1.00, 181.3, 45.0)">O</text><text xml:space="preserve" font-family="Helvetica" font-size="15.0" fill="#888888" transform="matrix(1.00, 0.00, -0.00, -1.00, 193.0, 45.0)">c</text><text xml:space="preserve" font-family="Helvetica" font-size="15.0" fill="#888888" transform="matrix(1.00, 0.00, -0.00, -1.00, 200.5, 45.0)">t</text><text xml:space="preserve" font-family="Helvetica" font-size="15.0" fill="#888888" transform="matrix(1.00, 0.00, -0.00, -1.00, 204.6, 45.0)"> </text><text xml:space="preserve" font-family="Helvetica" font-size="15.0" fill="#888888" transform="matrix(1.00, 0.00, -0.00, -1.00, 208.8, 45.0)">2</text><text xml:space="preserve" font-family="Helvetica" font-size="15.0" fill="#888888" transform="matrix(1.00, 0.00, -0.00, -1.00, 217.1, 45.0)">0</text><text xml:space="preserve" font-family="Helvetica" font-size="15.0" fill="#888888" transform="matrix(1.00, 0.00, -0.00, -1.00, 225.5, 45.0)">1</text><text xml:space="preserve" font-family="Helvetica" font-size="15.0" fill="#888888" transform="matrix(1.00, 0.00, -0.00, -1.00, 233.8, 45.0)">6</text><text xml:space="preserve" font-family="Helvetica" font-size="15.0" fill="#888888" transform="matrix(1.00, 0.00, -0.00, -1.00, 242.2, 45.0)"> </text><text xml:space="preserve" font-family="Helvetica" font-size="15.0" fill="#888888" transform="matrix(1.00, 0.00, -0.00, -1.00, 246.3, 45.0)">·</text><text xml:space="preserve" font-family="Helvetica" font-size="15.0" fill="#888888" transform="matrix(1.00, 0.00, -0.00, -1.00, 250.5, 45.0)"> </text><text xml:space="preserve" font-family="Helvetica" font-size="15.0" fill="#888888" transform="matrix(1.00, 0.00, -0.00, -1.00, 2.0, 25.0)">L</text><text xml:space="preserve" font-family="Helvetica" font-size="15.0" fill="#888888" transform="matrix(1.00, 0.00, -0.00, -1.00, 10.3, 25.0)">i</text><text xml:space="preserve" font-family="Helvetica" font-size="15.0" fill="#888888" transform="matrix(1.00, 0.00, -0.00, -1.00, 13.7, 25.0)">c</text><text xml:space="preserve" font-family="Helvetica" font-size="15.0" fill="#888888" transform="matrix(1.00, 0.00, -0.00, -1.00, 21.2, 25.0)">e</text><text xml:space="preserve" font-family="Helvetica" font-size="15.0" fill="#888888" transform="matrix(1.00, 0.00, -0.00, -1.00, 29.5, 25.0)">n</text><text xml:space="preserve" font-family="Helvetica" font-size="15.0" fill="#888888" transform="matrix(1.00, 0.00, -0.00, -1.00, 37.9, 25.0)">c</text><text xml:space="preserve" font-family="Helvetica" font-size="15.0" fill="#888888" transform="matrix(1.00, 0.00, -0.00, -1.00, 45.4, 25.0)">e</text><text xml:space="preserve" font-family="Helvetica" font-size="15.0" fill="#888888" transform="matrix(1.00, 0.00, -0.00, -1.00, 53.7, 25.0)">:</text><text xml:space="preserve" font-family="Helvetica" font-size="15.0" fill="#888888" transform="matrix(1.00, 0.00, -0.00, -1.00, 57.9, 25.0)"> </text><text xml:space="preserve" font-family="Helvetica" font-size="15.0" fill="#888888" transform="matrix(1.00, 0.00, -0.00, -1.00, 62.0, 25.0)">G</text><text xml:space="preserve" font-family="Helvetica" font-size="15.0" fill="#888888" transform="matrix(1.00, 0.00, -0.00, -1.00, 73.7, 25.0)">N</text><text xml:space="preserve" font-family="Helvetica" font-size="15.0" fill="#888888" transform="matrix(1.00, 0.00, -0.00, -1.00, 84.5, 25.0)">U</text><text xml:space="preserve" font-family="Helvetica" font-size="15.0" fill="#888888" transform="matrix(1.00, 0.00, -0.00, -1.00, 95.4, 25.0)">-</text><text xml:space="preserve" font-family="Helvetica" font-size="15.0" fill="#888888" transform="matrix(1.00, 0.00, -0.00, -1.00, 100.4, 25.0)">L</text><text xml:space="preserve" font-family="Helvetica" font-size="15.0" fill="#888888" transform="matrix(1.00, 0.00, -0.00, -1.00, 108.2, 25.0)"> </text><text xml:space="preserve" font-family="Helvetica" font-size="15.0" fill="#888888" transform="matrix(1.00, 0.00, -0.00, -1.00, 112.3, 25.0)">·</text><text xml:space="preserve" font-family="Helvetica" font-size="15.0" fill="#888888" transform="matrix(1.00, 0.00, -0.00, -1.00, 116.5, 25.0)"> </text><text xml:space="preserve" font-family="Helvetica" font-size="15.0" fill="#888888" transform="matrix(1.00, 0.00, -0.00, -1.00, 120.7, 25.0)">W</text><text xml:space="preserve" font-family="Helvetica" font-size="15.0" fill="#888888" transform="matrix(1.00, 0.00, -0.00, -1.00, 134.8, 25.0)">i</text><text xml:space="preserve" font-family="Helvetica" font-size="15.0" fill="#888888" transform="matrix(1.00, 0.00, -0.00, -1.00, 138.1, 25.0)">n</text><text xml:space="preserve" font-family="Helvetica" font-size="15.0" fill="#888888" transform="matrix(1.00, 0.00, -0.00, -1.00, 146.5, 25.0)">d</text><text xml:space="preserve" font-family="Helvetica" font-size="15.0" fill="#888888" transform="matrix(1.00, 0.00, -0.00, -1.00, 154.8, 25.0)">o</text><text xml:space="preserve" font-family="Helvetica" font-size="15.0" fill="#888888" transform="matrix(1.00, 0.00, -0.00, -1.00, 163.2, 25.0)">w</text><text xml:space="preserve" font-family="Helvetica" font-size="15.0" fill="#888888" transform="matrix(1.00, 0.00, -0.00, -1.00, 174.0, 25.0)">s</text><text xml:space="preserve" font-family="Helvetica" font-size="15.0" fill="#888888" transform="matrix(1.00, 0.00, -0.00, -1.00, 181.5, 25.0)"> </text><text xml:space="preserve" font-family="Helvetica" font-size="15.0" fill="#888888" transform="matrix(1.00, 0.00, -0.00, -1.00, 185.7, 25.0)">P</text><text xml:space="preserve" font-family="Helvetica" font-size="15.0" fill="#888888" transform="matrix(1.00, 0.00, -0.00, -1.00, 195.7, 25.0)">C</text><text xml:space="preserve" font-family="Helvetica" font-size="15.0" fill="#888888" transform="matrix(1.00, 0.00, -0.00, -1.00, 206.5, 25.0)"> </text><text xml:space="preserve" font-family="Helvetica" font-size="15.0" fill="#888888" transform="matrix(1.00, 0.00, -0.00, -1.00, 210.7, 25.0)">(</text><text xml:space="preserve" font-family="Helvetica" font-size="15.0" fill="#888888" transform="matrix(1.00, 0.00, -0.00, -1.00, 215.7, 25.0)">X</text><text xml:space="preserve" font-family="Helvetica" font-size="15.0" fill="#888888" transform="matrix(1.00, 0.00, -0.00, -1.00, 225.7, 25.0)">P</text><text xml:space="preserve" font-family="Helvetica" font-size="15.0" fill="#888888" transform="matrix(1.00, 0.00, -0.00, -1.00, 235.4, 25.0)"> </text><text xml:space="preserve" font-family="Helvetica" font-size="15.0" fill="#888888" transform="matrix(1.00, 0.00, -0.00, -1.00, 239.6, 25.0)">a</text><text xml:space="preserve" font-family="Helvetica" font-size="15.0" fill="#888888" transform="matrix(1.00, 0.00, -0.00, -1.00, 247.9, 25.0)">n</text><text xml:space="preserve" font-family="Helvetica" font-size="15.0" fill="#888888" transform="matrix(1.00, 0.00, -0.00, -1.00, 256.3, 25.0)">d</text><text xml:space="preserve" font-family="Helvetica" font-size="15.0" fill="#888888" transform="matrix(1.00, 0.00, -0.00, -1.00, 264.6, 25.0)"> </text><text xml:space="preserve" font-family="Helvetica" font-size="15.0" fill="#888888" transform="matrix(1.00, 0.00, -0.00, -1.00, 2.0, 6.0)">a</text><text xml:space="preserve" font-family="Helvetica" font-size="15.0" fill="#888888" transform="matrix(1.00, 0.00, -0.00, -1.00, 10.3, 6.0)">b</text><text xml:space="preserve" font-family="Helvetica" font-size="15.0" fill="#888888" transform="matrix(1.00, 0.00, -0.00, -1.00, 18.7, 6.0)">o</text><text xml:space="preserve" font-family="Helvetica" font-size="15.0" fill="#888888" transform="matrix(1.00, 0.00, -0.00, -1.00, 27.0, 6.0)">v</text><text xml:space="preserve" font-family="Helvetica" font-size="15.0" fill="#888888" transform="matrix(1.00, 0.00, -0.00, -1.00, 34.5, 6.0)">e</text><text xml:space="preserve" font-family="Helvetica" font-size="15.0" fill="#888888" transform="matrix(1.00, 0.00, -0.00, -1.00, 42.9, 6.0)">)</text></g></svg>