<?xml version="1.0" encoding="UTF-8" standalone="no"?><svg xmlns="http://www.w3.org/2000/svg" xmlns:xlink="http://www.w3.org/1999/xlink" clip-rule="evenodd" stroke-miterlimit="4.00" viewBox="0 0 390 70"><desc>SVG generated by Keynote</desc><defs></defs><g transform="matrix(1.00, 0.00, -0.00, -1.00, 0.0, 70.0)"><text xml:space="preserve" font-family="Helvetica-Bold" font-weight="bold" font-size="36.0" fill="#333333" transform="matrix(1.00, 0.00, -0.00, -1.00, 2.0, 42.0)">W</text><text xml:space="preserve" font-family="Helvetica-Bold" font-weight="bold" font-size="36.0" fill="#333333" transform="matrix(1.00, 0.00, -0.00, -1.00, 36.0, 42.0)">h</text><text xml:space="preserve" font-family="Helvetica-Bold" font-weight="bold" font-size="36.0" fill="#333333" transform="matrix(1.00, 0.00, -0.00, -1.00, 58.0, 42.0)">a</text><text xml:space="preserve" font-family="Helvetica-Bold" font-weight="bold" font-size="36.0" fill="#333333" transform="matrix(1.00, 0.00, -0.00, -1.00, 78.0, 42.0)">t</text><text xml:space="preserve" font-family="Helvetica-Bold" font-weight="bold" font-size="36.0" fill="#333333" transform="matrix(1.00, 0.00, -0.00, -1.00, 90.0, 42.0)"> </text><text xml:space="preserve" font-family="Helvetica-Bold" font-weight="bold" font-size="36.0" fill="#333333" transform="matrix(1.00, 0.00, -0.00, -1.00, 100.0, 42.0)">a</text><text xml:space="preserve" font-family="Helvetica-Bold" font-weight="bold" font-size="36.0" fill="#333333" transform="matrix(1.00, 0.00, -0.00, -1.00, 120.0, 42.0)">n</text><text xml:space="preserve" font-family="Helvetica-Bold" font-weight="bold" font-size="36.0" fill="#333333" transform="matrix(1.00, 0.00, -0.00, -1.00, 142.0, 42.0)">a</text><text xml:space="preserve" font-family="Helvetica-Bold" font-weight="bold" font-size="36.0" fill="#333333" transform="matrix(1.00, 0.00, -0.00, -1.00, 162.0, 42.0)">l</text><text xml:space="preserve" font-family="Helvetica-Bold" font-weight="bold" font-size="36.0" fill="#333333" transform="matrix(1.00, 0.00, -0.00, -1.00, 172.0, 42.0)">y</text><text xml:space="preserve" font-family="Helvetica-Bold" font-weight="bold" font-size="36.0" fill="#333333" transform="matrix(1.00, 0.00, -0.00, -1.00, 192.0, 42.0)">s</text><text xml:space="preserve" font-family="Helvetica-Bold" font-weight="bold" font-size="36.0" fill="#333333" transform="matrix(1.00, 0.00, -0.00, -1.00, 212.1, 42.0)">i</text><text xml:space="preserve" font-family="Helvetica-Bold" font-weight="bold" font-size="36.0" fill="#333333" transform="matrix(1.00, 0.00, -0.00, -1.00, 222.1, 42.0)">s</text><text xml:space="preserve" font-family="Helvetica-Bold" font-weight="bold" font-size="36.0" fill="#333333" transform="matrix(1.00, 0.00, -0.00, -1.00, 242.1, 42.0)"> </text><text xml:space="preserve" font-family="Helvetica-Bold" font-weight="bold" font-size="36.0" fill="#333333" transform="matrix(1.00, 0.00, -0.00, -1.00, 252.1, 42.0)">c</text><text xml:space="preserve" font-family="Helvetica-Bold" font-weight="bold" font-size="36.0" fill="#333333" transform="matrix(1.00, 0.00, -0.00, -1.00, 272.1, 42.0)">a</text><text xml:space="preserve" font-family="Helvetica-Bold" font-weight="bold" font-size="36.0" fill="#333333" transform="matrix(1.00, 0.00, -0.00, -1.00, 292.1, 42.0)">n</text><text xml:space="preserve" font-family="Helvetica-Bold" font-weight="bold" font-size="36.0" fill="#333333" transform="matrix(1.00, 0.00, -0.00, -1.00, 314.1, 42.0)"> </text><text xml:space="preserve" font-family="Helvetica-Bold" font-weight="bold" font-size="36.0" fill="#333333" transform="matrix(1.00, 0.00, -0.00, -1.00, 324.1, 42.0)">I</text><text xml:space="preserve" font-family="Helvetica-Bold" font-weight="bold" font-size="36.0" fill="#333333" transform="matrix(1.00, 0.00, -0.00, -1.00, 334.1, 42.0)"> </text><text xml:space="preserve" font-family="Helvetica-Bold" font-weight="bold" font-size="36.0" fill="#333333" transform="matrix(1.00, 0.00, -0.00, -1.00, 344.1, 42.0)">d</text><text xml:space="preserve" font-family="Helvetica-Bold" font-weight="bold" font-size="36.0" fill="#333333" transform="matrix(1.00, 0.00, -0.00, -1.00, 366.1, 42.0)">o</text><text xml:space="preserve" font-family="Helvetica-Bold" font-weight="bold" font-size="36.0" fill="#333333" transform="matrix(1.00, 0.00, -0.00, -1.00, 388.1, 42.0)"> </text><text xml:space="preserve" font-family="Helvetica-Bold" font-weight="bold" font-size="36.0" fill="#333333" transform="matrix(1.00, 0.00, -0.00, -1.00, 2.0, 4.0)">w</text><text xml:space="preserve" font-family="Helvetica-Bold" font-weight="bold" font-size="36.0" fill="#333333" transform="matrix(1.00, 0.00, -0.00, -1.00, 30.0, 4.0)">i</text><text xml:space="preserve" font-family="Helvetica-Bold" font-weight="bold" font-size="36.0" fill="#333333" transform="matrix(1.00, 0.00, -0.00, -1.00, 40.0, 4.0)">t</text><text xml:space="preserve" font-family="Helvetica-Bold" font-weight="bold" font-size="36.0" fill="#333333" transform="matrix(1.00, 0.00, -0.00, -1.00, 52.0, 4.0)">h</text><text xml:space="preserve" font-family="Helvetica-Bold" font-weight="bold" font-size="36.0" fill="#333333" transform="matrix(1.00, 0.00, -0.00, -1.00, 74.0, 4.0)"> </text><text xml:space="preserve" font-family="Helvetica-Bold" font-weight="bold" font-size="36.0" fill="#333333" transform="matrix(1.00, 0.00, -0.00, -1.00, 84.0, 4.0)">T</text><text xml:space="preserve" font-family="Helvetica-Bold" font-weight="bold" font-size="36.0" fill="#333333" transform="matrix(1.00, 0.00, -0.00, -1.00, 103.3, 4.0)">w</text><text xml:space="preserve" font-family="Helvetica-Bold" font-weight="bold" font-size="36.0" fill="#333333" transform="matrix(1.00, 0.00, -0.00, -1.00, 131.3, 4.0)">e</text><text xml:space="preserve" font-family="Helvetica-Bold" font-weight="bold" font-size="36.0" fill="#333333" transform="matrix(1.00, 0.00, -0.00, -1.00, 151.3, 4.0)">e</text><text xml:space="preserve" font-family="Helvetica-Bold" font-weight="bold" font-size="36.0" fill="#333333" transform="matrix(1.00, 0.00, -0.00, -1.00, 171.3, 4.0)">t</text><text xml:space="preserve" font-family="Helvetica-Bold" font-weight="bold" font-size="36.0" fill="#333333" transform="matrix(1.00, 0.00, -0.00, -1.00, 183.3, 4.0)">c</text><text xml:space="preserve" font-family="Helvetica-Bold" font-weight="bold" font-size="36.0" fill="#333333" transform="matrix(1.00, 0.00, -0.00, -1.00, 203.4, 4.0)">a</text><text xml:space="preserve" font-family="Helvetica-Bold" font-weight="bold" font-size="36.0" fill="#333333" transform="matrix(1.00, 0.00, -0.00, -1.00, 223.4, 4.0)">t</text><text xml:space="preserve" font-family="Helvetica-Bold" font-weight="bold" font-size="36.0" fill="#333333" transform="matrix(1.00, 0.00, -0.00, -1.00, 235.4, 4.0)">c</text><text xml:space="preserve" font-family="Helvetica-Bold" font-weight="bold" font-size="36.0" fill="#333333" transform="matrix(1.00, 0.00, -0.00, -1.00, 255.4, 4.0)">h</text><text xml:space="preserve" font-family="Helvetica-Bold" font-weight="bold" font-size="36.0" fill="#333333" transform="matrix(1.00, 0.00, -0.00, -1.00, 277.4, 4.0)">e</text><text xml:space="preserve" font-family="Helvetica-Bold" font-weight="bold" font-size="36.0" fill="#333333" transform="matrix(1.00, 0.00, -0.00, -1.00, 297.4, 4.0)">r</text><text xml:space="preserve" font-family="Helvetica-Bold" font-weight="bold" font-size="36.0" fill="#333333" transform="matrix(1.00, 0.00, -0.00, -1.00, 311.4, 4.0)">?</text></g></svg>