<?xml version="1.0" encoding="UTF-8" standalone="no"?><svg xmlns="http://www.w3.org/2000/svg" xmlns:xlink="http://www.w3.org/1999/xlink" clip-rule="evenodd" stroke-miterlimit="4.00" viewBox="0 0 254 37"><desc>SVG generated by Keynote</desc><defs></defs><g transform="matrix(1.00, 0.00, -0.00, -1.00, 0.0, 37.0)"><text xml:space="preserve" font-family="Helvetica" font-size="15.0" fill="#8E8E8E" transform="matrix(1.00, 0.00, -0.00, -1.00, 2.0, 24.0)">C</text><text xml:space="preserve" font-family="Helvetica" font-size="15.0" fill="#8E8E8E" transform="matrix(1.00, 0.00, -0.00, -1.00, 12.8, 24.0)">h</text><text xml:space="preserve" font-family="Helvetica" font-size="15.0" fill="#8E8E8E" transform="matrix(1.00, 0.00, -0.00, -1.00, 21.2, 24.0)">o</text><text xml:space="preserve" font-family="Helvetica" font-size="15.0" fill="#8E8E8E" transform="matrix(1.00, 0.00, -0.00, -1.00, 29.5, 24.0)">r</text><text xml:space="preserve" font-family="Helvetica" font-size="15.0" fill="#8E8E8E" transform="matrix(1.00, 0.00, -0.00, -1.00, 34.5, 24.0)">u</text><text xml:space="preserve" font-family="Helvetica" font-size="15.0" fill="#8E8E8E" transform="matrix(1.00, 0.00, -0.00, -1.00, 42.9, 24.0)">s</text><text xml:space="preserve" font-family="Helvetica" font-size="15.0" fill="#8E8E8E" transform="matrix(1.00, 0.00, -0.00, -1.00, 50.4, 24.0)"> </text><text xml:space="preserve" font-family="Helvetica" font-size="15.0" fill="#8E8E8E" transform="matrix(1.00, 0.00, -0.00, -1.00, 54.5, 24.0)">r</text><text xml:space="preserve" font-family="Helvetica" font-size="15.0" fill="#8E8E8E" transform="matrix(1.00, 0.00, -0.00, -1.00, 59.5, 24.0)">u</text><text xml:space="preserve" font-family="Helvetica" font-size="15.0" fill="#8E8E8E" transform="matrix(1.00, 0.00, -0.00, -1.00, 67.9, 24.0)">n</text><text xml:space="preserve" font-family="Helvetica" font-size="15.0" fill="#8E8E8E" transform="matrix(1.00, 0.00, -0.00, -1.00, 76.2, 24.0)">n</text><text xml:space="preserve" font-family="Helvetica" font-size="15.0" fill="#8E8E8E" transform="matrix(1.00, 0.00, -0.00, -1.00, 84.6, 24.0)">i</text><text xml:space="preserve" font-family="Helvetica" font-size="15.0" fill="#8E8E8E" transform="matrix(1.00, 0.00, -0.00, -1.00, 87.9, 24.0)">n</text><text xml:space="preserve" font-family="Helvetica" font-size="15.0" fill="#8E8E8E" transform="matrix(1.00, 0.00, -0.00, -1.00, 96.2, 24.0)">g</text><text xml:space="preserve" font-family="Helvetica" font-size="15.0" fill="#8E8E8E" transform="matrix(1.00, 0.00, -0.00, -1.00, 104.6, 24.0)"> </text><text xml:space="preserve" font-family="Helvetica" font-size="15.0" fill="#8E8E8E" transform="matrix(1.00, 0.00, -0.00, -1.00, 108.8, 24.0)">s</text><text xml:space="preserve" font-family="Helvetica" font-size="15.0" fill="#8E8E8E" transform="matrix(1.00, 0.00, -0.00, -1.00, 116.3, 24.0)">e</text><text xml:space="preserve" font-family="Helvetica" font-size="15.0" fill="#8E8E8E" transform="matrix(1.00, 0.00, -0.00, -1.00, 124.6, 24.0)">n</text><text xml:space="preserve" font-family="Helvetica" font-size="15.0" fill="#8E8E8E" transform="matrix(1.00, 0.00, -0.00, -1.00, 132.9, 24.0)">t</text><text xml:space="preserve" font-family="Helvetica" font-size="15.0" fill="#8E8E8E" transform="matrix(1.00, 0.00, -0.00, -1.00, 137.1, 24.0)">i</text><text xml:space="preserve" font-family="Helvetica" font-size="15.0" fill="#8E8E8E" transform="matrix(1.00, 0.00, -0.00, -1.00, 140.4, 24.0)">m</text><text xml:space="preserve" font-family="Helvetica" font-size="15.0" fill="#8E8E8E" transform="matrix(1.00, 0.00, -0.00, -1.00, 152.9, 24.0)">e</text><text xml:space="preserve" font-family="Helvetica" font-size="15.0" fill="#8E8E8E" transform="matrix(1.00, 0.00, -0.00, -1.00, 161.3, 24.0)">n</text><text xml:space="preserve" font-family="Helvetica" font-size="15.0" fill="#8E8E8E" transform="matrix(1.00, 0.00, -0.00, -1.00, 169.6, 24.0)">t</text><text xml:space="preserve" font-family="Helvetica" font-size="15.0" fill="#8E8E8E" transform="matrix(1.00, 0.00, -0.00, -1.00, 173.8, 24.0)"> </text><text xml:space="preserve" font-family="Helvetica" font-size="15.0" fill="#8E8E8E" transform="matrix(1.00, 0.00, -0.00, -1.00, 178.0, 24.0)">a</text><text xml:space="preserve" font-family="Helvetica" font-size="15.0" fill="#8E8E8E" transform="matrix(1.00, 0.00, -0.00, -1.00, 186.3, 24.0)">n</text><text xml:space="preserve" font-family="Helvetica" font-size="15.0" fill="#8E8E8E" transform="matrix(1.00, 0.00, -0.00, -1.00, 194.6, 24.0)">a</text><text xml:space="preserve" font-family="Helvetica" font-size="15.0" fill="#8E8E8E" transform="matrix(1.00, 0.00, -0.00, -1.00, 203.0, 24.0)">l</text><text xml:space="preserve" font-family="Helvetica" font-size="15.0" fill="#8E8E8E" transform="matrix(1.00, 0.00, -0.00, -1.00, 206.3, 24.0)">y</text><text xml:space="preserve" font-family="Helvetica" font-size="15.0" fill="#8E8E8E" transform="matrix(1.00, 0.00, -0.00, -1.00, 213.8, 24.0)">s</text><text xml:space="preserve" font-family="Helvetica" font-size="15.0" fill="#8E8E8E" transform="matrix(1.00, 0.00, -0.00, -1.00, 221.3, 24.0)">i</text><text xml:space="preserve" font-family="Helvetica" font-size="15.0" fill="#8E8E8E" transform="matrix(1.00, 0.00, -0.00, -1.00, 224.7, 24.0)">s</text><text xml:space="preserve" font-family="Helvetica" font-size="15.0" fill="#8E8E8E" transform="matrix(1.00, 0.00, -0.00, -1.00, 232.2, 24.0)"> </text><text xml:space="preserve" font-family="Helvetica" font-size="15.0" fill="#8E8E8E" transform="matrix(1.00, 0.00, -0.00, -1.00, 236.3, 24.0)">o</text><text xml:space="preserve" font-family="Helvetica" font-size="15.0" fill="#8E8E8E" transform="matrix(1.00, 0.00, -0.00, -1.00, 244.7, 24.0)">n</text><text xml:space="preserve" font-family="Helvetica" font-size="15.0" fill="#8E8E8E" transform="matrix(1.00, 0.00, -0.00, -1.00, 253.0, 24.0)"> </text><text xml:space="preserve" font-family="Helvetica" font-size="15.0" fill="#8E8E8E" transform="matrix(1.00, 0.00, -0.00, -1.00, 2.0, 4.0)">9</text><text xml:space="preserve" font-family="Helvetica" font-size="15.0" fill="#8E8E8E" transform="matrix(1.00, 0.00, -0.00, -1.00, 10.3, 4.0)">0</text><text xml:space="preserve" font-family="Helvetica" font-size="15.0" fill="#8E8E8E" transform="matrix(1.00, 0.00, -0.00, -1.00, 18.7, 4.0)">,</text><text xml:space="preserve" font-family="Helvetica" font-size="15.0" fill="#8E8E8E" transform="matrix(1.00, 0.00, -0.00, -1.00, 22.9, 4.0)">0</text><text xml:space="preserve" font-family="Helvetica" font-size="15.0" fill="#8E8E8E" transform="matrix(1.00, 0.00, -0.00, -1.00, 31.2, 4.0)">0</text><text xml:space="preserve" font-family="Helvetica" font-size="15.0" fill="#8E8E8E" transform="matrix(1.00, 0.00, -0.00, -1.00, 39.5, 4.0)">0</text><text xml:space="preserve" font-family="Helvetica" font-size="15.0" fill="#8E8E8E" transform="matrix(1.00, 0.00, -0.00, -1.00, 47.9, 4.0)">,</text><text xml:space="preserve" font-family="Helvetica" font-size="15.0" fill="#8E8E8E" transform="matrix(1.00, 0.00, -0.00, -1.00, 52.1, 4.0)">0</text><text xml:space="preserve" font-family="Helvetica" font-size="15.0" fill="#8E8E8E" transform="matrix(1.00, 0.00, -0.00, -1.00, 60.4, 4.0)">0</text><text xml:space="preserve" font-family="Helvetica" font-size="15.0" fill="#8E8E8E" transform="matrix(1.00, 0.00, -0.00, -1.00, 68.7, 4.0)">0</text><text xml:space="preserve" font-family="Helvetica" font-size="15.0" fill="#8E8E8E" transform="matrix(1.00, 0.00, -0.00, -1.00, 77.1, 4.0)">-</text><text xml:space="preserve" font-family="Helvetica" font-size="15.0" fill="#8E8E8E" transform="matrix(1.00, 0.00, -0.00, -1.00, 82.1, 4.0)">r</text><text xml:space="preserve" font-family="Helvetica" font-size="15.0" fill="#8E8E8E" transform="matrix(1.00, 0.00, -0.00, -1.00, 87.1, 4.0)">o</text><text xml:space="preserve" font-family="Helvetica" font-size="15.0" fill="#8E8E8E" transform="matrix(1.00, 0.00, -0.00, -1.00, 95.4, 4.0)">w</text><text xml:space="preserve" font-family="Helvetica" font-size="15.0" fill="#8E8E8E" transform="matrix(1.00, 0.00, -0.00, -1.00, 106.3, 4.0)"> </text><text xml:space="preserve" font-family="Helvetica" font-size="15.0" fill="#8E8E8E" transform="matrix(1.00, 0.00, -0.00, -1.00, 110.4, 4.0)">d</text><text xml:space="preserve" font-family="Helvetica" font-size="15.0" fill="#8E8E8E" transform="matrix(1.00, 0.00, -0.00, -1.00, 118.8, 4.0)">a</text><text xml:space="preserve" font-family="Helvetica" font-size="15.0" fill="#8E8E8E" transform="matrix(1.00, 0.00, -0.00, -1.00, 127.1, 4.0)">t</text><text xml:space="preserve" font-family="Helvetica" font-size="15.0" fill="#8E8E8E" transform="matrix(1.00, 0.00, -0.00, -1.00, 131.3, 4.0)">a</text><text xml:space="preserve" font-family="Helvetica" font-size="15.0" fill="#8E8E8E" transform="matrix(1.00, 0.00, -0.00, -1.00, 139.6, 4.0)"> </text><text xml:space="preserve" font-family="Helvetica" font-size="15.0" fill="#8E8E8E" transform="matrix(1.00, 0.00, -0.00, -1.00, 143.8, 4.0)">s</text><text xml:space="preserve" font-family="Helvetica" font-size="15.0" fill="#8E8E8E" transform="matrix(1.00, 0.00, -0.00, -1.00, 151.3, 4.0)">e</text><text xml:space="preserve" font-family="Helvetica" font-size="15.0" fill="#8E8E8E" transform="matrix(1.00, 0.00, -0.00, -1.00, 159.6, 4.0)">t</text></g></svg>