<?xml version="1.0" encoding="UTF-8" standalone="no"?><svg xmlns="http://www.w3.org/2000/svg" xmlns:xlink="http://www.w3.org/1999/xlink" clip-rule="evenodd" stroke-miterlimit="4.00" viewBox="0 0 251 18"><desc>SVG generated by Keynote</desc><defs></defs><g transform="matrix(1.00, 0.00, -0.00, -1.00, 0.0, 18.0)"><text xml:space="preserve" font-family="Helvetica" font-size="15.0" fill="#888888" transform="matrix(1.00, 0.00, -0.00, -1.00, 2.0, 5.0)">c</text><text xml:space="preserve" font-family="Helvetica" font-size="15.0" fill="#888888" transform="matrix(1.00, 0.00, -0.00, -1.00, 9.5, 5.0)">i</text><text xml:space="preserve" font-family="Helvetica" font-size="15.0" fill="#888888" transform="matrix(1.00, 0.00, -0.00, -1.00, 12.8, 5.0)">t</text><text xml:space="preserve" font-family="Helvetica" font-size="15.0" fill="#888888" transform="matrix(1.00, 0.00, -0.00, -1.00, 17.0, 5.0)">a</text><text xml:space="preserve" font-family="Helvetica" font-size="15.0" fill="#888888" transform="matrix(1.00, 0.00, -0.00, -1.00, 25.3, 5.0)">t</text><text xml:space="preserve" font-family="Helvetica" font-size="15.0" fill="#888888" transform="matrix(1.00, 0.00, -0.00, -1.00, 29.5, 5.0)">i</text><text xml:space="preserve" font-family="Helvetica" font-size="15.0" fill="#888888" transform="matrix(1.00, 0.00, -0.00, -1.00, 32.8, 5.0)">o</text><text xml:space="preserve" font-family="Helvetica" font-size="15.0" fill="#888888" transform="matrix(1.00, 0.00, -0.00, -1.00, 41.2, 5.0)">n</text><text xml:space="preserve" font-family="Helvetica" font-size="15.0" fill="#888888" transform="matrix(1.00, 0.00, -0.00, -1.00, 49.5, 5.0)">s</text><text xml:space="preserve" font-family="Helvetica" font-size="15.0" fill="#888888" transform="matrix(1.00, 0.00, -0.00, -1.00, 57.0, 5.0)"> </text><text xml:space="preserve" font-family="Helvetica" font-size="15.0" fill="#888888" transform="matrix(1.00, 0.00, -0.00, -1.00, 61.2, 5.0)">·</text><text xml:space="preserve" font-family="Helvetica" font-size="15.0" fill="#888888" transform="matrix(1.00, 0.00, -0.00, -1.00, 65.4, 5.0)"> </text><text xml:space="preserve" font-family="Helvetica" font-size="15.0" fill="#888888" transform="matrix(1.00, 0.00, -0.00, -1.00, 69.5, 5.0)">L</text><text xml:space="preserve" font-family="Helvetica" font-size="15.0" fill="#888888" transform="matrix(1.00, 0.00, -0.00, -1.00, 77.9, 5.0)">a</text><text xml:space="preserve" font-family="Helvetica" font-size="15.0" fill="#888888" transform="matrix(1.00, 0.00, -0.00, -1.00, 86.2, 5.0)">s</text><text xml:space="preserve" font-family="Helvetica" font-size="15.0" fill="#888888" transform="matrix(1.00, 0.00, -0.00, -1.00, 93.7, 5.0)">t</text><text xml:space="preserve" font-family="Helvetica" font-size="15.0" fill="#888888" transform="matrix(1.00, 0.00, -0.00, -1.00, 97.9, 5.0)"> </text><text xml:space="preserve" font-family="Helvetica" font-size="15.0" fill="#888888" transform="matrix(1.00, 0.00, -0.00, -1.00, 102.0, 5.0)">u</text><text xml:space="preserve" font-family="Helvetica" font-size="15.0" fill="#888888" transform="matrix(1.00, 0.00, -0.00, -1.00, 110.4, 5.0)">p</text><text xml:space="preserve" font-family="Helvetica" font-size="15.0" fill="#888888" transform="matrix(1.00, 0.00, -0.00, -1.00, 118.7, 5.0)">d</text><text xml:space="preserve" font-family="Helvetica" font-size="15.0" fill="#888888" transform="matrix(1.00, 0.00, -0.00, -1.00, 127.1, 5.0)">a</text><text xml:space="preserve" font-family="Helvetica" font-size="15.0" fill="#888888" transform="matrix(1.00, 0.00, -0.00, -1.00, 135.4, 5.0)">t</text><text xml:space="preserve" font-family="Helvetica" font-size="15.0" fill="#888888" transform="matrix(1.00, 0.00, -0.00, -1.00, 139.6, 5.0)">e</text><text xml:space="preserve" font-family="Helvetica" font-size="15.0" fill="#888888" transform="matrix(1.00, 0.00, -0.00, -1.00, 147.9, 5.0)">d</text><text xml:space="preserve" font-family="Helvetica" font-size="15.0" fill="#888888" transform="matrix(1.00, 0.00, -0.00, -1.00, 156.3, 5.0)"> </text><text xml:space="preserve" font-family="Helvetica" font-size="15.0" fill="#888888" transform="matrix(1.00, 0.00, -0.00, -1.00, 160.4, 5.0)">3</text><text xml:space="preserve" font-family="Helvetica" font-size="15.0" fill="#888888" transform="matrix(1.00, 0.00, -0.00, -1.00, 168.8, 5.0)">1</text><text xml:space="preserve" font-family="Helvetica" font-size="15.0" fill="#888888" transform="matrix(1.00, 0.00, -0.00, -1.00, 177.1, 5.0)"> </text><text xml:space="preserve" font-family="Helvetica" font-size="15.0" fill="#888888" transform="matrix(1.00, 0.00, -0.00, -1.00, 181.3, 5.0)">O</text><text xml:space="preserve" font-family="Helvetica" font-size="15.0" fill="#888888" transform="matrix(1.00, 0.00, -0.00, -1.00, 193.0, 5.0)">c</text><text xml:space="preserve" font-family="Helvetica" font-size="15.0" fill="#888888" transform="matrix(1.00, 0.00, -0.00, -1.00, 200.5, 5.0)">t</text><text xml:space="preserve" font-family="Helvetica" font-size="15.0" fill="#888888" transform="matrix(1.00, 0.00, -0.00, -1.00, 204.6, 5.0)"> </text><text xml:space="preserve" font-family="Helvetica" font-size="15.0" fill="#888888" transform="matrix(1.00, 0.00, -0.00, -1.00, 208.8, 5.0)">2</text><text xml:space="preserve" font-family="Helvetica" font-size="15.0" fill="#888888" transform="matrix(1.00, 0.00, -0.00, -1.00, 217.1, 5.0)">0</text><text xml:space="preserve" font-family="Helvetica" font-size="15.0" fill="#888888" transform="matrix(1.00, 0.00, -0.00, -1.00, 225.5, 5.0)">1</text><text xml:space="preserve" font-family="Helvetica" font-size="15.0" fill="#888888" transform="matrix(1.00, 0.00, -0.00, -1.00, 233.8, 5.0)">6</text><text xml:space="preserve" font-family="Helvetica" font-size="15.0" fill="#888888" transform="matrix(1.00, 0.00, -0.00, -1.00, 242.2, 5.0)"> </text><text xml:space="preserve" font-family="Helvetica" font-size="15.0" fill="#888888" transform="matrix(1.00, 0.00, -0.00, -1.00, 246.3, 5.0)">·</text></g></svg>