<?xml version="1.0" encoding="UTF-8" standalone="no"?><svg xmlns="http://www.w3.org/2000/svg" xmlns:xlink="http://www.w3.org/1999/xlink" clip-rule="evenodd" stroke-miterlimit="4.00" viewBox="0 0 108 42"><desc>SVG generated by Keynote</desc><defs></defs><g transform="matrix(1.00, 0.00, -0.00, -1.00, 0.0, 42.0)"><path d="M 10.0 39.5 L 97.7 39.5 C 100.0 39.5 101.2 39.5 102.4 39.1 C 103.8 38.6 104.8 37.6 105.3 36.2 C 105.7 35.0 105.7 33.8 105.7 31.5 L 105.7 10.3 C 105.7 8.0 105.7 6.9 105.3 5.6 C 104.8 4.3 103.8 3.2 102.4 2.7 C 101.2 2.3 100.0 2.3 97.7 2.3 L 10.0 2.3 C 7.8 2.3 6.6 2.3 5.4 2.7 C 4.0 3.2 2.9 4.3 2.5 5.6 C 2.1 6.9 2.1 8.0 2.1 10.3 L 2.1 31.5 C 2.1 33.8 2.1 35.0 2.5 36.2 C 2.9 37.6 4.0 38.6 5.4 39.1 C 6.6 39.5 7.8 39.5 10.1 39.5 Z M 10.0 39.5 " fill="#FEFFFF"></path><path d="M 8.0 0.0 L 95.7 0.0 C 98.0 0.0 99.1 0.0 100.4 0.4 C 101.7 0.9 102.8 1.9 103.3 3.3 C 103.7 4.5 103.7 5.7 103.7 8.0 L 103.7 29.2 C 103.7 31.5 103.7 32.6 103.3 33.9 C 102.8 35.2 101.7 36.3 100.4 36.8 C 99.1 37.2 98.0 37.2 95.6 37.2 L 8.0 37.2 C 5.7 37.2 4.5 37.2 3.3 36.8 C 1.9 36.3 0.9 35.2 0.4 33.9 C 0.0 32.6 0.0 31.5 0.0 29.2 L 0.0 8.0 C 0.0 5.7 0.0 4.5 0.4 3.3 C 0.9 1.9 1.9 0.9 3.3 0.4 C 4.5 0.0 5.7 0.0 8.0 0.0 Z M 8.0 0.0 " fill="none" stroke="#E60066" stroke-width="1.10" transform="matrix(1.00, 0.00, 0.00, -1.00, 2.1, 39.5)"></path><g><clipPath id="clip-486"><path d="M 2.1 2.3 L 105.7 2.3 L 105.7 39.5 L 2.1 39.5 Z M 2.1 2.3 "></path></clipPath><g clip-path="url(#clip-486)"><text xml:space="preserve" font-family="Helvetica-Bold" font-weight="bold" font-size="12.0" fill="#E60066" transform="matrix(1.00, 0.00, -0.00, -1.00, 32.0, 17.0)">L</text><text xml:space="preserve" font-family="Helvetica-Bold" font-weight="bold" font-size="12.0" fill="#E60066" transform="matrix(1.00, 0.00, -0.00, -1.00, 39.9, 17.0)">O</text><text xml:space="preserve" font-family="Helvetica-Bold" font-weight="bold" font-size="12.0" fill="#E60066" transform="matrix(1.00, 0.00, -0.00, -1.00, 49.9, 17.0)">G</text><text xml:space="preserve" font-family="Helvetica-Bold" font-weight="bold" font-size="12.0" fill="#E60066" transform="matrix(1.00, 0.00, -0.00, -1.00, 59.8, 17.0)"> </text><text xml:space="preserve" font-family="Helvetica-Bold" font-weight="bold" font-size="12.0" fill="#E60066" transform="matrix(1.00, 0.00, -0.00, -1.00, 63.7, 17.0)">I</text><text xml:space="preserve" font-family="Helvetica-Bold" font-weight="bold" font-size="12.0" fill="#E60066" transform="matrix(1.00, 0.00, -0.00, -1.00, 67.7, 17.0)">N</text></g></g></g></svg>