<?xml version="1.0" encoding="UTF-8" standalone="no"?><svg xmlns="http://www.w3.org/2000/svg" xmlns:xlink="http://www.w3.org/1999/xlink" clip-rule="evenodd" stroke-miterlimit="4.00" viewBox="0 0 338 508"><desc>SVG generated by Keynote</desc><defs></defs><g transform="matrix(1.00, 0.00, -0.00, -1.00, 0.0, 508.0)"><g><clipPath id="clip-495"><path d="M 0.8 0.3 L 337.0 0.3 L 337.0 507.7 L 0.8 507.7 Z M 0.8 0.3 "></path></clipPath><g clip-path="url(#clip-495)"><image xlink:href="../../979F68A5-C15D-4C9B-B35E-C34E150F65EC/assets/D11DDF0FF1F1BAF27D0F14EF45F7DAAE.png" width="334.00" height="505.00" transform="matrix(1.00, 0.00, -0.00, -1.00, 1.8, 506.7)" opacity="0.50"></image><path d="M 3.9 505.5 L 333.9 505.5 L 333.9 4.4 L 3.9 4.4 Z M 3.9 505.5 " fill="#FEFFFF"></path><path d="M 0.0 0.0 L 330.0 0.0 L 330.0 501.1 L 0.0 501.1 Z M 0.0 0.0 " fill="none" stroke="#BABABA" stroke-width="0.35" transform="matrix(1.00, 0.00, 0.00, -1.00, 3.9, 505.5)"></path></g></g><g><clipPath id="clip-496"><path d="M 17.8 19.5 L 320.1 19.5 L 320.1 76.5 L 17.8 76.5 Z M 17.8 19.5 "></path></clipPath><g clip-path="url(#clip-496)"><path d="M 26.7 75.5 L 311.1 75.5 C 313.4 75.5 314.6 75.5 315.8 75.1 C 317.1 74.6 318.2 73.6 318.7 72.2 C 319.1 71.0 319.1 69.9 319.1 67.5 L 319.1 28.4 C 319.1 26.1 319.1 25.0 318.7 23.7 C 318.2 22.4 317.1 21.3 315.8 20.9 C 314.6 20.5 313.4 20.5 311.1 20.5 L 26.7 20.5 C 24.4 20.5 23.3 20.5 22.1 20.9 C 20.7 21.3 19.7 22.4 19.2 23.7 C 18.8 25.0 18.8 26.1 18.8 28.4 L 18.8 67.6 C 18.8 69.9 18.8 71.0 19.2 72.2 C 19.7 73.6 20.7 74.6 22.1 75.1 C 23.3 75.5 24.4 75.5 26.7 75.5 Z M 26.7 75.5 " fill="#DEDEDE"></path></g></g><g><clipPath id="clip-497"><path d="M 16.4 20.5 L 321.4 20.5 L 321.4 75.5 L 16.4 75.5 Z M 16.4 20.5 "></path></clipPath><g clip-path="url(#clip-497)"><text xml:space="preserve" font-family="HelveticaNeue-Bold" font-weight="bold" font-size="18.0" fill="#424242" transform="matrix(1.00, 0.00, -0.00, -1.00, 125.0, 41.0)">P</text><text xml:space="preserve" font-family="HelveticaNeue-Bold" font-weight="bold" font-size="18.0" fill="#424242" transform="matrix(1.00, 0.00, -0.00, -1.00, 137.9, 41.0)">R</text><text xml:space="preserve" font-family="HelveticaNeue-Bold" font-weight="bold" font-size="18.0" fill="#424242" transform="matrix(1.00, 0.00, -0.00, -1.00, 151.8, 41.0)">E</text><text xml:space="preserve" font-family="HelveticaNeue-Bold" font-weight="bold" font-size="18.0" fill="#424242" transform="matrix(1.00, 0.00, -0.00, -1.00, 164.4, 41.0)">V</text><text xml:space="preserve" font-family="HelveticaNeue-Bold" font-weight="bold" font-size="18.0" fill="#424242" transform="matrix(1.00, 0.00, -0.00, -1.00, 176.6, 41.0)">I</text><text xml:space="preserve" font-family="HelveticaNeue-Bold" font-weight="bold" font-size="18.0" fill="#424242" transform="matrix(1.00, 0.00, -0.00, -1.00, 182.8, 41.0)">E</text><text xml:space="preserve" font-family="HelveticaNeue-Bold" font-weight="bold" font-size="18.0" fill="#424242" transform="matrix(1.00, 0.00, -0.00, -1.00, 195.4, 41.0)">W</text></g></g><g><clipPath id="clip-498"><path d="M 18.2 157.4 L 319.7 157.4 L 319.7 224.3 L 18.2 224.3 Z M 18.2 157.4 "></path></clipPath><g clip-path="url(#clip-498)"><text xml:space="preserve" font-family="Helvetica" font-size="15.0" fill="#888888" transform="matrix(1.00, 0.00, -0.00, -1.00, 22.0, 206.0)">1</text><text xml:space="preserve" font-family="Helvetica" font-size="15.0" fill="#888888" transform="matrix(1.00, 0.00, -0.00, -1.00, 30.3, 206.0)">,</text><text xml:space="preserve" font-family="Helvetica" font-size="15.0" fill="#888888" transform="matrix(1.00, 0.00, -0.00, -1.00, 34.5, 206.0)">4</text><text xml:space="preserve" font-family="Helvetica" font-size="15.0" fill="#888888" transform="matrix(1.00, 0.00, -0.00, -1.00, 42.9, 206.0)">3</text><text xml:space="preserve" font-family="Helvetica" font-size="15.0" fill="#888888" transform="matrix(1.00, 0.00, -0.00, -1.00, 51.2, 206.0)">9</text><text xml:space="preserve" font-family="Helvetica" font-size="15.0" fill="#888888" transform="matrix(1.00, 0.00, -0.00, -1.00, 59.5, 206.0)"> </text><text xml:space="preserve" font-family="Helvetica" font-size="15.0" fill="#888888" transform="matrix(1.00, 0.00, -0.00, -1.00, 63.7, 206.0)">d</text><text xml:space="preserve" font-family="Helvetica" font-size="15.0" fill="#888888" transform="matrix(1.00, 0.00, -0.00, -1.00, 72.1, 206.0)">o</text><text xml:space="preserve" font-family="Helvetica" font-size="15.0" fill="#888888" transform="matrix(1.00, 0.00, -0.00, -1.00, 80.4, 206.0)">w</text><text xml:space="preserve" font-family="Helvetica" font-size="15.0" fill="#888888" transform="matrix(1.00, 0.00, -0.00, -1.00, 91.2, 206.0)">n</text><text xml:space="preserve" font-family="Helvetica" font-size="15.0" fill="#888888" transform="matrix(1.00, 0.00, -0.00, -1.00, 99.6, 206.0)">l</text><text xml:space="preserve" font-family="Helvetica" font-size="15.0" fill="#888888" transform="matrix(1.00, 0.00, -0.00, -1.00, 102.9, 206.0)">o</text><text xml:space="preserve" font-family="Helvetica" font-size="15.0" fill="#888888" transform="matrix(1.00, 0.00, -0.00, -1.00, 111.3, 206.0)">a</text><text xml:space="preserve" font-family="Helvetica" font-size="15.0" fill="#888888" transform="matrix(1.00, 0.00, -0.00, -1.00, 119.6, 206.0)">d</text><text xml:space="preserve" font-family="Helvetica" font-size="15.0" fill="#888888" transform="matrix(1.00, 0.00, -0.00, -1.00, 128.0, 206.0)">s</text><text xml:space="preserve" font-family="Helvetica" font-size="15.0" fill="#888888" transform="matrix(1.00, 0.00, -0.00, -1.00, 135.5, 206.0)"> </text><text xml:space="preserve" font-family="Helvetica" font-size="15.0" fill="#888888" transform="matrix(1.00, 0.00, -0.00, -1.00, 139.6, 206.0)">路</text><text xml:space="preserve" font-family="Helvetica" font-size="15.0" fill="#888888" transform="matrix(1.00, 0.00, -0.00, -1.00, 143.8, 206.0)"> </text><text xml:space="preserve" font-family="Helvetica" font-size="15.0" fill="#888888" transform="matrix(1.00, 0.00, -0.00, -1.00, 147.9, 206.0)">2</text><text xml:space="preserve" font-family="Helvetica" font-size="15.0" fill="#888888" transform="matrix(1.00, 0.00, -0.00, -1.00, 156.3, 206.0)">2</text><text xml:space="preserve" font-family="Helvetica" font-size="15.0" fill="#888888" transform="matrix(1.00, 0.00, -0.00, -1.00, 164.6, 206.0)"> </text><text xml:space="preserve" font-family="Helvetica" font-size="15.0" fill="#888888" transform="matrix(1.00, 0.00, -0.00, -1.00, 168.8, 206.0)">c</text><text xml:space="preserve" font-family="Helvetica" font-size="15.0" fill="#888888" transform="matrix(1.00, 0.00, -0.00, -1.00, 176.3, 206.0)">i</text><text xml:space="preserve" font-family="Helvetica" font-size="15.0" fill="#888888" transform="matrix(1.00, 0.00, -0.00, -1.00, 179.6, 206.0)">t</text><text xml:space="preserve" font-family="Helvetica" font-size="15.0" fill="#888888" transform="matrix(1.00, 0.00, -0.00, -1.00, 183.8, 206.0)">a</text><text xml:space="preserve" font-family="Helvetica" font-size="15.0" fill="#888888" transform="matrix(1.00, 0.00, -0.00, -1.00, 192.1, 206.0)">t</text><text xml:space="preserve" font-family="Helvetica" font-size="15.0" fill="#888888" transform="matrix(1.00, 0.00, -0.00, -1.00, 196.3, 206.0)">i</text><text xml:space="preserve" font-family="Helvetica" font-size="15.0" fill="#888888" transform="matrix(1.00, 0.00, -0.00, -1.00, 199.6, 206.0)">o</text><text xml:space="preserve" font-family="Helvetica" font-size="15.0" fill="#888888" transform="matrix(1.00, 0.00, -0.00, -1.00, 208.0, 206.0)">n</text><text xml:space="preserve" font-family="Helvetica" font-size="15.0" fill="#888888" transform="matrix(1.00, 0.00, -0.00, -1.00, 216.3, 206.0)">s</text><text xml:space="preserve" font-family="Helvetica" font-size="15.0" fill="#888888" transform="matrix(1.00, 0.00, -0.00, -1.00, 223.8, 206.0)"> </text><text xml:space="preserve" font-family="Helvetica" font-size="15.0" fill="#888888" transform="matrix(1.00, 0.00, -0.00, -1.00, 228.0, 206.0)">路</text><text xml:space="preserve" font-family="Helvetica" font-size="15.0" fill="#888888" transform="matrix(1.00, 0.00, -0.00, -1.00, 232.2, 206.0)"> </text><text xml:space="preserve" font-family="Helvetica" font-size="15.0" fill="#888888" transform="matrix(1.00, 0.00, -0.00, -1.00, 236.3, 206.0)">L</text><text xml:space="preserve" font-family="Helvetica" font-size="15.0" fill="#888888" transform="matrix(1.00, 0.00, -0.00, -1.00, 244.7, 206.0)">a</text><text xml:space="preserve" font-family="Helvetica" font-size="15.0" fill="#888888" transform="matrix(1.00, 0.00, -0.00, -1.00, 253.0, 206.0)">s</text><text xml:space="preserve" font-family="Helvetica" font-size="15.0" fill="#888888" transform="matrix(1.00, 0.00, -0.00, -1.00, 260.5, 206.0)">t</text><text xml:space="preserve" font-family="Helvetica" font-size="15.0" fill="#888888" transform="matrix(1.00, 0.00, -0.00, -1.00, 264.7, 206.0)"> </text><text xml:space="preserve" font-family="Helvetica" font-size="15.0" fill="#888888" transform="matrix(1.00, 0.00, -0.00, -1.00, 22.0, 186.0)">u</text><text xml:space="preserve" font-family="Helvetica" font-size="15.0" fill="#888888" transform="matrix(1.00, 0.00, -0.00, -1.00, 30.3, 186.0)">p</text><text xml:space="preserve" font-family="Helvetica" font-size="15.0" fill="#888888" transform="matrix(1.00, 0.00, -0.00, -1.00, 38.7, 186.0)">d</text><text xml:space="preserve" font-family="Helvetica" font-size="15.0" fill="#888888" transform="matrix(1.00, 0.00, -0.00, -1.00, 47.0, 186.0)">a</text><text xml:space="preserve" font-family="Helvetica" font-size="15.0" fill="#888888" transform="matrix(1.00, 0.00, -0.00, -1.00, 55.4, 186.0)">t</text><text xml:space="preserve" font-family="Helvetica" font-size="15.0" fill="#888888" transform="matrix(1.00, 0.00, -0.00, -1.00, 59.5, 186.0)">e</text><text xml:space="preserve" font-family="Helvetica" font-size="15.0" fill="#888888" transform="matrix(1.00, 0.00, -0.00, -1.00, 67.9, 186.0)">d</text><text xml:space="preserve" font-family="Helvetica" font-size="15.0" fill="#888888" transform="matrix(1.00, 0.00, -0.00, -1.00, 76.2, 186.0)"> </text><text xml:space="preserve" font-family="Helvetica" font-size="15.0" fill="#888888" transform="matrix(1.00, 0.00, -0.00, -1.00, 80.4, 186.0)">1</text><text xml:space="preserve" font-family="Helvetica" font-size="15.0" fill="#888888" transform="matrix(1.00, 0.00, -0.00, -1.00, 88.7, 186.0)">2</text><text xml:space="preserve" font-family="Helvetica" font-size="15.0" fill="#888888" transform="matrix(1.00, 0.00, -0.00, -1.00, 97.1, 186.0)"> </text><text xml:space="preserve" font-family="Helvetica" font-size="15.0" fill="#888888" transform="matrix(1.00, 0.00, -0.00, -1.00, 100.4, 186.0)">A</text><text xml:space="preserve" font-family="Helvetica" font-size="15.0" fill="#888888" transform="matrix(1.00, 0.00, -0.00, -1.00, 110.4, 186.0)">u</text><text xml:space="preserve" font-family="Helvetica" font-size="15.0" fill="#888888" transform="matrix(1.00, 0.00, -0.00, -1.00, 118.8, 186.0)">g</text><text xml:space="preserve" font-family="Helvetica" font-size="15.0" fill="#888888" transform="matrix(1.00, 0.00, -0.00, -1.00, 127.1, 186.0)"> </text><text xml:space="preserve" font-family="Helvetica" font-size="15.0" fill="#888888" transform="matrix(1.00, 0.00, -0.00, -1.00, 131.3, 186.0)">2</text><text xml:space="preserve" font-family="Helvetica" font-size="15.0" fill="#888888" transform="matrix(1.00, 0.00, -0.00, -1.00, 139.6, 186.0)">0</text><text xml:space="preserve" font-family="Helvetica" font-size="15.0" fill="#888888" transform="matrix(1.00, 0.00, -0.00, -1.00, 148.0, 186.0)">1</text><text xml:space="preserve" font-family="Helvetica" font-size="15.0" fill="#888888" transform="matrix(1.00, 0.00, -0.00, -1.00, 156.3, 186.0)">6</text><text xml:space="preserve" font-family="Helvetica" font-size="15.0" fill="#888888" transform="matrix(1.00, 0.00, -0.00, -1.00, 164.7, 186.0)"> </text><text xml:space="preserve" font-family="Helvetica" font-size="15.0" fill="#888888" transform="matrix(1.00, 0.00, -0.00, -1.00, 168.8, 186.0)">路</text><text xml:space="preserve" font-family="Helvetica" font-size="15.0" fill="#888888" transform="matrix(1.00, 0.00, -0.00, -1.00, 173.0, 186.0)"> </text><text xml:space="preserve" font-family="Helvetica" font-size="15.0" fill="#888888" transform="matrix(1.00, 0.00, -0.00, -1.00, 177.2, 186.0)">L</text><text xml:space="preserve" font-family="Helvetica" font-size="15.0" fill="#888888" transform="matrix(1.00, 0.00, -0.00, -1.00, 185.5, 186.0)">i</text><text xml:space="preserve" font-family="Helvetica" font-size="15.0" fill="#888888" transform="matrix(1.00, 0.00, -0.00, -1.00, 188.9, 186.0)">c</text><text xml:space="preserve" font-family="Helvetica" font-size="15.0" fill="#888888" transform="matrix(1.00, 0.00, -0.00, -1.00, 196.4, 186.0)">e</text><text xml:space="preserve" font-family="Helvetica" font-size="15.0" fill="#888888" transform="matrix(1.00, 0.00, -0.00, -1.00, 204.7, 186.0)">n</text><text xml:space="preserve" font-family="Helvetica" font-size="15.0" fill="#888888" transform="matrix(1.00, 0.00, -0.00, -1.00, 213.0, 186.0)">c</text><text xml:space="preserve" font-family="Helvetica" font-size="15.0" fill="#888888" transform="matrix(1.00, 0.00, -0.00, -1.00, 220.5, 186.0)">e</text><text xml:space="preserve" font-family="Helvetica" font-size="15.0" fill="#888888" transform="matrix(1.00, 0.00, -0.00, -1.00, 228.9, 186.0)">:</text><text xml:space="preserve" font-family="Helvetica" font-size="15.0" fill="#888888" transform="matrix(1.00, 0.00, -0.00, -1.00, 233.1, 186.0)"> </text><text xml:space="preserve" font-family="Helvetica" font-size="15.0" fill="#888888" transform="matrix(1.00, 0.00, -0.00, -1.00, 237.2, 186.0)">G</text><text xml:space="preserve" font-family="Helvetica" font-size="15.0" fill="#888888" transform="matrix(1.00, 0.00, -0.00, -1.00, 248.9, 186.0)">N</text><text xml:space="preserve" font-family="Helvetica" font-size="15.0" fill="#888888" transform="matrix(1.00, 0.00, -0.00, -1.00, 259.7, 186.0)">U</text><text xml:space="preserve" font-family="Helvetica" font-size="15.0" fill="#888888" transform="matrix(1.00, 0.00, -0.00, -1.00, 270.6, 186.0)">-</text><text xml:space="preserve" font-family="Helvetica" font-size="15.0" fill="#888888" transform="matrix(1.00, 0.00, -0.00, -1.00, 275.5, 186.0)">L</text><text xml:space="preserve" font-family="Helvetica" font-size="15.0" fill="#888888" transform="matrix(1.00, 0.00, -0.00, -1.00, 283.3, 186.0)"> </text><text xml:space="preserve" font-family="Helvetica" font-size="15.0" fill="#888888" transform="matrix(1.00, 0.00, -0.00, -1.00, 287.5, 186.0)">路</text><text xml:space="preserve" font-family="Helvetica" font-size="15.0" fill="#888888" transform="matrix(1.00, 0.00, -0.00, -1.00, 291.6, 186.0)"> </text><text xml:space="preserve" font-family="Helvetica" font-size="15.0" fill="#888888" transform="matrix(1.00, 0.00, -0.00, -1.00, 22.0, 166.0)">W</text><text xml:space="preserve" font-family="Helvetica" font-size="15.0" fill="#888888" transform="matrix(1.00, 0.00, -0.00, -1.00, 36.2, 166.0)">i</text><text xml:space="preserve" font-family="Helvetica" font-size="15.0" fill="#888888" transform="matrix(1.00, 0.00, -0.00, -1.00, 39.5, 166.0)">n</text><text xml:space="preserve" font-family="Helvetica" font-size="15.0" fill="#888888" transform="matrix(1.00, 0.00, -0.00, -1.00, 47.8, 166.0)">d</text><text xml:space="preserve" font-family="Helvetica" font-size="15.0" fill="#888888" transform="matrix(1.00, 0.00, -0.00, -1.00, 56.2, 166.0)">o</text><text xml:space="preserve" font-family="Helvetica" font-size="15.0" fill="#888888" transform="matrix(1.00, 0.00, -0.00, -1.00, 64.5, 166.0)">w</text><text xml:space="preserve" font-family="Helvetica" font-size="15.0" fill="#888888" transform="matrix(1.00, 0.00, -0.00, -1.00, 75.4, 166.0)">s</text><text xml:space="preserve" font-family="Helvetica" font-size="15.0" fill="#888888" transform="matrix(1.00, 0.00, -0.00, -1.00, 82.9, 166.0)"> </text><text xml:space="preserve" font-family="Helvetica" font-size="15.0" fill="#888888" transform="matrix(1.00, 0.00, -0.00, -1.00, 87.0, 166.0)">P</text><text xml:space="preserve" font-family="Helvetica" font-size="15.0" fill="#888888" transform="matrix(1.00, 0.00, -0.00, -1.00, 97.0, 166.0)">C</text><text xml:space="preserve" font-family="Helvetica" font-size="15.0" fill="#888888" transform="matrix(1.00, 0.00, -0.00, -1.00, 107.9, 166.0)"> </text><text xml:space="preserve" font-family="Helvetica" font-size="15.0" fill="#888888" transform="matrix(1.00, 0.00, -0.00, -1.00, 112.0, 166.0)">(</text><text xml:space="preserve" font-family="Helvetica" font-size="15.0" fill="#888888" transform="matrix(1.00, 0.00, -0.00, -1.00, 117.0, 166.0)">X</text><text xml:space="preserve" font-family="Helvetica" font-size="15.0" fill="#888888" transform="matrix(1.00, 0.00, -0.00, -1.00, 127.0, 166.0)">P</text><text xml:space="preserve" font-family="Helvetica" font-size="15.0" fill="#888888" transform="matrix(1.00, 0.00, -0.00, -1.00, 136.8, 166.0)"> </text><text xml:space="preserve" font-family="Helvetica" font-size="15.0" fill="#888888" transform="matrix(1.00, 0.00, -0.00, -1.00, 140.9, 166.0)">a</text><text xml:space="preserve" font-family="Helvetica" font-size="15.0" fill="#888888" transform="matrix(1.00, 0.00, -0.00, -1.00, 149.3, 166.0)">n</text><text xml:space="preserve" font-family="Helvetica" font-size="15.0" fill="#888888" transform="matrix(1.00, 0.00, -0.00, -1.00, 157.6, 166.0)">d</text><text xml:space="preserve" font-family="Helvetica" font-size="15.0" fill="#888888" transform="matrix(1.00, 0.00, -0.00, -1.00, 166.0, 166.0)"> </text><text xml:space="preserve" font-family="Helvetica" font-size="15.0" fill="#888888" transform="matrix(1.00, 0.00, -0.00, -1.00, 170.1, 166.0)">a</text><text xml:space="preserve" font-family="Helvetica" font-size="15.0" fill="#888888" transform="matrix(1.00, 0.00, -0.00, -1.00, 178.5, 166.0)">b</text><text xml:space="preserve" font-family="Helvetica" font-size="15.0" fill="#888888" transform="matrix(1.00, 0.00, -0.00, -1.00, 186.8, 166.0)">o</text><text xml:space="preserve" font-family="Helvetica" font-size="15.0" fill="#888888" transform="matrix(1.00, 0.00, -0.00, -1.00, 195.2, 166.0)">v</text><text xml:space="preserve" font-family="Helvetica" font-size="15.0" fill="#888888" transform="matrix(1.00, 0.00, -0.00, -1.00, 202.7, 166.0)">e</text><text xml:space="preserve" font-family="Helvetica" font-size="15.0" fill="#888888" transform="matrix(1.00, 0.00, -0.00, -1.00, 211.0, 166.0)">)</text></g></g><g><clipPath id="clip-499"><path d="M 18.2 240.9 L 319.7 240.9 L 319.7 288.0 L 18.2 288.0 Z M 18.2 240.9 "></path></clipPath><g clip-path="url(#clip-499)"><text xml:space="preserve" font-family="Helvetica" font-size="15.0" fill="#8E8E8E" transform="matrix(1.00, 0.00, -0.00, -1.00, 22.0, 270.0)">C</text><text xml:space="preserve" font-family="Helvetica" font-size="15.0" fill="#8E8E8E" transform="matrix(1.00, 0.00, -0.00, -1.00, 32.8, 270.0)">h</text><text xml:space="preserve" font-family="Helvetica" font-size="15.0" fill="#8E8E8E" transform="matrix(1.00, 0.00, -0.00, -1.00, 41.2, 270.0)">o</text><text xml:space="preserve" font-family="Helvetica" font-size="15.0" fill="#8E8E8E" transform="matrix(1.00, 0.00, -0.00, -1.00, 49.5, 270.0)">r</text><text xml:space="preserve" font-family="Helvetica" font-size="15.0" fill="#8E8E8E" transform="matrix(1.00, 0.00, -0.00, -1.00, 54.5, 270.0)">u</text><text xml:space="preserve" font-family="Helvetica" font-size="15.0" fill="#8E8E8E" transform="matrix(1.00, 0.00, -0.00, -1.00, 62.9, 270.0)">s</text><text xml:space="preserve" font-family="Helvetica" font-size="15.0" fill="#8E8E8E" transform="matrix(1.00, 0.00, -0.00, -1.00, 70.4, 270.0)"> </text><text xml:space="preserve" font-family="Helvetica" font-size="15.0" fill="#8E8E8E" transform="matrix(1.00, 0.00, -0.00, -1.00, 74.5, 270.0)">r</text><text xml:space="preserve" font-family="Helvetica" font-size="15.0" fill="#8E8E8E" transform="matrix(1.00, 0.00, -0.00, -1.00, 79.5, 270.0)">u</text><text xml:space="preserve" font-family="Helvetica" font-size="15.0" fill="#8E8E8E" transform="matrix(1.00, 0.00, -0.00, -1.00, 87.9, 270.0)">n</text><text xml:space="preserve" font-family="Helvetica" font-size="15.0" fill="#8E8E8E" transform="matrix(1.00, 0.00, -0.00, -1.00, 96.2, 270.0)">n</text><text xml:space="preserve" font-family="Helvetica" font-size="15.0" fill="#8E8E8E" transform="matrix(1.00, 0.00, -0.00, -1.00, 104.6, 270.0)">i</text><text xml:space="preserve" font-family="Helvetica" font-size="15.0" fill="#8E8E8E" transform="matrix(1.00, 0.00, -0.00, -1.00, 107.9, 270.0)">n</text><text xml:space="preserve" font-family="Helvetica" font-size="15.0" fill="#8E8E8E" transform="matrix(1.00, 0.00, -0.00, -1.00, 116.2, 270.0)">g</text><text xml:space="preserve" font-family="Helvetica" font-size="15.0" fill="#8E8E8E" transform="matrix(1.00, 0.00, -0.00, -1.00, 124.6, 270.0)"> </text><text xml:space="preserve" font-family="Helvetica" font-size="15.0" fill="#8E8E8E" transform="matrix(1.00, 0.00, -0.00, -1.00, 128.8, 270.0)">s</text><text xml:space="preserve" font-family="Helvetica" font-size="15.0" fill="#8E8E8E" transform="matrix(1.00, 0.00, -0.00, -1.00, 136.3, 270.0)">e</text><text xml:space="preserve" font-family="Helvetica" font-size="15.0" fill="#8E8E8E" transform="matrix(1.00, 0.00, -0.00, -1.00, 144.6, 270.0)">n</text><text xml:space="preserve" font-family="Helvetica" font-size="15.0" fill="#8E8E8E" transform="matrix(1.00, 0.00, -0.00, -1.00, 152.9, 270.0)">t</text><text xml:space="preserve" font-family="Helvetica" font-size="15.0" fill="#8E8E8E" transform="matrix(1.00, 0.00, -0.00, -1.00, 157.1, 270.0)">i</text><text xml:space="preserve" font-family="Helvetica" font-size="15.0" fill="#8E8E8E" transform="matrix(1.00, 0.00, -0.00, -1.00, 160.4, 270.0)">m</text><text xml:space="preserve" font-family="Helvetica" font-size="15.0" fill="#8E8E8E" transform="matrix(1.00, 0.00, -0.00, -1.00, 172.9, 270.0)">e</text><text xml:space="preserve" font-family="Helvetica" font-size="15.0" fill="#8E8E8E" transform="matrix(1.00, 0.00, -0.00, -1.00, 181.3, 270.0)">n</text><text xml:space="preserve" font-family="Helvetica" font-size="15.0" fill="#8E8E8E" transform="matrix(1.00, 0.00, -0.00, -1.00, 189.6, 270.0)">t</text><text xml:space="preserve" font-family="Helvetica" font-size="15.0" fill="#8E8E8E" transform="matrix(1.00, 0.00, -0.00, -1.00, 193.8, 270.0)"> </text><text xml:space="preserve" font-family="Helvetica" font-size="15.0" fill="#8E8E8E" transform="matrix(1.00, 0.00, -0.00, -1.00, 198.0, 270.0)">a</text><text xml:space="preserve" font-family="Helvetica" font-size="15.0" fill="#8E8E8E" transform="matrix(1.00, 0.00, -0.00, -1.00, 206.3, 270.0)">n</text><text xml:space="preserve" font-family="Helvetica" font-size="15.0" fill="#8E8E8E" transform="matrix(1.00, 0.00, -0.00, -1.00, 214.6, 270.0)">a</text><text xml:space="preserve" font-family="Helvetica" font-size="15.0" fill="#8E8E8E" transform="matrix(1.00, 0.00, -0.00, -1.00, 223.0, 270.0)">l</text><text xml:space="preserve" font-family="Helvetica" font-size="15.0" fill="#8E8E8E" transform="matrix(1.00, 0.00, -0.00, -1.00, 226.3, 270.0)">y</text><text xml:space="preserve" font-family="Helvetica" font-size="15.0" fill="#8E8E8E" transform="matrix(1.00, 0.00, -0.00, -1.00, 233.8, 270.0)">s</text><text xml:space="preserve" font-family="Helvetica" font-size="15.0" fill="#8E8E8E" transform="matrix(1.00, 0.00, -0.00, -1.00, 241.3, 270.0)">i</text><text xml:space="preserve" font-family="Helvetica" font-size="15.0" fill="#8E8E8E" transform="matrix(1.00, 0.00, -0.00, -1.00, 244.7, 270.0)">s</text><text xml:space="preserve" font-family="Helvetica" font-size="15.0" fill="#8E8E8E" transform="matrix(1.00, 0.00, -0.00, -1.00, 252.2, 270.0)"> </text><text xml:space="preserve" font-family="Helvetica" font-size="15.0" fill="#8E8E8E" transform="matrix(1.00, 0.00, -0.00, -1.00, 256.3, 270.0)">o</text><text xml:space="preserve" font-family="Helvetica" font-size="15.0" fill="#8E8E8E" transform="matrix(1.00, 0.00, -0.00, -1.00, 264.7, 270.0)">n</text><text xml:space="preserve" font-family="Helvetica" font-size="15.0" fill="#8E8E8E" transform="matrix(1.00, 0.00, -0.00, -1.00, 273.0, 270.0)"> </text><text xml:space="preserve" font-family="Helvetica" font-size="15.0" fill="#8E8E8E" transform="matrix(1.00, 0.00, -0.00, -1.00, 22.0, 250.0)">9</text><text xml:space="preserve" font-family="Helvetica" font-size="15.0" fill="#8E8E8E" transform="matrix(1.00, 0.00, -0.00, -1.00, 30.3, 250.0)">0</text><text xml:space="preserve" font-family="Helvetica" font-size="15.0" fill="#8E8E8E" transform="matrix(1.00, 0.00, -0.00, -1.00, 38.7, 250.0)">,</text><text xml:space="preserve" font-family="Helvetica" font-size="15.0" fill="#8E8E8E" transform="matrix(1.00, 0.00, -0.00, -1.00, 42.9, 250.0)">0</text><text xml:space="preserve" font-family="Helvetica" font-size="15.0" fill="#8E8E8E" transform="matrix(1.00, 0.00, -0.00, -1.00, 51.2, 250.0)">0</text><text xml:space="preserve" font-family="Helvetica" font-size="15.0" fill="#8E8E8E" transform="matrix(1.00, 0.00, -0.00, -1.00, 59.5, 250.0)">0</text><text xml:space="preserve" font-family="Helvetica" font-size="15.0" fill="#8E8E8E" transform="matrix(1.00, 0.00, -0.00, -1.00, 67.9, 250.0)">,</text><text xml:space="preserve" font-family="Helvetica" font-size="15.0" fill="#8E8E8E" transform="matrix(1.00, 0.00, -0.00, -1.00, 72.1, 250.0)">0</text><text xml:space="preserve" font-family="Helvetica" font-size="15.0" fill="#8E8E8E" transform="matrix(1.00, 0.00, -0.00, -1.00, 80.4, 250.0)">0</text><text xml:space="preserve" font-family="Helvetica" font-size="15.0" fill="#8E8E8E" transform="matrix(1.00, 0.00, -0.00, -1.00, 88.7, 250.0)">0</text><text xml:space="preserve" font-family="Helvetica" font-size="15.0" fill="#8E8E8E" transform="matrix(1.00, 0.00, -0.00, -1.00, 97.1, 250.0)">-</text><text xml:space="preserve" font-family="Helvetica" font-size="15.0" fill="#8E8E8E" transform="matrix(1.00, 0.00, -0.00, -1.00, 102.1, 250.0)">r</text><text xml:space="preserve" font-family="Helvetica" font-size="15.0" fill="#8E8E8E" transform="matrix(1.00, 0.00, -0.00, -1.00, 107.1, 250.0)">o</text><text xml:space="preserve" font-family="Helvetica" font-size="15.0" fill="#8E8E8E" transform="matrix(1.00, 0.00, -0.00, -1.00, 115.4, 250.0)">w</text><text xml:space="preserve" font-family="Helvetica" font-size="15.0" fill="#8E8E8E" transform="matrix(1.00, 0.00, -0.00, -1.00, 126.3, 250.0)"> </text><text xml:space="preserve" font-family="Helvetica" font-size="15.0" fill="#8E8E8E" transform="matrix(1.00, 0.00, -0.00, -1.00, 130.4, 250.0)">d</text><text xml:space="preserve" font-family="Helvetica" font-size="15.0" fill="#8E8E8E" transform="matrix(1.00, 0.00, -0.00, -1.00, 138.8, 250.0)">a</text><text xml:space="preserve" font-family="Helvetica" font-size="15.0" fill="#8E8E8E" transform="matrix(1.00, 0.00, -0.00, -1.00, 147.1, 250.0)">t</text><text xml:space="preserve" font-family="Helvetica" font-size="15.0" fill="#8E8E8E" transform="matrix(1.00, 0.00, -0.00, -1.00, 151.3, 250.0)">a</text><text xml:space="preserve" font-family="Helvetica" font-size="15.0" fill="#8E8E8E" transform="matrix(1.00, 0.00, -0.00, -1.00, 159.6, 250.0)"> </text><text xml:space="preserve" font-family="Helvetica" font-size="15.0" fill="#8E8E8E" transform="matrix(1.00, 0.00, -0.00, -1.00, 163.8, 250.0)">s</text><text xml:space="preserve" font-family="Helvetica" font-size="15.0" fill="#8E8E8E" transform="matrix(1.00, 0.00, -0.00, -1.00, 171.3, 250.0)">e</text><text xml:space="preserve" font-family="Helvetica" font-size="15.0" fill="#8E8E8E" transform="matrix(1.00, 0.00, -0.00, -1.00, 179.6, 250.0)">t</text></g></g><g><clipPath id="clip-500"><path d="M 23.0 233.4 L 314.8 233.4 L 314.8 235.6 L 23.0 235.6 Z M 23.0 233.4 "></path></clipPath><g clip-path="url(#clip-500)"><path d="M 0.0 0.0 L 289.8 0.0 " fill="none" stroke="#BABABA" stroke-width="0.25" transform="matrix(1.00, 0.00, 0.00, -1.00, 24.0, 234.5)"></path></g></g></g></svg>