<?xml version="1.0" encoding="UTF-8" standalone="no"?><svg xmlns="http://www.w3.org/2000/svg" xmlns:xlink="http://www.w3.org/1999/xlink" clip-rule="evenodd" stroke-miterlimit="4.00" viewBox="0 0 425 274"><desc>SVG generated by Keynote</desc><defs><linearGradient id="gradSh1.1" x1="0.0" y1="0.0" x2="100.0" y2="0.0" gradientUnits="userSpaceOnUse" gradientTransform="matrix(0.00, -2.74, -4.20, 0.00, 212.6, 273.7)"><stop offset="0.00000" stop-color="#DFDFDF"></stop><stop offset="0.01540" stop-color="#DEDEDE"></stop><stop offset="1.00000" stop-color="#BEBEBE"></stop></linearGradient></defs><g transform="matrix(1.00, 0.00, -0.00, -1.00, 0.0, 274.0)"><g><clipPath id="clip-419"><path d="M 0.6 1.8 L 424.6 1.8 L 424.6 272.9 L 0.6 272.9 Z M 0.6 1.8 "></path></clipPath><g clip-path="url(#clip-419)"><image xlink:href="../../85C6E244-9D7C-4FA8-9DD1-DA3F5A830953/assets/7B967382FF1B178B241F53E0EB3C824A.png" width="424.00" height="271.00" transform="matrix(1.00, 0.00, -0.00, -1.00, 0.6, 272.9)" opacity="0.50"></image></g></g><g><clipPath id="clip-420"><path d="M 3.0 272.0 L 423.0 272.0 L 423.0 5.0 L 3.0 5.0 Z M 2.6 271.9 "></path></clipPath><g clip-path="url(#clip-420)"><g><clipPath id="clip-421"><path d="M 0.6 1.8 L 424.6 1.8 L 424.6 272.9 L 0.6 272.9 Z M 0.6 1.8 "></path></clipPath><g clip-path="url(#clip-421)"><image xlink:href="../../85C6E244-9D7C-4FA8-9DD1-DA3F5A830953/assets/483D00649D4A743CF18577CED3E2D61C.png" width="420.00" height="326.00" transform="matrix(1.00, 0.00, -0.00, -1.00, 3.0, 272.0)"></image></g></g></g></g><g><clipPath id="clip-422"><path d="M 2.8 0.0 L 422.5 0.0 L 422.5 273.7 L 2.8 273.7 Z M 2.8 0.0 "></path></clipPath><g clip-path="url(#clip-422)"><g opacity="0.29"><g><clipPath id="clip-423"><path d="M 19.8 272.7 L 405.5 272.7 C 410.1 272.7 412.4 272.7 414.9 272.0 C 417.6 271.0 419.8 268.8 420.7 266.1 C 421.5 263.6 421.5 261.3 421.5 256.6 L 421.5 17.1 C 421.5 12.5 421.5 10.1 420.7 7.6 C 419.8 4.9 417.6 2.8 414.9 1.8 C 412.4 1.0 410.1 1.0 405.4 1.0 L 19.8 1.0 C 15.2 1.0 12.9 1.0 10.4 1.8 C 7.7 2.8 5.5 4.9 4.5 7.6 C 3.8 10.1 3.8 12.5 3.8 17.1 L 3.8 256.7 C 3.8 261.3 3.8 263.6 4.5 266.1 C 5.5 268.8 7.7 271.0 10.4 272.0 C 12.9 272.7 15.2 272.7 19.9 272.7 Z M 19.8 272.7 "></path></clipPath><g clip-path="url(#clip-423)"><g><clipPath id="clip-424"><path d="M 3.0 1.0 L 422.0 1.0 L 422.0 273.0 L 3.0 273.0 Z M 3.0 1.0 "></path></clipPath><g clip-path="url(#clip-424)"><path d="M 3.0 1.0 L 422.0 1.0 L 422.0 273.0 L 3.0 273.0 Z M 3.0 1.0 " fill="url(#gradSh1.1)"></path></g></g></g></g></g></g></g><g><clipPath id="clip-425"><path d="M 238.2 159.5 L 238.2 123.3 L 205.6 123.3 L 205.6 159.5 Z M 238.2 159.5 "></path></clipPath><g clip-path="url(#clip-425)"><path d="M 237.2 141.4 L 206.6 124.3 L 206.6 158.5 Z M 237.2 141.4 " fill="#8E8E8E"></path></g></g></g></svg>