<?xml version="1.0" encoding="UTF-8" standalone="no"?><svg xmlns="http://www.w3.org/2000/svg" xmlns:xlink="http://www.w3.org/1999/xlink" clip-rule="evenodd" stroke-miterlimit="4.00" viewBox="0 0 381 61"><desc>SVG generated by Keynote</desc><defs></defs><g transform="matrix(1.00, 0.00, -0.00, -1.00, 0.0, 61.0)"><text xml:space="preserve" font-family="Helvetica-Bold" font-weight="bold" font-size="17.0" fill="#333333" transform="matrix(1.00, 0.00, -0.00, -1.00, 1.0, 46.0)">W</text><text xml:space="preserve" font-family="Helvetica-Bold" font-weight="bold" font-size="17.0" fill="#333333" transform="matrix(1.00, 0.00, -0.00, -1.00, 16.7, 46.0)">o</text><text xml:space="preserve" font-family="Helvetica-Bold" font-weight="bold" font-size="17.0" fill="#333333" transform="matrix(1.00, 0.00, -0.00, -1.00, 27.1, 46.0)">r</text><text xml:space="preserve" font-family="Helvetica-Bold" font-weight="bold" font-size="17.0" fill="#333333" transform="matrix(1.00, 0.00, -0.00, -1.00, 33.8, 46.0)">d</text><text xml:space="preserve" font-family="Helvetica-Bold" font-weight="bold" font-size="17.0" fill="#333333" transform="matrix(1.00, 0.00, -0.00, -1.00, 44.1, 46.0)"> </text><text xml:space="preserve" font-family="Helvetica-Bold" font-weight="bold" font-size="17.0" fill="#333333" transform="matrix(1.00, 0.00, -0.00, -1.00, 48.9, 46.0)">F</text><text xml:space="preserve" font-family="Helvetica-Bold" font-weight="bold" font-size="17.0" fill="#333333" transform="matrix(1.00, 0.00, -0.00, -1.00, 59.3, 46.0)">r</text><text xml:space="preserve" font-family="Helvetica-Bold" font-weight="bold" font-size="17.0" fill="#333333" transform="matrix(1.00, 0.00, -0.00, -1.00, 65.9, 46.0)">e</text><text xml:space="preserve" font-family="Helvetica-Bold" font-weight="bold" font-size="17.0" fill="#333333" transform="matrix(1.00, 0.00, -0.00, -1.00, 75.3, 46.0)">q</text><text xml:space="preserve" font-family="Helvetica-Bold" font-weight="bold" font-size="17.0" fill="#333333" transform="matrix(1.00, 0.00, -0.00, -1.00, 85.7, 46.0)">u</text><text xml:space="preserve" font-family="Helvetica-Bold" font-weight="bold" font-size="17.0" fill="#333333" transform="matrix(1.00, 0.00, -0.00, -1.00, 96.1, 46.0)">e</text><text xml:space="preserve" font-family="Helvetica-Bold" font-weight="bold" font-size="17.0" fill="#333333" transform="matrix(1.00, 0.00, -0.00, -1.00, 105.6, 46.0)">n</text><text xml:space="preserve" font-family="Helvetica-Bold" font-weight="bold" font-size="17.0" fill="#333333" transform="matrix(1.00, 0.00, -0.00, -1.00, 116.0, 46.0)">c</text><text xml:space="preserve" font-family="Helvetica-Bold" font-weight="bold" font-size="17.0" fill="#333333" transform="matrix(1.00, 0.00, -0.00, -1.00, 125.4, 46.0)">y</text><text xml:space="preserve" font-family="Helvetica-Bold" font-weight="bold" font-size="17.0" fill="#333333" transform="matrix(1.00, 0.00, -0.00, -1.00, 134.9, 46.0)"> </text><text xml:space="preserve" font-family="Helvetica" font-size="17.0" fill="#333333" transform="matrix(1.00, 0.00, -0.00, -1.00, 1.0, 24.0)">Q</text><text xml:space="preserve" font-family="Helvetica" font-size="17.0" fill="#333333" transform="matrix(1.00, 0.00, -0.00, -1.00, 14.2, 24.0)">u</text><text xml:space="preserve" font-family="Helvetica" font-size="17.0" fill="#333333" transform="matrix(1.00, 0.00, -0.00, -1.00, 23.7, 24.0)">i</text><text xml:space="preserve" font-family="Helvetica" font-size="17.0" fill="#333333" transform="matrix(1.00, 0.00, -0.00, -1.00, 27.5, 24.0)">c</text><text xml:space="preserve" font-family="Helvetica" font-size="17.0" fill="#333333" transform="matrix(1.00, 0.00, -0.00, -1.00, 36.0, 24.0)">k</text><text xml:space="preserve" font-family="Helvetica" font-size="17.0" fill="#333333" transform="matrix(1.00, 0.00, -0.00, -1.00, 44.5, 24.0)">l</text><text xml:space="preserve" font-family="Helvetica" font-size="17.0" fill="#333333" transform="matrix(1.00, 0.00, -0.00, -1.00, 48.2, 24.0)">y</text><text xml:space="preserve" font-family="Helvetica" font-size="17.0" fill="#333333" transform="matrix(1.00, 0.00, -0.00, -1.00, 56.7, 24.0)"> </text><text xml:space="preserve" font-family="Helvetica" font-size="17.0" fill="#333333" transform="matrix(1.00, 0.00, -0.00, -1.00, 61.5, 24.0)">s</text><text xml:space="preserve" font-family="Helvetica" font-size="17.0" fill="#333333" transform="matrix(1.00, 0.00, -0.00, -1.00, 70.0, 24.0)">e</text><text xml:space="preserve" font-family="Helvetica" font-size="17.0" fill="#333333" transform="matrix(1.00, 0.00, -0.00, -1.00, 79.4, 24.0)">e</text><text xml:space="preserve" font-family="Helvetica" font-size="17.0" fill="#333333" transform="matrix(1.00, 0.00, -0.00, -1.00, 88.9, 24.0)"> </text><text xml:space="preserve" font-family="Helvetica" font-size="17.0" fill="#333333" transform="matrix(1.00, 0.00, -0.00, -1.00, 93.6, 24.0)">t</text><text xml:space="preserve" font-family="Helvetica" font-size="17.0" fill="#333333" transform="matrix(1.00, 0.00, -0.00, -1.00, 98.3, 24.0)">h</text><text xml:space="preserve" font-family="Helvetica" font-size="17.0" fill="#333333" transform="matrix(1.00, 0.00, -0.00, -1.00, 107.8, 24.0)">e</text><text xml:space="preserve" font-family="Helvetica" font-size="17.0" fill="#333333" transform="matrix(1.00, 0.00, -0.00, -1.00, 117.2, 24.0)"> </text><text xml:space="preserve" font-family="Helvetica" font-size="17.0" fill="#333333" transform="matrix(1.00, 0.00, -0.00, -1.00, 121.9, 24.0)">f</text><text xml:space="preserve" font-family="Helvetica" font-size="17.0" fill="#333333" transform="matrix(1.00, 0.00, -0.00, -1.00, 126.7, 24.0)">r</text><text xml:space="preserve" font-family="Helvetica" font-size="17.0" fill="#333333" transform="matrix(1.00, 0.00, -0.00, -1.00, 132.3, 24.0)">e</text><text xml:space="preserve" font-family="Helvetica" font-size="17.0" fill="#333333" transform="matrix(1.00, 0.00, -0.00, -1.00, 141.8, 24.0)">q</text><text xml:space="preserve" font-family="Helvetica" font-size="17.0" fill="#333333" transform="matrix(1.00, 0.00, -0.00, -1.00, 151.2, 24.0)">u</text><text xml:space="preserve" font-family="Helvetica" font-size="17.0" fill="#333333" transform="matrix(1.00, 0.00, -0.00, -1.00, 160.7, 24.0)">e</text><text xml:space="preserve" font-family="Helvetica" font-size="17.0" fill="#333333" transform="matrix(1.00, 0.00, -0.00, -1.00, 170.2, 24.0)">n</text><text xml:space="preserve" font-family="Helvetica" font-size="17.0" fill="#333333" transform="matrix(1.00, 0.00, -0.00, -1.00, 179.6, 24.0)">c</text><text xml:space="preserve" font-family="Helvetica" font-size="17.0" fill="#333333" transform="matrix(1.00, 0.00, -0.00, -1.00, 188.1, 24.0)">y</text><text xml:space="preserve" font-family="Helvetica" font-size="17.0" fill="#333333" transform="matrix(1.00, 0.00, -0.00, -1.00, 196.6, 24.0)"> </text><text xml:space="preserve" font-family="Helvetica" font-size="17.0" fill="#333333" transform="matrix(1.00, 0.00, -0.00, -1.00, 201.3, 24.0)">o</text><text xml:space="preserve" font-family="Helvetica" font-size="17.0" fill="#333333" transform="matrix(1.00, 0.00, -0.00, -1.00, 210.8, 24.0)">f</text><text xml:space="preserve" font-family="Helvetica" font-size="17.0" fill="#333333" transform="matrix(1.00, 0.00, -0.00, -1.00, 215.5, 24.0)"> </text><text xml:space="preserve" font-family="Helvetica" font-size="17.0" fill="#333333" transform="matrix(1.00, 0.00, -0.00, -1.00, 220.2, 24.0)">w</text><text xml:space="preserve" font-family="Helvetica" font-size="17.0" fill="#333333" transform="matrix(1.00, 0.00, -0.00, -1.00, 232.5, 24.0)">o</text><text xml:space="preserve" font-family="Helvetica" font-size="17.0" fill="#333333" transform="matrix(1.00, 0.00, -0.00, -1.00, 242.0, 24.0)">r</text><text xml:space="preserve" font-family="Helvetica" font-size="17.0" fill="#333333" transform="matrix(1.00, 0.00, -0.00, -1.00, 247.6, 24.0)">d</text><text xml:space="preserve" font-family="Helvetica" font-size="17.0" fill="#333333" transform="matrix(1.00, 0.00, -0.00, -1.00, 257.1, 24.0)">s</text><text xml:space="preserve" font-family="Helvetica" font-size="17.0" fill="#333333" transform="matrix(1.00, 0.00, -0.00, -1.00, 265.6, 24.0)"> </text><text xml:space="preserve" font-family="Helvetica" font-size="17.0" fill="#333333" transform="matrix(1.00, 0.00, -0.00, -1.00, 270.3, 24.0)">a</text><text xml:space="preserve" font-family="Helvetica" font-size="17.0" fill="#333333" transform="matrix(1.00, 0.00, -0.00, -1.00, 279.8, 24.0)">p</text><text xml:space="preserve" font-family="Helvetica" font-size="17.0" fill="#333333" transform="matrix(1.00, 0.00, -0.00, -1.00, 289.2, 24.0)">p</text><text xml:space="preserve" font-family="Helvetica" font-size="17.0" fill="#333333" transform="matrix(1.00, 0.00, -0.00, -1.00, 298.7, 24.0)">e</text><text xml:space="preserve" font-family="Helvetica" font-size="17.0" fill="#333333" transform="matrix(1.00, 0.00, -0.00, -1.00, 308.1, 24.0)">a</text><text xml:space="preserve" font-family="Helvetica" font-size="17.0" fill="#333333" transform="matrix(1.00, 0.00, -0.00, -1.00, 317.6, 24.0)">r</text><text xml:space="preserve" font-family="Helvetica" font-size="17.0" fill="#333333" transform="matrix(1.00, 0.00, -0.00, -1.00, 323.3, 24.0)">i</text><text xml:space="preserve" font-family="Helvetica" font-size="17.0" fill="#333333" transform="matrix(1.00, 0.00, -0.00, -1.00, 327.0, 24.0)">n</text><text xml:space="preserve" font-family="Helvetica" font-size="17.0" fill="#333333" transform="matrix(1.00, 0.00, -0.00, -1.00, 336.5, 24.0)">g</text><text xml:space="preserve" font-family="Helvetica" font-size="17.0" fill="#333333" transform="matrix(1.00, 0.00, -0.00, -1.00, 346.0, 24.0)"> </text><text xml:space="preserve" font-family="Helvetica" font-size="17.0" fill="#333333" transform="matrix(1.00, 0.00, -0.00, -1.00, 350.7, 24.0)">i</text><text xml:space="preserve" font-family="Helvetica" font-size="17.0" fill="#333333" transform="matrix(1.00, 0.00, -0.00, -1.00, 354.5, 24.0)">n</text><text xml:space="preserve" font-family="Helvetica" font-size="17.0" fill="#333333" transform="matrix(1.00, 0.00, -0.00, -1.00, 363.9, 24.0)"> </text><text xml:space="preserve" font-family="Helvetica" font-size="17.0" fill="#333333" transform="matrix(1.00, 0.00, -0.00, -1.00, 368.6, 24.0)">a</text><text xml:space="preserve" font-family="Helvetica" font-size="17.0" fill="#333333" transform="matrix(1.00, 0.00, -0.00, -1.00, 378.1, 24.0)"> </text><text xml:space="preserve" font-family="Helvetica" font-size="17.0" fill="#333333" transform="matrix(1.00, 0.00, -0.00, -1.00, 1.0, 2.0)">t</text><text xml:space="preserve" font-family="Helvetica" font-size="17.0" fill="#333333" transform="matrix(1.00, 0.00, -0.00, -1.00, 5.7, 2.0)">e</text><text xml:space="preserve" font-family="Helvetica" font-size="17.0" fill="#333333" transform="matrix(1.00, 0.00, -0.00, -1.00, 15.2, 2.0)">x</text><text xml:space="preserve" font-family="Helvetica" font-size="17.0" fill="#333333" transform="matrix(1.00, 0.00, -0.00, -1.00, 23.7, 2.0)">t</text><text xml:space="preserve" font-family="Helvetica" font-size="17.0" fill="#333333" transform="matrix(1.00, 0.00, -0.00, -1.00, 28.4, 2.0)"> </text><text xml:space="preserve" font-family="Helvetica" font-size="17.0" fill="#333333" transform="matrix(1.00, 0.00, -0.00, -1.00, 33.1, 2.0)">ﬁ</text><text xml:space="preserve" font-family="Helvetica" font-size="17.0" fill="#333333" transform="matrix(1.00, 0.00, -0.00, -1.00, 41.6, 2.0)">l</text><text xml:space="preserve" font-family="Helvetica" font-size="17.0" fill="#333333" transform="matrix(1.00, 0.00, -0.00, -1.00, 45.4, 2.0)">e</text><text xml:space="preserve" font-family="Helvetica" font-size="17.0" fill="#333333" transform="matrix(1.00, 0.00, -0.00, -1.00, 54.9, 2.0)">.</text><text xml:space="preserve" font-family="Helvetica" font-size="17.0" fill="#333333" transform="matrix(1.00, 0.00, -0.00, -1.00, 59.6, 2.0)"> </text></g></svg>