<?xml version="1.0" encoding="UTF-8" standalone="no"?><svg xmlns="http://www.w3.org/2000/svg" xmlns:xlink="http://www.w3.org/1999/xlink" clip-rule="evenodd" stroke-miterlimit="4.00" viewBox="0 0 304 58"><desc>SVG generated by Keynote</desc><defs></defs><g transform="matrix(1.00, 0.00, -0.00, -1.00, 0.0, 58.0)"><path d="M 10.3 56.2 L 293.5 56.2 C 296.0 56.2 297.2 56.2 298.5 55.8 C 300.0 55.3 301.1 54.1 301.6 52.7 C 302.1 51.4 302.1 50.1 302.1 47.6 L 302.1 10.2 C 302.1 7.8 302.1 6.5 301.6 5.2 C 301.1 3.8 300.0 2.6 298.5 2.1 C 297.2 1.7 296.0 1.7 293.5 1.7 L 10.3 1.7 C 7.9 1.7 6.6 1.7 5.3 2.1 C 3.9 2.6 2.7 3.8 2.2 5.2 C 1.8 6.5 1.8 7.8 1.8 10.3 L 1.8 47.7 C 1.8 50.1 1.8 51.4 2.2 52.7 C 2.7 54.1 3.9 55.3 5.3 55.8 C 6.6 56.2 7.9 56.2 10.4 56.2 Z M 10.3 56.2 " fill="#ED661B"></path><path d="M 8.5 0.0 L 291.7 0.0 C 294.2 0.0 295.4 0.0 296.8 0.4 C 298.2 0.9 299.3 2.1 299.9 3.5 C 300.3 4.9 300.3 6.1 300.3 8.6 L 300.3 46.0 C 300.3 48.4 300.3 49.7 299.9 51.0 C 299.3 52.4 298.2 53.6 296.8 54.1 C 295.4 54.5 294.2 54.5 291.7 54.5 L 8.5 54.5 C 6.1 54.5 4.9 54.5 3.5 54.1 C 2.1 53.6 0.9 52.4 0.4 51.0 C 0.0 49.7 0.0 48.4 0.0 45.9 L 0.0 8.5 C 0.0 6.1 0.0 4.9 0.4 3.5 C 0.9 2.1 2.1 0.9 3.5 0.4 C 4.9 0.0 6.1 0.0 8.6 0.0 Z M 8.5 0.0 " fill="none" stroke="#ED661B" stroke-width="1.10" transform="matrix(1.00, 0.00, 0.00, -1.00, 1.8, 56.2)"></path><g><clipPath id="clip-433"><path d="M -0.1 1.7 L 303.9 1.7 L 303.9 56.2 L -0.1 56.2 Z M -0.1 1.7 "></path></clipPath><g clip-path="url(#clip-433)"><text xml:space="preserve" font-family="HelveticaNeue-Bold" font-weight="bold" font-size="18.0" fill="#FEFFFE" transform="matrix(1.00, 0.00, -0.00, -1.00, 33.0, 22.0)">I</text><text xml:space="preserve" font-family="HelveticaNeue-Bold" font-weight="bold" font-size="18.0" fill="#FEFFFE" transform="matrix(1.00, 0.00, -0.00, -1.00, 39.2, 22.0)">N</text><text xml:space="preserve" font-family="HelveticaNeue-Bold" font-weight="bold" font-size="18.0" fill="#FEFFFE" transform="matrix(1.00, 0.00, -0.00, -1.00, 53.4, 22.0)">S</text><text xml:space="preserve" font-family="HelveticaNeue-Bold" font-weight="bold" font-size="18.0" fill="#FEFFFE" transform="matrix(1.00, 0.00, -0.00, -1.00, 66.0, 22.0)">T</text><text xml:space="preserve" font-family="HelveticaNeue-Bold" font-weight="bold" font-size="18.0" fill="#FEFFFE" transform="matrix(1.00, 0.00, -0.00, -1.00, 76.3, 22.0)">A</text><text xml:space="preserve" font-family="HelveticaNeue-Bold" font-weight="bold" font-size="18.0" fill="#FEFFFE" transform="matrix(1.00, 0.00, -0.00, -1.00, 89.5, 22.0)">L</text><text xml:space="preserve" font-family="HelveticaNeue-Bold" font-weight="bold" font-size="18.0" fill="#FEFFFE" transform="matrix(1.00, 0.00, -0.00, -1.00, 101.1, 22.0)">L</text><text xml:space="preserve" font-family="HelveticaNeue-Bold" font-weight="bold" font-size="18.0" fill="#FEFFFE" transform="matrix(1.00, 0.00, -0.00, -1.00, 112.7, 22.0)"> </text><text xml:space="preserve" font-family="HelveticaNeue-Bold" font-weight="bold" font-size="18.0" fill="#FEFFFE" transform="matrix(1.00, 0.00, -0.00, -1.00, 118.6, 22.0)">T</text><text xml:space="preserve" font-family="HelveticaNeue-Bold" font-weight="bold" font-size="18.0" fill="#FEFFFE" transform="matrix(1.00, 0.00, -0.00, -1.00, 130.5, 22.0)">E</text><text xml:space="preserve" font-family="HelveticaNeue-Bold" font-weight="bold" font-size="18.0" fill="#FEFFFE" transform="matrix(1.00, 0.00, -0.00, -1.00, 143.0, 22.0)">X</text><text xml:space="preserve" font-family="HelveticaNeue-Bold" font-weight="bold" font-size="18.0" fill="#FEFFFE" transform="matrix(1.00, 0.00, -0.00, -1.00, 155.9, 22.0)">T</text><text xml:space="preserve" font-family="HelveticaNeue-Bold" font-weight="bold" font-size="18.0" fill="#FEFFFE" transform="matrix(1.00, 0.00, -0.00, -1.00, 167.8, 22.0)">O</text><text xml:space="preserve" font-family="HelveticaNeue-Bold" font-weight="bold" font-size="18.0" fill="#FEFFFE" transform="matrix(1.00, 0.00, -0.00, -1.00, 182.7, 22.0)">M</text><text xml:space="preserve" font-family="HelveticaNeue-Bold" font-weight="bold" font-size="18.0" fill="#FEFFFE" transform="matrix(1.00, 0.00, -0.00, -1.00, 200.0, 22.0)">E</text><text xml:space="preserve" font-family="HelveticaNeue-Bold" font-weight="bold" font-size="18.0" fill="#FEFFFE" transform="matrix(1.00, 0.00, -0.00, -1.00, 212.5, 22.0)">T</text><text xml:space="preserve" font-family="HelveticaNeue-Bold" font-weight="bold" font-size="18.0" fill="#FEFFFE" transform="matrix(1.00, 0.00, -0.00, -1.00, 224.4, 22.0)">R</text><text xml:space="preserve" font-family="HelveticaNeue-Bold" font-weight="bold" font-size="18.0" fill="#FEFFFE" transform="matrix(1.00, 0.00, -0.00, -1.00, 238.3, 22.0)">I</text><text xml:space="preserve" font-family="HelveticaNeue-Bold" font-weight="bold" font-size="18.0" fill="#FEFFFE" transform="matrix(1.00, 0.00, -0.00, -1.00, 244.5, 22.0)">C</text><text xml:space="preserve" font-family="HelveticaNeue-Bold" font-weight="bold" font-size="18.0" fill="#FEFFFE" transform="matrix(1.00, 0.00, -0.00, -1.00, 258.8, 22.0)">A</text></g></g></g></svg>