<?xml version="1.0" encoding="UTF-8" standalone="no"?><svg xmlns="http://www.w3.org/2000/svg" xmlns:xlink="http://www.w3.org/1999/xlink" clip-rule="evenodd" stroke-miterlimit="4.00" viewBox="0 0 93 20"><desc>SVG generated by Keynote</desc><defs></defs><g transform="matrix(1.00, 0.00, -0.00, -1.00, 0.0, 20.0)"><text xml:space="preserve" font-family="Helvetica" font-size="17.0" fill="#2E3E8B" transform="matrix(1.00, 0.00, -0.00, -1.00, 1.0, 5.0)">o</text><text xml:space="preserve" font-family="Helvetica" font-size="17.0" fill="#2E3E8B" transform="matrix(1.00, 0.00, -0.00, -1.00, 10.5, 5.0)">f</text><text xml:space="preserve" font-family="Helvetica" font-size="17.0" fill="#2E3E8B" transform="matrix(1.00, 0.00, -0.00, -1.00, 15.2, 5.0)"> </text><text xml:space="preserve" font-family="Helvetica" font-size="17.0" fill="#2E3E8B" transform="matrix(1.00, 0.00, -0.00, -1.00, 19.9, 5.0)">s</text><text xml:space="preserve" font-family="Helvetica" font-size="17.0" fill="#2E3E8B" transform="matrix(1.00, 0.00, -0.00, -1.00, 28.4, 5.0)">u</text><text xml:space="preserve" font-family="Helvetica" font-size="17.0" fill="#2E3E8B" transform="matrix(1.00, 0.00, -0.00, -1.00, 37.9, 5.0)">f</text><text xml:space="preserve" font-family="Helvetica" font-size="17.0" fill="#2E3E8B" transform="matrix(1.00, 0.00, -0.00, -1.00, 42.3, 5.0)">f</text><text xml:space="preserve" font-family="Helvetica" font-size="17.0" fill="#2E3E8B" transform="matrix(1.00, 0.00, -0.00, -1.00, 47.0, 5.0)">e</text><text xml:space="preserve" font-family="Helvetica" font-size="17.0" fill="#2E3E8B" transform="matrix(1.00, 0.00, -0.00, -1.00, 56.5, 5.0)">r</text><text xml:space="preserve" font-family="Helvetica" font-size="17.0" fill="#2E3E8B" transform="matrix(1.00, 0.00, -0.00, -1.00, 62.1, 5.0)">e</text><text xml:space="preserve" font-family="Helvetica" font-size="17.0" fill="#2E3E8B" transform="matrix(1.00, 0.00, -0.00, -1.00, 71.6, 5.0)">r</text><text xml:space="preserve" font-family="Helvetica" font-size="17.0" fill="#2E3E8B" transform="matrix(1.00, 0.00, -0.00, -1.00, 77.2, 5.0)">s</text><text xml:space="preserve" font-family="Helvetica" font-size="17.0" fill="#2E3E8B" transform="matrix(1.00, 0.00, -0.00, -1.00, 85.7, 5.0)">)</text></g></svg>