<?xml version="1.0" encoding="UTF-8" standalone="no"?><svg xmlns="http://www.w3.org/2000/svg" xmlns:xlink="http://www.w3.org/1999/xlink" clip-rule="evenodd" stroke-miterlimit="4.00" viewBox="0 0 426 20"><desc>SVG generated by Keynote</desc><defs></defs><g transform="matrix(1.00, 0.00, -0.00, -1.00, 0.0, 20.0)"><text xml:space="preserve" font-family="Helvetica" font-size="17.0" fill="#333333" transform="matrix(1.00, 0.00, -0.00, -1.00, 0.0, 5.0)">(</text><text xml:space="preserve" font-family="Helvetica" font-size="17.0" fill="#333333" transform="matrix(1.00, 0.00, -0.00, -1.00, 5.7, 5.0)">w</text><text xml:space="preserve" font-family="Helvetica" font-size="17.0" fill="#333333" transform="matrix(1.00, 0.00, -0.00, -1.00, 17.9, 5.0)">o</text><text xml:space="preserve" font-family="Helvetica" font-size="17.0" fill="#333333" transform="matrix(1.00, 0.00, -0.00, -1.00, 27.4, 5.0)">r</text><text xml:space="preserve" font-family="Helvetica" font-size="17.0" fill="#333333" transform="matrix(1.00, 0.00, -0.00, -1.00, 33.1, 5.0)">d</text><text xml:space="preserve" font-family="Helvetica" font-size="17.0" fill="#333333" transform="matrix(1.00, 0.00, -0.00, -1.00, 42.5, 5.0)">s</text><text xml:space="preserve" font-family="Helvetica" font-size="17.0" fill="#333333" transform="matrix(1.00, 0.00, -0.00, -1.00, 51.0, 5.0)">,</text><text xml:space="preserve" font-family="Helvetica" font-size="17.0" fill="#333333" transform="matrix(1.00, 0.00, -0.00, -1.00, 55.7, 5.0)"> </text><text xml:space="preserve" font-family="Helvetica" font-size="17.0" fill="#333333" transform="matrix(1.00, 0.00, -0.00, -1.00, 60.5, 5.0)">h</text><text xml:space="preserve" font-family="Helvetica" font-size="17.0" fill="#333333" transform="matrix(1.00, 0.00, -0.00, -1.00, 69.9, 5.0)">a</text><text xml:space="preserve" font-family="Helvetica" font-size="17.0" fill="#333333" transform="matrix(1.00, 0.00, -0.00, -1.00, 79.4, 5.0)">s</text><text xml:space="preserve" font-family="Helvetica" font-size="17.0" fill="#333333" transform="matrix(1.00, 0.00, -0.00, -1.00, 87.9, 5.0)">h</text><text xml:space="preserve" font-family="Helvetica" font-size="17.0" fill="#333333" transform="matrix(1.00, 0.00, -0.00, -1.00, 97.3, 5.0)">t</text><text xml:space="preserve" font-family="Helvetica" font-size="17.0" fill="#333333" transform="matrix(1.00, 0.00, -0.00, -1.00, 102.1, 5.0)">a</text><text xml:space="preserve" font-family="Helvetica" font-size="17.0" fill="#333333" transform="matrix(1.00, 0.00, -0.00, -1.00, 111.5, 5.0)">g</text><text xml:space="preserve" font-family="Helvetica" font-size="17.0" fill="#333333" transform="matrix(1.00, 0.00, -0.00, -1.00, 121.0, 5.0)">s</text><text xml:space="preserve" font-family="Helvetica" font-size="17.0" fill="#333333" transform="matrix(1.00, 0.00, -0.00, -1.00, 129.5, 5.0)">,</text><text xml:space="preserve" font-family="Helvetica" font-size="17.0" fill="#333333" transform="matrix(1.00, 0.00, -0.00, -1.00, 134.2, 5.0)"> </text><text xml:space="preserve" font-family="Helvetica" font-size="17.0" fill="#333333" transform="matrix(1.00, 0.00, -0.00, -1.00, 138.9, 5.0)">e</text><text xml:space="preserve" font-family="Helvetica" font-size="17.0" fill="#333333" transform="matrix(1.00, 0.00, -0.00, -1.00, 148.4, 5.0)">t</text><text xml:space="preserve" font-family="Helvetica" font-size="17.0" fill="#333333" transform="matrix(1.00, 0.00, -0.00, -1.00, 153.1, 5.0)">c</text><text xml:space="preserve" font-family="Helvetica" font-size="17.0" fill="#333333" transform="matrix(1.00, 0.00, -0.00, -1.00, 161.6, 5.0)">.</text><text xml:space="preserve" font-family="Helvetica" font-size="17.0" fill="#333333" transform="matrix(1.00, 0.00, -0.00, -1.00, 166.3, 5.0)">)</text><text xml:space="preserve" font-family="Helvetica" font-size="17.0" fill="#333333" transform="matrix(1.00, 0.00, -0.00, -1.00, 172.0, 5.0)"> </text><text xml:space="preserve" font-family="Helvetica" font-size="17.0" fill="#333333" transform="matrix(1.00, 0.00, -0.00, -1.00, 176.7, 5.0)">i</text><text xml:space="preserve" font-family="Helvetica" font-size="17.0" fill="#333333" transform="matrix(1.00, 0.00, -0.00, -1.00, 180.5, 5.0)">n</text><text xml:space="preserve" font-family="Helvetica" font-size="17.0" fill="#333333" transform="matrix(1.00, 0.00, -0.00, -1.00, 189.9, 5.0)">t</text><text xml:space="preserve" font-family="Helvetica" font-size="17.0" fill="#333333" transform="matrix(1.00, 0.00, -0.00, -1.00, 194.6, 5.0)">e</text><text xml:space="preserve" font-family="Helvetica" font-size="17.0" fill="#333333" transform="matrix(1.00, 0.00, -0.00, -1.00, 204.1, 5.0)">r</text><text xml:space="preserve" font-family="Helvetica" font-size="17.0" fill="#333333" transform="matrix(1.00, 0.00, -0.00, -1.00, 209.8, 5.0)">s</text><text xml:space="preserve" font-family="Helvetica" font-size="17.0" fill="#333333" transform="matrix(1.00, 0.00, -0.00, -1.00, 218.3, 5.0)">e</text><text xml:space="preserve" font-family="Helvetica" font-size="17.0" fill="#333333" transform="matrix(1.00, 0.00, -0.00, -1.00, 227.7, 5.0)">c</text><text xml:space="preserve" font-family="Helvetica" font-size="17.0" fill="#333333" transform="matrix(1.00, 0.00, -0.00, -1.00, 236.2, 5.0)">t</text><text xml:space="preserve" font-family="Helvetica" font-size="17.0" fill="#333333" transform="matrix(1.00, 0.00, -0.00, -1.00, 240.9, 5.0)"> </text><text xml:space="preserve" font-family="Helvetica" font-size="17.0" fill="#333333" transform="matrix(1.00, 0.00, -0.00, -1.00, 245.7, 5.0)">i</text><text xml:space="preserve" font-family="Helvetica" font-size="17.0" fill="#333333" transform="matrix(1.00, 0.00, -0.00, -1.00, 249.4, 5.0)">n</text><text xml:space="preserve" font-family="Helvetica" font-size="17.0" fill="#333333" transform="matrix(1.00, 0.00, -0.00, -1.00, 258.9, 5.0)"> </text><text xml:space="preserve" font-family="Helvetica" font-size="17.0" fill="#333333" transform="matrix(1.00, 0.00, -0.00, -1.00, 263.6, 5.0)">p</text><text xml:space="preserve" font-family="Helvetica" font-size="17.0" fill="#333333" transform="matrix(1.00, 0.00, -0.00, -1.00, 273.1, 5.0)">o</text><text xml:space="preserve" font-family="Helvetica" font-size="17.0" fill="#333333" transform="matrix(1.00, 0.00, -0.00, -1.00, 282.5, 5.0)">t</text><text xml:space="preserve" font-family="Helvetica" font-size="17.0" fill="#333333" transform="matrix(1.00, 0.00, -0.00, -1.00, 287.3, 5.0)">e</text><text xml:space="preserve" font-family="Helvetica" font-size="17.0" fill="#333333" transform="matrix(1.00, 0.00, -0.00, -1.00, 296.7, 5.0)">n</text><text xml:space="preserve" font-family="Helvetica" font-size="17.0" fill="#333333" transform="matrix(1.00, 0.00, -0.00, -1.00, 306.2, 5.0)">t</text><text xml:space="preserve" font-family="Helvetica" font-size="17.0" fill="#333333" transform="matrix(1.00, 0.00, -0.00, -1.00, 310.9, 5.0)">i</text><text xml:space="preserve" font-family="Helvetica" font-size="17.0" fill="#333333" transform="matrix(1.00, 0.00, -0.00, -1.00, 314.7, 5.0)">a</text><text xml:space="preserve" font-family="Helvetica" font-size="17.0" fill="#333333" transform="matrix(1.00, 0.00, -0.00, -1.00, 324.1, 5.0)">l</text><text xml:space="preserve" font-family="Helvetica" font-size="17.0" fill="#333333" transform="matrix(1.00, 0.00, -0.00, -1.00, 327.9, 5.0)">l</text><text xml:space="preserve" font-family="Helvetica" font-size="17.0" fill="#333333" transform="matrix(1.00, 0.00, -0.00, -1.00, 331.7, 5.0)">y</text><text xml:space="preserve" font-family="Helvetica" font-size="17.0" fill="#333333" transform="matrix(1.00, 0.00, -0.00, -1.00, 340.2, 5.0)"> </text><text xml:space="preserve" font-family="Helvetica" font-size="17.0" fill="#333333" transform="matrix(1.00, 0.00, -0.00, -1.00, 344.9, 5.0)">i</text><text xml:space="preserve" font-family="Helvetica" font-size="17.0" fill="#333333" transform="matrix(1.00, 0.00, -0.00, -1.00, 348.7, 5.0)">n</text><text xml:space="preserve" font-family="Helvetica" font-size="17.0" fill="#333333" transform="matrix(1.00, 0.00, -0.00, -1.00, 358.1, 5.0)">t</text><text xml:space="preserve" font-family="Helvetica" font-size="17.0" fill="#333333" transform="matrix(1.00, 0.00, -0.00, -1.00, 362.9, 5.0)">e</text><text xml:space="preserve" font-family="Helvetica" font-size="17.0" fill="#333333" transform="matrix(1.00, 0.00, -0.00, -1.00, 372.3, 5.0)">r</text><text xml:space="preserve" font-family="Helvetica" font-size="17.0" fill="#333333" transform="matrix(1.00, 0.00, -0.00, -1.00, 378.0, 5.0)">e</text><text xml:space="preserve" font-family="Helvetica" font-size="17.0" fill="#333333" transform="matrix(1.00, 0.00, -0.00, -1.00, 387.4, 5.0)">s</text><text xml:space="preserve" font-family="Helvetica" font-size="17.0" fill="#333333" transform="matrix(1.00, 0.00, -0.00, -1.00, 395.9, 5.0)">t</text><text xml:space="preserve" font-family="Helvetica" font-size="17.0" fill="#333333" transform="matrix(1.00, 0.00, -0.00, -1.00, 400.7, 5.0)">i</text><text xml:space="preserve" font-family="Helvetica" font-size="17.0" fill="#333333" transform="matrix(1.00, 0.00, -0.00, -1.00, 404.4, 5.0)">n</text><text xml:space="preserve" font-family="Helvetica" font-size="17.0" fill="#333333" transform="matrix(1.00, 0.00, -0.00, -1.00, 413.9, 5.0)">g</text></g></svg>