<?xml version="1.0" encoding="UTF-8" standalone="no"?><svg xmlns="http://www.w3.org/2000/svg" xmlns:xlink="http://www.w3.org/1999/xlink" clip-rule="evenodd" stroke-miterlimit="4.00" viewBox="0 0 466 20"><desc>SVG generated by Keynote</desc><defs></defs><g transform="matrix(1.00, 0.00, -0.00, -1.00, 0.0, 20.0)"><text xml:space="preserve" font-family="Helvetica" font-size="17.0" fill="#333333" transform="matrix(1.00, 0.00, -0.00, -1.00, 0.0, 5.0)">R</text><text xml:space="preserve" font-family="Helvetica" font-size="17.0" fill="#333333" transform="matrix(1.00, 0.00, -0.00, -1.00, 12.3, 5.0)">e</text><text xml:space="preserve" font-family="Helvetica" font-size="17.0" fill="#333333" transform="matrix(1.00, 0.00, -0.00, -1.00, 21.7, 5.0)">s</text><text xml:space="preserve" font-family="Helvetica" font-size="17.0" fill="#333333" transform="matrix(1.00, 0.00, -0.00, -1.00, 30.2, 5.0)">e</text><text xml:space="preserve" font-family="Helvetica" font-size="17.0" fill="#333333" transform="matrix(1.00, 0.00, -0.00, -1.00, 39.7, 5.0)">a</text><text xml:space="preserve" font-family="Helvetica" font-size="17.0" fill="#333333" transform="matrix(1.00, 0.00, -0.00, -1.00, 49.2, 5.0)">r</text><text xml:space="preserve" font-family="Helvetica" font-size="17.0" fill="#333333" transform="matrix(1.00, 0.00, -0.00, -1.00, 54.8, 5.0)">c</text><text xml:space="preserve" font-family="Helvetica" font-size="17.0" fill="#333333" transform="matrix(1.00, 0.00, -0.00, -1.00, 63.3, 5.0)">h</text><text xml:space="preserve" font-family="Helvetica" font-size="17.0" fill="#333333" transform="matrix(1.00, 0.00, -0.00, -1.00, 72.8, 5.0)">e</text><text xml:space="preserve" font-family="Helvetica" font-size="17.0" fill="#333333" transform="matrix(1.00, 0.00, -0.00, -1.00, 82.2, 5.0)">r</text><text xml:space="preserve" font-family="Helvetica" font-size="17.0" fill="#333333" transform="matrix(1.00, 0.00, -0.00, -1.00, 87.9, 5.0)">s</text><text xml:space="preserve" font-family="Helvetica" font-size="17.0" fill="#333333" transform="matrix(1.00, 0.00, -0.00, -1.00, 96.4, 5.0)"> </text><text xml:space="preserve" font-family="Helvetica" font-size="17.0" fill="#333333" transform="matrix(1.00, 0.00, -0.00, -1.00, 101.1, 5.0)">m</text><text xml:space="preserve" font-family="Helvetica" font-size="17.0" fill="#333333" transform="matrix(1.00, 0.00, -0.00, -1.00, 115.3, 5.0)">a</text><text xml:space="preserve" font-family="Helvetica" font-size="17.0" fill="#333333" transform="matrix(1.00, 0.00, -0.00, -1.00, 124.7, 5.0)">y</text><text xml:space="preserve" font-family="Helvetica" font-size="17.0" fill="#333333" transform="matrix(1.00, 0.00, -0.00, -1.00, 133.2, 5.0)"> </text><text xml:space="preserve" font-family="Helvetica" font-size="17.0" fill="#333333" transform="matrix(1.00, 0.00, -0.00, -1.00, 138.0, 5.0)">d</text><text xml:space="preserve" font-family="Helvetica" font-size="17.0" fill="#333333" transform="matrix(1.00, 0.00, -0.00, -1.00, 147.4, 5.0)">r</text><text xml:space="preserve" font-family="Helvetica" font-size="17.0" fill="#333333" transform="matrix(1.00, 0.00, -0.00, -1.00, 153.1, 5.0)">a</text><text xml:space="preserve" font-family="Helvetica" font-size="17.0" fill="#333333" transform="matrix(1.00, 0.00, -0.00, -1.00, 162.5, 5.0)">w</text><text xml:space="preserve" font-family="Helvetica" font-size="17.0" fill="#333333" transform="matrix(1.00, 0.00, -0.00, -1.00, 174.8, 5.0)"> </text><text xml:space="preserve" font-family="Helvetica" font-size="17.0" fill="#333333" transform="matrix(1.00, 0.00, -0.00, -1.00, 179.5, 5.0)">i</text><text xml:space="preserve" font-family="Helvetica" font-size="17.0" fill="#333333" transform="matrix(1.00, 0.00, -0.00, -1.00, 183.3, 5.0)">n</text><text xml:space="preserve" font-family="Helvetica" font-size="17.0" fill="#333333" transform="matrix(1.00, 0.00, -0.00, -1.00, 192.8, 5.0)">s</text><text xml:space="preserve" font-family="Helvetica" font-size="17.0" fill="#333333" transform="matrix(1.00, 0.00, -0.00, -1.00, 201.3, 5.0)">i</text><text xml:space="preserve" font-family="Helvetica" font-size="17.0" fill="#333333" transform="matrix(1.00, 0.00, -0.00, -1.00, 205.0, 5.0)">g</text><text xml:space="preserve" font-family="Helvetica" font-size="17.0" fill="#333333" transform="matrix(1.00, 0.00, -0.00, -1.00, 214.5, 5.0)">h</text><text xml:space="preserve" font-family="Helvetica" font-size="17.0" fill="#333333" transform="matrix(1.00, 0.00, -0.00, -1.00, 224.0, 5.0)">t</text><text xml:space="preserve" font-family="Helvetica" font-size="17.0" fill="#333333" transform="matrix(1.00, 0.00, -0.00, -1.00, 228.7, 5.0)">s</text><text xml:space="preserve" font-family="Helvetica" font-size="17.0" fill="#333333" transform="matrix(1.00, 0.00, -0.00, -1.00, 237.2, 5.0)"> </text><text xml:space="preserve" font-family="Helvetica" font-size="17.0" fill="#333333" transform="matrix(1.00, 0.00, -0.00, -1.00, 241.9, 5.0)">f</text><text xml:space="preserve" font-family="Helvetica" font-size="17.0" fill="#333333" transform="matrix(1.00, 0.00, -0.00, -1.00, 246.6, 5.0)">r</text><text xml:space="preserve" font-family="Helvetica" font-size="17.0" fill="#333333" transform="matrix(1.00, 0.00, -0.00, -1.00, 252.3, 5.0)">o</text><text xml:space="preserve" font-family="Helvetica" font-size="17.0" fill="#333333" transform="matrix(1.00, 0.00, -0.00, -1.00, 261.7, 5.0)">m</text><text xml:space="preserve" font-family="Helvetica" font-size="17.0" fill="#333333" transform="matrix(1.00, 0.00, -0.00, -1.00, 275.9, 5.0)"> </text><text xml:space="preserve" font-family="Helvetica" font-size="17.0" fill="#333333" transform="matrix(1.00, 0.00, -0.00, -1.00, 280.6, 5.0)">t</text><text xml:space="preserve" font-family="Helvetica" font-size="17.0" fill="#333333" transform="matrix(1.00, 0.00, -0.00, -1.00, 285.3, 5.0)">h</text><text xml:space="preserve" font-family="Helvetica" font-size="17.0" fill="#333333" transform="matrix(1.00, 0.00, -0.00, -1.00, 294.8, 5.0)">e</text><text xml:space="preserve" font-family="Helvetica" font-size="17.0" fill="#333333" transform="matrix(1.00, 0.00, -0.00, -1.00, 304.3, 5.0)"> </text><text xml:space="preserve" font-family="Helvetica" font-size="17.0" fill="#333333" transform="matrix(1.00, 0.00, -0.00, -1.00, 309.0, 5.0)">e</text><text xml:space="preserve" font-family="Helvetica" font-size="17.0" fill="#333333" transform="matrix(1.00, 0.00, -0.00, -1.00, 318.4, 5.0)">x</text><text xml:space="preserve" font-family="Helvetica" font-size="17.0" fill="#333333" transform="matrix(1.00, 0.00, -0.00, -1.00, 326.9, 5.0)">p</text><text xml:space="preserve" font-family="Helvetica" font-size="17.0" fill="#333333" transform="matrix(1.00, 0.00, -0.00, -1.00, 336.4, 5.0)">l</text><text xml:space="preserve" font-family="Helvetica" font-size="17.0" fill="#333333" transform="matrix(1.00, 0.00, -0.00, -1.00, 340.2, 5.0)">o</text><text xml:space="preserve" font-family="Helvetica" font-size="17.0" fill="#333333" transform="matrix(1.00, 0.00, -0.00, -1.00, 349.6, 5.0)">r</text><text xml:space="preserve" font-family="Helvetica" font-size="17.0" fill="#333333" transform="matrix(1.00, 0.00, -0.00, -1.00, 355.3, 5.0)">a</text><text xml:space="preserve" font-family="Helvetica" font-size="17.0" fill="#333333" transform="matrix(1.00, 0.00, -0.00, -1.00, 364.8, 5.0)">t</text><text xml:space="preserve" font-family="Helvetica" font-size="17.0" fill="#333333" transform="matrix(1.00, 0.00, -0.00, -1.00, 369.5, 5.0)">i</text><text xml:space="preserve" font-family="Helvetica" font-size="17.0" fill="#333333" transform="matrix(1.00, 0.00, -0.00, -1.00, 373.3, 5.0)">o</text><text xml:space="preserve" font-family="Helvetica" font-size="17.0" fill="#333333" transform="matrix(1.00, 0.00, -0.00, -1.00, 382.7, 5.0)">n</text><text xml:space="preserve" font-family="Helvetica" font-size="17.0" fill="#333333" transform="matrix(1.00, 0.00, -0.00, -1.00, 392.2, 5.0)"> </text><text xml:space="preserve" font-family="Helvetica" font-size="17.0" fill="#333333" transform="matrix(1.00, 0.00, -0.00, -1.00, 396.9, 5.0)">o</text><text xml:space="preserve" font-family="Helvetica" font-size="17.0" fill="#333333" transform="matrix(1.00, 0.00, -0.00, -1.00, 406.3, 5.0)">f</text><text xml:space="preserve" font-family="Helvetica" font-size="17.0" fill="#333333" transform="matrix(1.00, 0.00, -0.00, -1.00, 411.1, 5.0)"> </text><text xml:space="preserve" font-family="Helvetica" font-size="17.0" fill="#333333" transform="matrix(1.00, 0.00, -0.00, -1.00, 415.8, 5.0)">t</text><text xml:space="preserve" font-family="Helvetica" font-size="17.0" fill="#333333" transform="matrix(1.00, 0.00, -0.00, -1.00, 420.5, 5.0)">o</text><text xml:space="preserve" font-family="Helvetica" font-size="17.0" fill="#333333" transform="matrix(1.00, 0.00, -0.00, -1.00, 430.0, 5.0)">p</text><text xml:space="preserve" font-family="Helvetica" font-size="17.0" fill="#333333" transform="matrix(1.00, 0.00, -0.00, -1.00, 439.4, 5.0)">i</text><text xml:space="preserve" font-family="Helvetica" font-size="17.0" fill="#333333" transform="matrix(1.00, 0.00, -0.00, -1.00, 443.2, 5.0)">c</text><text xml:space="preserve" font-family="Helvetica" font-size="17.0" fill="#333333" transform="matrix(1.00, 0.00, -0.00, -1.00, 451.7, 5.0)">a</text><text xml:space="preserve" font-family="Helvetica" font-size="17.0" fill="#333333" transform="matrix(1.00, 0.00, -0.00, -1.00, 461.2, 5.0)">l</text></g></svg>