<?xml version="1.0" encoding="UTF-8" standalone="no"?><svg xmlns="http://www.w3.org/2000/svg" xmlns:xlink="http://www.w3.org/1999/xlink" clip-rule="evenodd" stroke-miterlimit="4.00" viewBox="0 0 270 45"><desc>SVG generated by Keynote</desc><defs></defs><g transform="matrix(1.00, 0.00, -0.00, -1.00, 0.0, 45.0)"><path d="M 10.9 42.5 L 259.1 42.5 C 261.6 42.5 262.8 42.5 264.2 42.1 C 265.6 41.6 266.7 40.4 267.3 39.0 C 267.7 37.7 267.7 36.4 267.7 33.9 L 267.7 10.0 C 267.7 7.6 267.7 6.4 267.3 5.0 C 266.7 3.6 265.6 2.4 264.2 1.9 C 262.8 1.5 261.6 1.5 259.1 1.5 L 10.9 1.5 C 8.5 1.5 7.2 1.5 5.9 1.9 C 4.5 2.4 3.3 3.6 2.8 5.0 C 2.4 6.4 2.4 7.6 2.4 10.1 L 2.4 34.0 C 2.4 36.4 2.4 37.7 2.8 39.0 C 3.3 40.4 4.5 41.6 5.9 42.1 C 7.2 42.5 8.5 42.5 11.0 42.5 Z M 10.9 42.5 " fill="#ED661B"></path><path d="M 8.5 0.0 L 256.8 0.0 C 259.2 0.0 260.4 0.0 261.8 0.4 C 263.2 0.9 264.4 2.1 264.9 3.5 C 265.3 4.9 265.3 6.1 265.3 8.6 L 265.3 32.5 C 265.3 34.9 265.3 36.1 264.9 37.5 C 264.4 38.9 263.2 40.1 261.8 40.6 C 260.4 41.0 259.2 41.0 256.7 41.0 L 8.5 41.0 C 6.1 41.0 4.9 41.0 3.5 40.6 C 2.1 40.1 0.9 38.9 0.4 37.5 C 0.0 36.1 0.0 34.9 0.0 32.4 L 0.0 8.5 C 0.0 6.1 0.0 4.9 0.4 3.5 C 0.9 2.1 2.1 0.9 3.5 0.4 C 4.9 0.0 6.1 0.0 8.6 0.0 Z M 8.5 0.0 " fill="none" stroke="#ED661B" stroke-width="1.10" transform="matrix(1.00, 0.00, 0.00, -1.00, 2.4, 42.5)"></path></g></svg>