<?xml version="1.0" encoding="UTF-8" standalone="no"?><svg xmlns="http://www.w3.org/2000/svg" xmlns:xlink="http://www.w3.org/1999/xlink" clip-rule="evenodd" stroke-miterlimit="4.00" viewBox="0 0 253 18"><desc>SVG generated by Keynote</desc><defs></defs><g transform="matrix(1.00, 0.00, -0.00, -1.00, 0.0, 18.0)"><text xml:space="preserve" font-family="Helvetica" font-size="15.0" fill="#8E8E8E" transform="matrix(1.00, 0.00, -0.00, -1.00, 2.0, 5.0)">C</text><text xml:space="preserve" font-family="Helvetica" font-size="15.0" fill="#8E8E8E" transform="matrix(1.00, 0.00, -0.00, -1.00, 12.8, 5.0)">h</text><text xml:space="preserve" font-family="Helvetica" font-size="15.0" fill="#8E8E8E" transform="matrix(1.00, 0.00, -0.00, -1.00, 21.2, 5.0)">o</text><text xml:space="preserve" font-family="Helvetica" font-size="15.0" fill="#8E8E8E" transform="matrix(1.00, 0.00, -0.00, -1.00, 29.5, 5.0)">r</text><text xml:space="preserve" font-family="Helvetica" font-size="15.0" fill="#8E8E8E" transform="matrix(1.00, 0.00, -0.00, -1.00, 34.5, 5.0)">u</text><text xml:space="preserve" font-family="Helvetica" font-size="15.0" fill="#8E8E8E" transform="matrix(1.00, 0.00, -0.00, -1.00, 42.9, 5.0)">s</text><text xml:space="preserve" font-family="Helvetica" font-size="15.0" fill="#8E8E8E" transform="matrix(1.00, 0.00, -0.00, -1.00, 50.4, 5.0)"> </text><text xml:space="preserve" font-family="Helvetica" font-size="15.0" fill="#8E8E8E" transform="matrix(1.00, 0.00, -0.00, -1.00, 54.5, 5.0)">r</text><text xml:space="preserve" font-family="Helvetica" font-size="15.0" fill="#8E8E8E" transform="matrix(1.00, 0.00, -0.00, -1.00, 59.5, 5.0)">u</text><text xml:space="preserve" font-family="Helvetica" font-size="15.0" fill="#8E8E8E" transform="matrix(1.00, 0.00, -0.00, -1.00, 67.9, 5.0)">n</text><text xml:space="preserve" font-family="Helvetica" font-size="15.0" fill="#8E8E8E" transform="matrix(1.00, 0.00, -0.00, -1.00, 76.2, 5.0)">n</text><text xml:space="preserve" font-family="Helvetica" font-size="15.0" fill="#8E8E8E" transform="matrix(1.00, 0.00, -0.00, -1.00, 84.6, 5.0)">i</text><text xml:space="preserve" font-family="Helvetica" font-size="15.0" fill="#8E8E8E" transform="matrix(1.00, 0.00, -0.00, -1.00, 87.9, 5.0)">n</text><text xml:space="preserve" font-family="Helvetica" font-size="15.0" fill="#8E8E8E" transform="matrix(1.00, 0.00, -0.00, -1.00, 96.2, 5.0)">g</text><text xml:space="preserve" font-family="Helvetica" font-size="15.0" fill="#8E8E8E" transform="matrix(1.00, 0.00, -0.00, -1.00, 104.6, 5.0)"> </text><text xml:space="preserve" font-family="Helvetica" font-size="15.0" fill="#8E8E8E" transform="matrix(1.00, 0.00, -0.00, -1.00, 108.8, 5.0)">s</text><text xml:space="preserve" font-family="Helvetica" font-size="15.0" fill="#8E8E8E" transform="matrix(1.00, 0.00, -0.00, -1.00, 116.3, 5.0)">e</text><text xml:space="preserve" font-family="Helvetica" font-size="15.0" fill="#8E8E8E" transform="matrix(1.00, 0.00, -0.00, -1.00, 124.6, 5.0)">n</text><text xml:space="preserve" font-family="Helvetica" font-size="15.0" fill="#8E8E8E" transform="matrix(1.00, 0.00, -0.00, -1.00, 132.9, 5.0)">t</text><text xml:space="preserve" font-family="Helvetica" font-size="15.0" fill="#8E8E8E" transform="matrix(1.00, 0.00, -0.00, -1.00, 137.1, 5.0)">i</text><text xml:space="preserve" font-family="Helvetica" font-size="15.0" fill="#8E8E8E" transform="matrix(1.00, 0.00, -0.00, -1.00, 140.4, 5.0)">m</text><text xml:space="preserve" font-family="Helvetica" font-size="15.0" fill="#8E8E8E" transform="matrix(1.00, 0.00, -0.00, -1.00, 152.9, 5.0)">e</text><text xml:space="preserve" font-family="Helvetica" font-size="15.0" fill="#8E8E8E" transform="matrix(1.00, 0.00, -0.00, -1.00, 161.3, 5.0)">n</text><text xml:space="preserve" font-family="Helvetica" font-size="15.0" fill="#8E8E8E" transform="matrix(1.00, 0.00, -0.00, -1.00, 169.6, 5.0)">t</text><text xml:space="preserve" font-family="Helvetica" font-size="15.0" fill="#8E8E8E" transform="matrix(1.00, 0.00, -0.00, -1.00, 173.8, 5.0)"> </text><text xml:space="preserve" font-family="Helvetica" font-size="15.0" fill="#8E8E8E" transform="matrix(1.00, 0.00, -0.00, -1.00, 178.0, 5.0)">a</text><text xml:space="preserve" font-family="Helvetica" font-size="15.0" fill="#8E8E8E" transform="matrix(1.00, 0.00, -0.00, -1.00, 186.3, 5.0)">n</text><text xml:space="preserve" font-family="Helvetica" font-size="15.0" fill="#8E8E8E" transform="matrix(1.00, 0.00, -0.00, -1.00, 194.6, 5.0)">a</text><text xml:space="preserve" font-family="Helvetica" font-size="15.0" fill="#8E8E8E" transform="matrix(1.00, 0.00, -0.00, -1.00, 203.0, 5.0)">l</text><text xml:space="preserve" font-family="Helvetica" font-size="15.0" fill="#8E8E8E" transform="matrix(1.00, 0.00, -0.00, -1.00, 206.3, 5.0)">y</text><text xml:space="preserve" font-family="Helvetica" font-size="15.0" fill="#8E8E8E" transform="matrix(1.00, 0.00, -0.00, -1.00, 213.8, 5.0)">s</text><text xml:space="preserve" font-family="Helvetica" font-size="15.0" fill="#8E8E8E" transform="matrix(1.00, 0.00, -0.00, -1.00, 221.3, 5.0)">i</text><text xml:space="preserve" font-family="Helvetica" font-size="15.0" fill="#8E8E8E" transform="matrix(1.00, 0.00, -0.00, -1.00, 224.7, 5.0)">s</text><text xml:space="preserve" font-family="Helvetica" font-size="15.0" fill="#8E8E8E" transform="matrix(1.00, 0.00, -0.00, -1.00, 232.2, 5.0)"> </text><text xml:space="preserve" font-family="Helvetica" font-size="15.0" fill="#8E8E8E" transform="matrix(1.00, 0.00, -0.00, -1.00, 236.3, 5.0)">o</text><text xml:space="preserve" font-family="Helvetica" font-size="15.0" fill="#8E8E8E" transform="matrix(1.00, 0.00, -0.00, -1.00, 244.7, 5.0)">n</text></g></svg>