<?xml version="1.0" encoding="UTF-8" standalone="no"?><svg xmlns="http://www.w3.org/2000/svg" xmlns:xlink="http://www.w3.org/1999/xlink" clip-rule="evenodd" stroke-miterlimit="4.00" viewBox="0 0 383 20"><desc>SVG generated by Keynote</desc><defs></defs><g transform="matrix(1.00, 0.00, -0.00, -1.00, 0.0, 20.0)"><text xml:space="preserve" font-family="Helvetica" font-size="17.0" fill="#333333" transform="matrix(1.00, 0.00, -0.00, -1.00, 1.0, 5.0)">e</text><text xml:space="preserve" font-family="Helvetica" font-size="17.0" fill="#333333" transform="matrix(1.00, 0.00, -0.00, -1.00, 10.5, 5.0)">x</text><text xml:space="preserve" font-family="Helvetica" font-size="17.0" fill="#333333" transform="matrix(1.00, 0.00, -0.00, -1.00, 19.0, 5.0)">p</text><text xml:space="preserve" font-family="Helvetica" font-size="17.0" fill="#333333" transform="matrix(1.00, 0.00, -0.00, -1.00, 28.4, 5.0)">l</text><text xml:space="preserve" font-family="Helvetica" font-size="17.0" fill="#333333" transform="matrix(1.00, 0.00, -0.00, -1.00, 32.2, 5.0)">o</text><text xml:space="preserve" font-family="Helvetica" font-size="17.0" fill="#333333" transform="matrix(1.00, 0.00, -0.00, -1.00, 41.7, 5.0)">r</text><text xml:space="preserve" font-family="Helvetica" font-size="17.0" fill="#333333" transform="matrix(1.00, 0.00, -0.00, -1.00, 47.3, 5.0)">a</text><text xml:space="preserve" font-family="Helvetica" font-size="17.0" fill="#333333" transform="matrix(1.00, 0.00, -0.00, -1.00, 56.8, 5.0)">t</text><text xml:space="preserve" font-family="Helvetica" font-size="17.0" fill="#333333" transform="matrix(1.00, 0.00, -0.00, -1.00, 61.5, 5.0)">i</text><text xml:space="preserve" font-family="Helvetica" font-size="17.0" fill="#333333" transform="matrix(1.00, 0.00, -0.00, -1.00, 65.3, 5.0)">o</text><text xml:space="preserve" font-family="Helvetica" font-size="17.0" fill="#333333" transform="matrix(1.00, 0.00, -0.00, -1.00, 74.7, 5.0)">n</text><text xml:space="preserve" font-family="Helvetica" font-size="17.0" fill="#333333" transform="matrix(1.00, 0.00, -0.00, -1.00, 84.2, 5.0)"> </text><text xml:space="preserve" font-family="Helvetica" font-size="17.0" fill="#333333" transform="matrix(1.00, 0.00, -0.00, -1.00, 88.9, 5.0)">o</text><text xml:space="preserve" font-family="Helvetica" font-size="17.0" fill="#333333" transform="matrix(1.00, 0.00, -0.00, -1.00, 98.4, 5.0)">f</text><text xml:space="preserve" font-family="Helvetica" font-size="17.0" fill="#333333" transform="matrix(1.00, 0.00, -0.00, -1.00, 103.1, 5.0)"> </text><text xml:space="preserve" font-family="Helvetica" font-size="17.0" fill="#333333" transform="matrix(1.00, 0.00, -0.00, -1.00, 107.8, 5.0)">‘</text><text xml:space="preserve" font-family="Helvetica" font-size="17.0" fill="#333333" transform="matrix(1.00, 0.00, -0.00, -1.00, 111.6, 5.0)">e</text><text xml:space="preserve" font-family="Helvetica" font-size="17.0" fill="#333333" transform="matrix(1.00, 0.00, -0.00, -1.00, 121.0, 5.0)">v</text><text xml:space="preserve" font-family="Helvetica" font-size="17.0" fill="#333333" transform="matrix(1.00, 0.00, -0.00, -1.00, 129.5, 5.0)">e</text><text xml:space="preserve" font-family="Helvetica" font-size="17.0" fill="#333333" transform="matrix(1.00, 0.00, -0.00, -1.00, 139.0, 5.0)">n</text><text xml:space="preserve" font-family="Helvetica" font-size="17.0" fill="#333333" transform="matrix(1.00, 0.00, -0.00, -1.00, 148.5, 5.0)">t</text><text xml:space="preserve" font-family="Helvetica" font-size="17.0" fill="#333333" transform="matrix(1.00, 0.00, -0.00, -1.00, 153.2, 5.0)">s</text><text xml:space="preserve" font-family="Helvetica" font-size="17.0" fill="#333333" transform="matrix(1.00, 0.00, -0.00, -1.00, 161.7, 5.0)">’</text><text xml:space="preserve" font-family="Helvetica" font-size="17.0" fill="#333333" transform="matrix(1.00, 0.00, -0.00, -1.00, 164.8, 5.0)"> </text><text xml:space="preserve" font-family="Helvetica" font-size="17.0" fill="#333333" transform="matrix(1.00, 0.00, -0.00, -1.00, 169.6, 5.0)">a</text><text xml:space="preserve" font-family="Helvetica" font-size="17.0" fill="#333333" transform="matrix(1.00, 0.00, -0.00, -1.00, 179.0, 5.0)">s</text><text xml:space="preserve" font-family="Helvetica" font-size="17.0" fill="#333333" transform="matrix(1.00, 0.00, -0.00, -1.00, 187.5, 5.0)"> </text><text xml:space="preserve" font-family="Helvetica" font-size="17.0" fill="#333333" transform="matrix(1.00, 0.00, -0.00, -1.00, 192.2, 5.0)">t</text><text xml:space="preserve" font-family="Helvetica" font-size="17.0" fill="#333333" transform="matrix(1.00, 0.00, -0.00, -1.00, 197.0, 5.0)">h</text><text xml:space="preserve" font-family="Helvetica" font-size="17.0" fill="#333333" transform="matrix(1.00, 0.00, -0.00, -1.00, 206.4, 5.0)">e</text><text xml:space="preserve" font-family="Helvetica" font-size="17.0" fill="#333333" transform="matrix(1.00, 0.00, -0.00, -1.00, 215.9, 5.0)">y</text><text xml:space="preserve" font-family="Helvetica" font-size="17.0" fill="#333333" transform="matrix(1.00, 0.00, -0.00, -1.00, 224.4, 5.0)"> </text><text xml:space="preserve" font-family="Helvetica" font-size="17.0" fill="#333333" transform="matrix(1.00, 0.00, -0.00, -1.00, 229.1, 5.0)">u</text><text xml:space="preserve" font-family="Helvetica" font-size="17.0" fill="#333333" transform="matrix(1.00, 0.00, -0.00, -1.00, 238.5, 5.0)">n</text><text xml:space="preserve" font-family="Helvetica" font-size="17.0" fill="#333333" transform="matrix(1.00, 0.00, -0.00, -1.00, 248.0, 5.0)">f</text><text xml:space="preserve" font-family="Helvetica" font-size="17.0" fill="#333333" transform="matrix(1.00, 0.00, -0.00, -1.00, 252.7, 5.0)">o</text><text xml:space="preserve" font-family="Helvetica" font-size="17.0" fill="#333333" transform="matrix(1.00, 0.00, -0.00, -1.00, 262.2, 5.0)">l</text><text xml:space="preserve" font-family="Helvetica" font-size="17.0" fill="#333333" transform="matrix(1.00, 0.00, -0.00, -1.00, 266.0, 5.0)">d</text><text xml:space="preserve" font-family="Helvetica" font-size="17.0" fill="#333333" transform="matrix(1.00, 0.00, -0.00, -1.00, 275.4, 5.0)"> </text><text xml:space="preserve" font-family="Helvetica" font-size="17.0" fill="#333333" transform="matrix(1.00, 0.00, -0.00, -1.00, 280.1, 5.0)">w</text><text xml:space="preserve" font-family="Helvetica" font-size="17.0" fill="#333333" transform="matrix(1.00, 0.00, -0.00, -1.00, 292.4, 5.0)">i</text><text xml:space="preserve" font-family="Helvetica" font-size="17.0" fill="#333333" transform="matrix(1.00, 0.00, -0.00, -1.00, 296.2, 5.0)">t</text><text xml:space="preserve" font-family="Helvetica" font-size="17.0" fill="#333333" transform="matrix(1.00, 0.00, -0.00, -1.00, 300.9, 5.0)">h</text><text xml:space="preserve" font-family="Helvetica" font-size="17.0" fill="#333333" transform="matrix(1.00, 0.00, -0.00, -1.00, 310.4, 5.0)">i</text><text xml:space="preserve" font-family="Helvetica" font-size="17.0" fill="#333333" transform="matrix(1.00, 0.00, -0.00, -1.00, 314.2, 5.0)">n</text><text xml:space="preserve" font-family="Helvetica" font-size="17.0" fill="#333333" transform="matrix(1.00, 0.00, -0.00, -1.00, 323.6, 5.0)"> </text><text xml:space="preserve" font-family="Helvetica" font-size="17.0" fill="#333333" transform="matrix(1.00, 0.00, -0.00, -1.00, 328.0, 5.0)">T</text><text xml:space="preserve" font-family="Helvetica" font-size="17.0" fill="#333333" transform="matrix(1.00, 0.00, -0.00, -1.00, 337.5, 5.0)">w</text><text xml:space="preserve" font-family="Helvetica" font-size="17.0" fill="#333333" transform="matrix(1.00, 0.00, -0.00, -1.00, 349.8, 5.0)">i</text><text xml:space="preserve" font-family="Helvetica" font-size="17.0" fill="#333333" transform="matrix(1.00, 0.00, -0.00, -1.00, 353.6, 5.0)">t</text><text xml:space="preserve" font-family="Helvetica" font-size="17.0" fill="#333333" transform="matrix(1.00, 0.00, -0.00, -1.00, 358.3, 5.0)">t</text><text xml:space="preserve" font-family="Helvetica" font-size="17.0" fill="#333333" transform="matrix(1.00, 0.00, -0.00, -1.00, 363.0, 5.0)">e</text><text xml:space="preserve" font-family="Helvetica" font-size="17.0" fill="#333333" transform="matrix(1.00, 0.00, -0.00, -1.00, 372.5, 5.0)">r</text><text xml:space="preserve" font-family="Helvetica" font-size="17.0" fill="#333333" transform="matrix(1.00, 0.00, -0.00, -1.00, 377.2, 5.0)">.</text></g></svg>