<?xml version="1.0" encoding="UTF-8" standalone="no"?><svg xmlns="http://www.w3.org/2000/svg" xmlns:xlink="http://www.w3.org/1999/xlink" clip-rule="evenodd" stroke-miterlimit="4.00" viewBox="0 0 459 20"><desc>SVG generated by Keynote</desc><defs></defs><g transform="matrix(1.00, 0.00, -0.00, -1.00, 0.0, 20.0)"><text xml:space="preserve" font-family="Helvetica" font-size="12.8" fill="#2E3E8B" transform="matrix(1.00, 0.00, -0.00, -1.00, 0.1, 6.4)">•</text><text xml:space="preserve" font-family="Helvetica" font-size="17.0" fill="#2E3E8B" transform="matrix(1.00, 0.00, -0.00, -1.00, 17.0, 5.0)">S</text><text xml:space="preserve" font-family="Helvetica" font-size="17.0" fill="#2E3E8B" transform="matrix(1.00, 0.00, -0.00, -1.00, 28.3, 5.0)">y</text><text xml:space="preserve" font-family="Helvetica" font-size="17.0" fill="#2E3E8B" transform="matrix(1.00, 0.00, -0.00, -1.00, 36.8, 5.0)">m</text><text xml:space="preserve" font-family="Helvetica" font-size="17.0" fill="#2E3E8B" transform="matrix(1.00, 0.00, -0.00, -1.00, 51.0, 5.0)">p</text><text xml:space="preserve" font-family="Helvetica" font-size="17.0" fill="#2E3E8B" transform="matrix(1.00, 0.00, -0.00, -1.00, 60.5, 5.0)">t</text><text xml:space="preserve" font-family="Helvetica" font-size="17.0" fill="#2E3E8B" transform="matrix(1.00, 0.00, -0.00, -1.00, 65.2, 5.0)">o</text><text xml:space="preserve" font-family="Helvetica" font-size="17.0" fill="#2E3E8B" transform="matrix(1.00, 0.00, -0.00, -1.00, 74.6, 5.0)">m</text><text xml:space="preserve" font-family="Helvetica" font-size="17.0" fill="#2E3E8B" transform="matrix(1.00, 0.00, -0.00, -1.00, 88.8, 5.0)"> </text><text xml:space="preserve" font-family="Helvetica" font-size="17.0" fill="#2E3E8B" transform="matrix(1.00, 0.00, -0.00, -1.00, 93.5, 5.0)">r</text><text xml:space="preserve" font-family="Helvetica" font-size="17.0" fill="#2E3E8B" transform="matrix(1.00, 0.00, -0.00, -1.00, 99.2, 5.0)">e</text><text xml:space="preserve" font-family="Helvetica" font-size="17.0" fill="#2E3E8B" transform="matrix(1.00, 0.00, -0.00, -1.00, 108.6, 5.0)">p</text><text xml:space="preserve" font-family="Helvetica" font-size="17.0" fill="#2E3E8B" transform="matrix(1.00, 0.00, -0.00, -1.00, 118.1, 5.0)">o</text><text xml:space="preserve" font-family="Helvetica" font-size="17.0" fill="#2E3E8B" transform="matrix(1.00, 0.00, -0.00, -1.00, 127.6, 5.0)">r</text><text xml:space="preserve" font-family="Helvetica" font-size="17.0" fill="#2E3E8B" transform="matrix(1.00, 0.00, -0.00, -1.00, 133.2, 5.0)">t</text><text xml:space="preserve" font-family="Helvetica" font-size="17.0" fill="#2E3E8B" transform="matrix(1.00, 0.00, -0.00, -1.00, 137.9, 5.0)">i</text><text xml:space="preserve" font-family="Helvetica" font-size="17.0" fill="#2E3E8B" transform="matrix(1.00, 0.00, -0.00, -1.00, 141.7, 5.0)">n</text><text xml:space="preserve" font-family="Helvetica" font-size="17.0" fill="#2E3E8B" transform="matrix(1.00, 0.00, -0.00, -1.00, 151.2, 5.0)">g</text><text xml:space="preserve" font-family="Helvetica" font-size="17.0" fill="#2E3E8B" transform="matrix(1.00, 0.00, -0.00, -1.00, 160.6, 5.0)"> </text><text xml:space="preserve" font-family="Helvetica" font-size="17.0" fill="#2E3E8B" transform="matrix(1.00, 0.00, -0.00, -1.00, 165.3, 5.0)">o</text><text xml:space="preserve" font-family="Helvetica" font-size="17.0" fill="#2E3E8B" transform="matrix(1.00, 0.00, -0.00, -1.00, 174.8, 5.0)">f</text><text xml:space="preserve" font-family="Helvetica" font-size="17.0" fill="#2E3E8B" transform="matrix(1.00, 0.00, -0.00, -1.00, 179.5, 5.0)"> </text><text xml:space="preserve" font-family="Helvetica" font-size="17.0" fill="#2E3E8B" transform="matrix(1.00, 0.00, -0.00, -1.00, 184.2, 5.0)">c</text><text xml:space="preserve" font-family="Helvetica" font-size="17.0" fill="#2E3E8B" transform="matrix(1.00, 0.00, -0.00, -1.00, 192.7, 5.0)">y</text><text xml:space="preserve" font-family="Helvetica" font-size="17.0" fill="#2E3E8B" transform="matrix(1.00, 0.00, -0.00, -1.00, 201.2, 5.0)">s</text><text xml:space="preserve" font-family="Helvetica" font-size="17.0" fill="#2E3E8B" transform="matrix(1.00, 0.00, -0.00, -1.00, 209.7, 5.0)">t</text><text xml:space="preserve" font-family="Helvetica" font-size="17.0" fill="#2E3E8B" transform="matrix(1.00, 0.00, -0.00, -1.00, 214.5, 5.0)">i</text><text xml:space="preserve" font-family="Helvetica" font-size="17.0" fill="#2E3E8B" transform="matrix(1.00, 0.00, -0.00, -1.00, 218.2, 5.0)">c</text><text xml:space="preserve" font-family="Helvetica" font-size="17.0" fill="#2E3E8B" transform="matrix(1.00, 0.00, -0.00, -1.00, 226.7, 5.0)"> </text><text xml:space="preserve" font-family="Helvetica" font-size="17.0" fill="#2E3E8B" transform="matrix(1.00, 0.00, -0.00, -1.00, 231.5, 5.0)">ﬁ</text><text xml:space="preserve" font-family="Helvetica" font-size="17.0" fill="#2E3E8B" transform="matrix(1.00, 0.00, -0.00, -1.00, 240.0, 5.0)">b</text><text xml:space="preserve" font-family="Helvetica" font-size="17.0" fill="#2E3E8B" transform="matrix(1.00, 0.00, -0.00, -1.00, 249.4, 5.0)">r</text><text xml:space="preserve" font-family="Helvetica" font-size="17.0" fill="#2E3E8B" transform="matrix(1.00, 0.00, -0.00, -1.00, 255.1, 5.0)">o</text><text xml:space="preserve" font-family="Helvetica" font-size="17.0" fill="#2E3E8B" transform="matrix(1.00, 0.00, -0.00, -1.00, 264.5, 5.0)">s</text><text xml:space="preserve" font-family="Helvetica" font-size="17.0" fill="#2E3E8B" transform="matrix(1.00, 0.00, -0.00, -1.00, 273.0, 5.0)">i</text><text xml:space="preserve" font-family="Helvetica" font-size="17.0" fill="#2E3E8B" transform="matrix(1.00, 0.00, -0.00, -1.00, 276.8, 5.0)">s</text><text xml:space="preserve" font-family="Helvetica" font-size="17.0" fill="#2E3E8B" transform="matrix(1.00, 0.00, -0.00, -1.00, 285.3, 5.0)"> </text><text xml:space="preserve" font-family="Helvetica" font-size="17.0" fill="#2E3E8B" transform="matrix(1.00, 0.00, -0.00, -1.00, 290.0, 5.0)">s</text><text xml:space="preserve" font-family="Helvetica" font-size="17.0" fill="#2E3E8B" transform="matrix(1.00, 0.00, -0.00, -1.00, 298.5, 5.0)">u</text><text xml:space="preserve" font-family="Helvetica" font-size="17.0" fill="#2E3E8B" transform="matrix(1.00, 0.00, -0.00, -1.00, 308.0, 5.0)">f</text><text xml:space="preserve" font-family="Helvetica" font-size="17.0" fill="#2E3E8B" transform="matrix(1.00, 0.00, -0.00, -1.00, 312.4, 5.0)">f</text><text xml:space="preserve" font-family="Helvetica" font-size="17.0" fill="#2E3E8B" transform="matrix(1.00, 0.00, -0.00, -1.00, 317.1, 5.0)">e</text><text xml:space="preserve" font-family="Helvetica" font-size="17.0" fill="#2E3E8B" transform="matrix(1.00, 0.00, -0.00, -1.00, 326.6, 5.0)">r</text><text xml:space="preserve" font-family="Helvetica" font-size="17.0" fill="#2E3E8B" transform="matrix(1.00, 0.00, -0.00, -1.00, 332.3, 5.0)">e</text><text xml:space="preserve" font-family="Helvetica" font-size="17.0" fill="#2E3E8B" transform="matrix(1.00, 0.00, -0.00, -1.00, 341.7, 5.0)">r</text><text xml:space="preserve" font-family="Helvetica" font-size="17.0" fill="#2E3E8B" transform="matrix(1.00, 0.00, -0.00, -1.00, 347.4, 5.0)">s</text><text xml:space="preserve" font-family="Helvetica" font-size="17.0" fill="#2E3E8B" transform="matrix(1.00, 0.00, -0.00, -1.00, 355.9, 5.0)"> </text><text xml:space="preserve" font-family="Helvetica" font-size="17.0" fill="#2E3E8B" transform="matrix(1.00, 0.00, -0.00, -1.00, 360.6, 5.0)">(</text><text xml:space="preserve" font-family="Helvetica" font-size="17.0" fill="#2E3E8B" transform="matrix(1.00, 0.00, -0.00, -1.00, 366.3, 5.0)">a</text><text xml:space="preserve" font-family="Helvetica" font-size="17.0" fill="#2E3E8B" transform="matrix(1.00, 0.00, -0.00, -1.00, 375.7, 5.0)">n</text><text xml:space="preserve" font-family="Helvetica" font-size="17.0" fill="#2E3E8B" transform="matrix(1.00, 0.00, -0.00, -1.00, 385.2, 5.0)">d</text><text xml:space="preserve" font-family="Helvetica" font-size="17.0" fill="#2E3E8B" transform="matrix(1.00, 0.00, -0.00, -1.00, 394.6, 5.0)"> </text><text xml:space="preserve" font-family="Helvetica" font-size="17.0" fill="#2E3E8B" transform="matrix(1.00, 0.00, -0.00, -1.00, 399.4, 5.0)">f</text><text xml:space="preserve" font-family="Helvetica" font-size="17.0" fill="#2E3E8B" transform="matrix(1.00, 0.00, -0.00, -1.00, 404.1, 5.0)">a</text><text xml:space="preserve" font-family="Helvetica" font-size="17.0" fill="#2E3E8B" transform="matrix(1.00, 0.00, -0.00, -1.00, 413.5, 5.0)">m</text><text xml:space="preserve" font-family="Helvetica" font-size="17.0" fill="#2E3E8B" transform="matrix(1.00, 0.00, -0.00, -1.00, 427.7, 5.0)">i</text><text xml:space="preserve" font-family="Helvetica" font-size="17.0" fill="#2E3E8B" transform="matrix(1.00, 0.00, -0.00, -1.00, 431.5, 5.0)">l</text><text xml:space="preserve" font-family="Helvetica" font-size="17.0" fill="#2E3E8B" transform="matrix(1.00, 0.00, -0.00, -1.00, 435.3, 5.0)">i</text><text xml:space="preserve" font-family="Helvetica" font-size="17.0" fill="#2E3E8B" transform="matrix(1.00, 0.00, -0.00, -1.00, 439.0, 5.0)">e</text><text xml:space="preserve" font-family="Helvetica" font-size="17.0" fill="#2E3E8B" transform="matrix(1.00, 0.00, -0.00, -1.00, 448.5, 5.0)">s</text></g></svg>