<?xml version="1.0" encoding="UTF-8" standalone="no"?><svg xmlns="http://www.w3.org/2000/svg" xmlns:xlink="http://www.w3.org/1999/xlink" clip-rule="evenodd" stroke-miterlimit="4.00" viewBox="0 0 159 24"><desc>SVG generated by Keynote</desc><defs></defs><g transform="matrix(1.00, 0.00, -0.00, -1.00, 0.0, 24.0)"><text xml:space="preserve" font-family="Helvetica" font-size="18.0" fill="#FEFFFF" transform="matrix(1.00, 0.00, -0.00, -1.00, 1.7, 5.9)">T</text><text xml:space="preserve" font-family="Helvetica" font-size="18.0" fill="#FEFFFF" transform="matrix(1.00, 0.00, -0.00, -1.00, 12.7, 5.9)">h</text><text xml:space="preserve" font-family="Helvetica" font-size="18.0" fill="#FEFFFF" transform="matrix(1.00, 0.00, -0.00, -1.00, 22.7, 5.9)">e</text><text xml:space="preserve" font-family="Helvetica" font-size="18.0" fill="#FEFFFF" transform="matrix(1.00, 0.00, -0.00, -1.00, 32.7, 5.9)"> </text><text xml:space="preserve" font-family="Helvetica" font-size="18.0" fill="#FEFFFF" transform="matrix(1.00, 0.00, -0.00, -1.00, 37.7, 5.9)">C</text><text xml:space="preserve" font-family="Helvetica" font-size="18.0" fill="#FEFFFF" transform="matrix(1.00, 0.00, -0.00, -1.00, 50.7, 5.9)">h</text><text xml:space="preserve" font-family="Helvetica" font-size="18.0" fill="#FEFFFF" transform="matrix(1.00, 0.00, -0.00, -1.00, 60.7, 5.9)">o</text><text xml:space="preserve" font-family="Helvetica" font-size="18.0" fill="#FEFFFF" transform="matrix(1.00, 0.00, -0.00, -1.00, 70.8, 5.9)">r</text><text xml:space="preserve" font-family="Helvetica" font-size="18.0" fill="#FEFFFF" transform="matrix(1.00, 0.00, -0.00, -1.00, 76.8, 5.9)">u</text><text xml:space="preserve" font-family="Helvetica" font-size="18.0" fill="#FEFFFF" transform="matrix(1.00, 0.00, -0.00, -1.00, 86.8, 5.9)">s</text><text xml:space="preserve" font-family="Helvetica" font-size="18.0" fill="#FEFFFF" transform="matrix(1.00, 0.00, -0.00, -1.00, 95.8, 5.9)"> </text><text xml:space="preserve" font-family="Helvetica" font-size="18.0" fill="#FEFFFF" transform="matrix(1.00, 0.00, -0.00, -1.00, 100.8, 5.9)">P</text><text xml:space="preserve" font-family="Helvetica" font-size="18.0" fill="#FEFFFF" transform="matrix(1.00, 0.00, -0.00, -1.00, 112.8, 5.9)">r</text><text xml:space="preserve" font-family="Helvetica" font-size="18.0" fill="#FEFFFF" transform="matrix(1.00, 0.00, -0.00, -1.00, 118.8, 5.9)">o</text><text xml:space="preserve" font-family="Helvetica" font-size="18.0" fill="#FEFFFF" transform="matrix(1.00, 0.00, -0.00, -1.00, 128.8, 5.9)">j</text><text xml:space="preserve" font-family="Helvetica" font-size="18.0" fill="#FEFFFF" transform="matrix(1.00, 0.00, -0.00, -1.00, 132.8, 5.9)">e</text><text xml:space="preserve" font-family="Helvetica" font-size="18.0" fill="#FEFFFF" transform="matrix(1.00, 0.00, -0.00, -1.00, 142.8, 5.9)">c</text><text xml:space="preserve" font-family="Helvetica" font-size="18.0" fill="#FEFFFF" transform="matrix(1.00, 0.00, -0.00, -1.00, 151.8, 5.9)">t</text><g><clipPath id="clip-294"><path d="M 0.7 3.1 L 156.8 3.1 L 156.8 6.0 L 0.7 6.0 Z M 0.7 3.1 "></path></clipPath><g clip-path="url(#clip-294)"><path d="M 129.5 22.2 L 284.6 22.2 " fill="none" stroke="#FEFFFF" stroke-width="0.89" stroke-miterlimit="0.00" transform="matrix(1.00, 0.00, 0.00, -1.00, -127.8, 26.8)"></path></g></g></g></svg>