<?xml version="1.0" encoding="UTF-8" standalone="no"?><svg xmlns="http://www.w3.org/2000/svg" xmlns:xlink="http://www.w3.org/1999/xlink" clip-rule="evenodd" stroke-miterlimit="4.00" viewBox="0 0 470 35"><desc>SVG generated by Keynote</desc><defs></defs><g transform="matrix(1.00, 0.00, -0.00, -1.00, 0.0, 35.0)"><text xml:space="preserve" font-family="Helvetica" font-size="15.0" fill="#888888" transform="matrix(1.00, 0.00, -0.00, -1.00, 2.0, 22.0)">F</text><text xml:space="preserve" font-family="Helvetica" font-size="15.0" fill="#888888" transform="matrix(1.00, 0.00, -0.00, -1.00, 11.2, 22.0)">r</text><text xml:space="preserve" font-family="Helvetica" font-size="15.0" fill="#888888" transform="matrix(1.00, 0.00, -0.00, -1.00, 16.2, 22.0)">o</text><text xml:space="preserve" font-family="Helvetica" font-size="15.0" fill="#888888" transform="matrix(1.00, 0.00, -0.00, -1.00, 24.5, 22.0)">m</text><text xml:space="preserve" font-family="Helvetica" font-size="15.0" fill="#888888" transform="matrix(1.00, 0.00, -0.00, -1.00, 37.0, 22.0)"> </text><text xml:space="preserve" font-family="Helvetica" font-size="15.0" fill="#888888" transform="matrix(1.00, 0.00, -0.00, -1.00, 41.2, 22.0)">U</text><text xml:space="preserve" font-family="Helvetica" font-size="15.0" fill="#888888" transform="matrix(1.00, 0.00, -0.00, -1.00, 52.0, 22.0)">n</text><text xml:space="preserve" font-family="Helvetica" font-size="15.0" fill="#888888" transform="matrix(1.00, 0.00, -0.00, -1.00, 60.3, 22.0)">i</text><text xml:space="preserve" font-family="Helvetica" font-size="15.0" fill="#888888" transform="matrix(1.00, 0.00, -0.00, -1.00, 63.7, 22.0)">v</text><text xml:space="preserve" font-family="Helvetica" font-size="15.0" fill="#888888" transform="matrix(1.00, 0.00, -0.00, -1.00, 71.2, 22.0)">e</text><text xml:space="preserve" font-family="Helvetica" font-size="15.0" fill="#888888" transform="matrix(1.00, 0.00, -0.00, -1.00, 79.5, 22.0)">r</text><text xml:space="preserve" font-family="Helvetica" font-size="15.0" fill="#888888" transform="matrix(1.00, 0.00, -0.00, -1.00, 84.5, 22.0)">s</text><text xml:space="preserve" font-family="Helvetica" font-size="15.0" fill="#888888" transform="matrix(1.00, 0.00, -0.00, -1.00, 92.0, 22.0)">i</text><text xml:space="preserve" font-family="Helvetica" font-size="15.0" fill="#888888" transform="matrix(1.00, 0.00, -0.00, -1.00, 95.4, 22.0)">t</text><text xml:space="preserve" font-family="Helvetica" font-size="15.0" fill="#888888" transform="matrix(1.00, 0.00, -0.00, -1.00, 99.5, 22.0)">y</text><text xml:space="preserve" font-family="Helvetica" font-size="15.0" fill="#888888" transform="matrix(1.00, 0.00, -0.00, -1.00, 107.0, 22.0)"> </text><text xml:space="preserve" font-family="Helvetica" font-size="15.0" fill="#888888" transform="matrix(1.00, 0.00, -0.00, -1.00, 111.2, 22.0)">o</text><text xml:space="preserve" font-family="Helvetica" font-size="15.0" fill="#888888" transform="matrix(1.00, 0.00, -0.00, -1.00, 119.5, 22.0)">f</text><text xml:space="preserve" font-family="Helvetica" font-size="15.0" fill="#888888" transform="matrix(1.00, 0.00, -0.00, -1.00, 123.7, 22.0)"> </text><text xml:space="preserve" font-family="Helvetica" font-size="15.0" fill="#888888" transform="matrix(1.00, 0.00, -0.00, -1.00, 127.9, 22.0)">W</text><text xml:space="preserve" font-family="Helvetica" font-size="15.0" fill="#888888" transform="matrix(1.00, 0.00, -0.00, -1.00, 141.7, 22.0)">o</text><text xml:space="preserve" font-family="Helvetica" font-size="15.0" fill="#888888" transform="matrix(1.00, 0.00, -0.00, -1.00, 150.1, 22.0)">l</text><text xml:space="preserve" font-family="Helvetica" font-size="15.0" fill="#888888" transform="matrix(1.00, 0.00, -0.00, -1.00, 153.4, 22.0)">v</text><text xml:space="preserve" font-family="Helvetica" font-size="15.0" fill="#888888" transform="matrix(1.00, 0.00, -0.00, -1.00, 160.9, 22.0)">e</text><text xml:space="preserve" font-family="Helvetica" font-size="15.0" fill="#888888" transform="matrix(1.00, 0.00, -0.00, -1.00, 169.3, 22.0)">r</text><text xml:space="preserve" font-family="Helvetica" font-size="15.0" fill="#888888" transform="matrix(1.00, 0.00, -0.00, -1.00, 174.3, 22.0)">h</text><text xml:space="preserve" font-family="Helvetica" font-size="15.0" fill="#888888" transform="matrix(1.00, 0.00, -0.00, -1.00, 182.6, 22.0)">a</text><text xml:space="preserve" font-family="Helvetica" font-size="15.0" fill="#888888" transform="matrix(1.00, 0.00, -0.00, -1.00, 191.0, 22.0)">m</text><text xml:space="preserve" font-family="Helvetica" font-size="15.0" fill="#888888" transform="matrix(1.00, 0.00, -0.00, -1.00, 203.5, 22.0)">p</text><text xml:space="preserve" font-family="Helvetica" font-size="15.0" fill="#888888" transform="matrix(1.00, 0.00, -0.00, -1.00, 211.8, 22.0)">t</text><text xml:space="preserve" font-family="Helvetica" font-size="15.0" fill="#888888" transform="matrix(1.00, 0.00, -0.00, -1.00, 216.0, 22.0)">o</text><text xml:space="preserve" font-family="Helvetica" font-size="15.0" fill="#888888" transform="matrix(1.00, 0.00, -0.00, -1.00, 224.3, 22.0)">n</text><text xml:space="preserve" font-family="Helvetica" font-size="15.0" fill="#888888" transform="matrix(1.00, 0.00, -0.00, -1.00, 232.7, 22.0)"> </text><text xml:space="preserve" font-family="Helvetica" font-size="15.0" fill="#888888" transform="matrix(1.00, 0.00, -0.00, -1.00, 236.8, 22.0)">·</text><text xml:space="preserve" font-family="Helvetica" font-size="15.0" fill="#888888" transform="matrix(1.00, 0.00, -0.00, -1.00, 241.0, 22.0)"> </text><text xml:space="preserve" font-family="Helvetica" font-size="15.0" fill="#888888" transform="matrix(1.00, 0.00, -0.00, -1.00, 245.1, 22.0)">3</text><text xml:space="preserve" font-family="Helvetica" font-size="15.0" fill="#888888" transform="matrix(1.00, 0.00, -0.00, -1.00, 253.5, 22.0)">1</text><text xml:space="preserve" font-family="Helvetica" font-size="15.0" fill="#888888" transform="matrix(1.00, 0.00, -0.00, -1.00, 261.8, 22.0)"> </text><text xml:space="preserve" font-family="Helvetica" font-size="15.0" fill="#888888" transform="matrix(1.00, 0.00, -0.00, -1.00, 266.0, 22.0)">c</text><text xml:space="preserve" font-family="Helvetica" font-size="15.0" fill="#888888" transform="matrix(1.00, 0.00, -0.00, -1.00, 273.5, 22.0)">i</text><text xml:space="preserve" font-family="Helvetica" font-size="15.0" fill="#888888" transform="matrix(1.00, 0.00, -0.00, -1.00, 276.8, 22.0)">t</text><text xml:space="preserve" font-family="Helvetica" font-size="15.0" fill="#888888" transform="matrix(1.00, 0.00, -0.00, -1.00, 281.0, 22.0)">a</text><text xml:space="preserve" font-family="Helvetica" font-size="15.0" fill="#888888" transform="matrix(1.00, 0.00, -0.00, -1.00, 289.3, 22.0)">t</text><text xml:space="preserve" font-family="Helvetica" font-size="15.0" fill="#888888" transform="matrix(1.00, 0.00, -0.00, -1.00, 293.5, 22.0)">i</text><text xml:space="preserve" font-family="Helvetica" font-size="15.0" fill="#888888" transform="matrix(1.00, 0.00, -0.00, -1.00, 296.8, 22.0)">o</text><text xml:space="preserve" font-family="Helvetica" font-size="15.0" fill="#888888" transform="matrix(1.00, 0.00, -0.00, -1.00, 305.2, 22.0)">n</text><text xml:space="preserve" font-family="Helvetica" font-size="15.0" fill="#888888" transform="matrix(1.00, 0.00, -0.00, -1.00, 313.5, 22.0)">s</text><text xml:space="preserve" font-family="Helvetica" font-size="15.0" fill="#888888" transform="matrix(1.00, 0.00, -0.00, -1.00, 321.0, 22.0)"> </text><text xml:space="preserve" font-family="Helvetica" font-size="15.0" fill="#888888" transform="matrix(1.00, 0.00, -0.00, -1.00, 325.2, 22.0)">·</text><text xml:space="preserve" font-family="Helvetica" font-size="15.0" fill="#888888" transform="matrix(1.00, 0.00, -0.00, -1.00, 329.3, 22.0)"> </text><text xml:space="preserve" font-family="Helvetica" font-size="15.0" fill="#888888" transform="matrix(1.00, 0.00, -0.00, -1.00, 333.5, 22.0)">L</text><text xml:space="preserve" font-family="Helvetica" font-size="15.0" fill="#888888" transform="matrix(1.00, 0.00, -0.00, -1.00, 341.9, 22.0)">a</text><text xml:space="preserve" font-family="Helvetica" font-size="15.0" fill="#888888" transform="matrix(1.00, 0.00, -0.00, -1.00, 350.2, 22.0)">s</text><text xml:space="preserve" font-family="Helvetica" font-size="15.0" fill="#888888" transform="matrix(1.00, 0.00, -0.00, -1.00, 357.7, 22.0)">t</text><text xml:space="preserve" font-family="Helvetica" font-size="15.0" fill="#888888" transform="matrix(1.00, 0.00, -0.00, -1.00, 361.9, 22.0)"> </text><text xml:space="preserve" font-family="Helvetica" font-size="15.0" fill="#888888" transform="matrix(1.00, 0.00, -0.00, -1.00, 366.0, 22.0)">u</text><text xml:space="preserve" font-family="Helvetica" font-size="15.0" fill="#888888" transform="matrix(1.00, 0.00, -0.00, -1.00, 374.4, 22.0)">p</text><text xml:space="preserve" font-family="Helvetica" font-size="15.0" fill="#888888" transform="matrix(1.00, 0.00, -0.00, -1.00, 382.7, 22.0)">d</text><text xml:space="preserve" font-family="Helvetica" font-size="15.0" fill="#888888" transform="matrix(1.00, 0.00, -0.00, -1.00, 391.1, 22.0)">a</text><text xml:space="preserve" font-family="Helvetica" font-size="15.0" fill="#888888" transform="matrix(1.00, 0.00, -0.00, -1.00, 399.4, 22.0)">t</text><text xml:space="preserve" font-family="Helvetica" font-size="15.0" fill="#888888" transform="matrix(1.00, 0.00, -0.00, -1.00, 403.6, 22.0)">e</text><text xml:space="preserve" font-family="Helvetica" font-size="15.0" fill="#888888" transform="matrix(1.00, 0.00, -0.00, -1.00, 411.9, 22.0)">d</text><text xml:space="preserve" font-family="Helvetica" font-size="15.0" fill="#888888" transform="matrix(1.00, 0.00, -0.00, -1.00, 420.3, 22.0)"> </text><text xml:space="preserve" font-family="Helvetica" font-size="15.0" fill="#888888" transform="matrix(1.00, 0.00, -0.00, -1.00, 424.4, 22.0)">3</text><text xml:space="preserve" font-family="Helvetica" font-size="15.0" fill="#888888" transform="matrix(1.00, 0.00, -0.00, -1.00, 432.8, 22.0)">1</text><text xml:space="preserve" font-family="Helvetica" font-size="15.0" fill="#888888" transform="matrix(1.00, 0.00, -0.00, -1.00, 441.1, 22.0)"> </text><text xml:space="preserve" font-family="Helvetica" font-size="15.0" fill="#888888" transform="matrix(1.00, 0.00, -0.00, -1.00, 445.3, 22.0)">O</text><text xml:space="preserve" font-family="Helvetica" font-size="15.0" fill="#888888" transform="matrix(1.00, 0.00, -0.00, -1.00, 457.0, 22.0)">c</text><text xml:space="preserve" font-family="Helvetica" font-size="15.0" fill="#888888" transform="matrix(1.00, 0.00, -0.00, -1.00, 464.5, 22.0)">t</text><text xml:space="preserve" font-family="Helvetica" font-size="15.0" fill="#888888" transform="matrix(1.00, 0.00, -0.00, -1.00, 468.6, 22.0)"> </text><text xml:space="preserve" font-family="Helvetica" font-size="15.0" fill="#888888" transform="matrix(1.00, 0.00, -0.00, -1.00, 2.0, 2.0)">2</text><text xml:space="preserve" font-family="Helvetica" font-size="15.0" fill="#888888" transform="matrix(1.00, 0.00, -0.00, -1.00, 10.3, 2.0)">0</text><text xml:space="preserve" font-family="Helvetica" font-size="15.0" fill="#888888" transform="matrix(1.00, 0.00, -0.00, -1.00, 18.7, 2.0)">1</text><text xml:space="preserve" font-family="Helvetica" font-size="15.0" fill="#888888" transform="matrix(1.00, 0.00, -0.00, -1.00, 27.0, 2.0)">6</text></g></svg>